G04*
G04 #@! TF.GenerationSoftware,Altium Limited,Altium Designer,19.1.5 (86)*
G04*
G04 Layer_Color=65535*
%FSLAX25Y25*%
%MOIN*%
G70*
G01*
G75*
%ADD10C,0.00394*%
%ADD11C,0.00787*%
%ADD12C,0.01000*%
%ADD13C,0.00500*%
%ADD14C,0.00800*%
D10*
X400059Y453254D02*
D03*
X466041Y451462D02*
D03*
X516453Y454138D02*
D03*
D11*
X455098Y419158D02*
X454311D01*
X455098D01*
X469894Y318138D02*
X469106D01*
X469894D01*
X498638Y357862D02*
X497850D01*
X498638D01*
X399074Y450207D02*
Y450790D01*
X395925Y450207D02*
Y450790D01*
X412843Y448903D02*
Y449297D01*
X418157Y448903D02*
Y449297D01*
X435803Y306004D02*
X436197D01*
X435803Y311319D02*
X436197D01*
X418307Y467717D02*
X445866D01*
X418307Y496850D02*
X445866D01*
X418307Y467717D02*
Y496850D01*
X447441Y492303D02*
Y494862D01*
X445866Y494567D02*
X447441Y494862D01*
X445866Y492598D02*
X447441Y492303D01*
X445866Y494567D02*
Y496850D01*
Y471969D02*
X447441Y472264D01*
X445866Y470000D02*
X447441Y469705D01*
Y472264D01*
X445866Y467717D02*
Y470000D01*
Y471969D02*
Y492598D01*
X461403Y432058D02*
X461797D01*
X461403Y426743D02*
X461797D01*
X468309Y450674D02*
X468891D01*
X468309Y447525D02*
X468891D01*
X519783Y426743D02*
X520177D01*
X519783Y432058D02*
X520177D01*
X518307Y479921D02*
Y480315D01*
X513189Y479921D02*
Y480315D01*
X537343Y359634D02*
Y360028D01*
X542658Y359634D02*
Y360028D01*
X528543Y467717D02*
X556102D01*
X528543Y496850D02*
X556102D01*
X528543Y467717D02*
Y496850D01*
X557677Y492303D02*
Y494862D01*
X556102Y494567D02*
X557677Y494862D01*
X556102Y492598D02*
X557677Y492303D01*
X556102Y494567D02*
Y496850D01*
Y471969D02*
X557677Y472264D01*
X556102Y470000D02*
X557677Y469705D01*
Y472264D01*
X556102Y467717D02*
Y470000D01*
Y471969D02*
Y492598D01*
X590472Y310229D02*
Y310623D01*
X585354Y310229D02*
Y310623D01*
X590472Y337079D02*
Y337472D01*
X585354Y337079D02*
Y337472D01*
X590472Y363866D02*
Y364260D01*
X585354Y363866D02*
Y364260D01*
X611811Y440354D02*
Y467913D01*
X640945Y440354D02*
Y467913D01*
X611811D02*
X640945D01*
X636398Y438779D02*
X638957D01*
X638661Y440354D02*
X638957Y438779D01*
X636398D02*
X636693Y440354D01*
X638661D02*
X640945D01*
X616063D02*
X616358Y438779D01*
X613799D02*
X614094Y440354D01*
X613799Y438779D02*
X616358D01*
X611811Y440354D02*
X614094D01*
X616063D02*
X636693D01*
X377159Y390506D02*
Y390900D01*
X372041Y390506D02*
Y390900D01*
X389063Y336551D02*
Y336945D01*
X394181Y336551D02*
Y336945D01*
X394217Y364142D02*
Y364535D01*
X389098Y364142D02*
Y364535D01*
X388965Y390605D02*
Y390998D01*
X394280Y390605D02*
Y390998D01*
X404134Y479134D02*
Y479528D01*
X399016Y479134D02*
Y479528D01*
X412280Y336551D02*
Y336945D01*
X406965Y336551D02*
Y336945D01*
X407000Y364240D02*
Y364634D01*
X412315Y364240D02*
Y364634D01*
X463091Y395866D02*
Y396260D01*
X468405Y395866D02*
Y396260D01*
X502362Y415354D02*
X524016D01*
X502362Y406299D02*
Y415354D01*
Y388583D02*
Y397638D01*
Y388583D02*
X524016D01*
X529134Y406299D02*
Y410236D01*
X524016Y415354D02*
X529134Y410236D01*
X524016Y388583D02*
X529134Y393701D01*
Y397638D01*
X513209Y454926D02*
X513791D01*
X513209Y458075D02*
X513791D01*
X567256Y310504D02*
Y310898D01*
X572571Y310504D02*
Y310898D01*
X567354Y337079D02*
Y337472D01*
X572669Y337079D02*
Y337472D01*
X567256Y363866D02*
Y364260D01*
X572571Y363866D02*
Y364260D01*
X561024Y415567D02*
X582677D01*
X561024Y406512D02*
Y415567D01*
Y388795D02*
Y397850D01*
Y388795D02*
X582677D01*
X587795Y406512D02*
Y410449D01*
X582677Y415567D02*
X587795Y410449D01*
X582677Y388795D02*
X587795Y393913D01*
Y397850D01*
X468307Y480118D02*
Y480512D01*
X463189Y480118D02*
Y480512D01*
X641221Y327693D02*
Y407693D01*
X631220D02*
X641221D01*
X631220Y327693D02*
X641221D01*
X631220D02*
Y407693D01*
D12*
X369701Y461000D02*
Y468000D01*
X387701Y461000D02*
Y468000D01*
X383701Y461000D02*
Y468000D01*
X369701Y461000D02*
X387701D01*
X369701Y468000D02*
X387701D01*
X490100Y458500D02*
Y465500D01*
X472100Y458500D02*
Y465500D01*
X476100Y458500D02*
Y465500D01*
X472100D02*
X490100D01*
X472100Y458500D02*
X490100D01*
X492000Y449000D02*
X510000D01*
X492000Y442000D02*
X510000D01*
X506000D02*
Y449000D01*
X510000Y442000D02*
Y449000D01*
X492000Y442000D02*
Y449000D01*
X617432Y334265D02*
X616599Y335098D01*
X614933D01*
X614100Y334265D01*
Y330933D01*
X614933Y330100D01*
X616599D01*
X617432Y330933D01*
Y332599D01*
X615766D01*
X619098Y330100D02*
Y335098D01*
X622431Y330100D01*
Y335098D01*
X624097D02*
Y330100D01*
X626596D01*
X627429Y330933D01*
Y334265D01*
X626596Y335098D01*
X624097D01*
X603257Y344415D02*
X602424Y345248D01*
X600758D01*
X599925Y344415D01*
Y341083D01*
X600758Y340250D01*
X602424D01*
X603257Y341083D01*
X604924Y340250D02*
Y343582D01*
X607423D01*
X608256Y342749D01*
Y340250D01*
X610755Y344415D02*
Y343582D01*
X609922D01*
X611588D01*
X610755D01*
Y341083D01*
X611588Y340250D01*
X614087Y339417D02*
X617419D01*
X621585Y340250D02*
X619919D01*
X619086Y341083D01*
Y342749D01*
X619919Y343582D01*
X621585D01*
X622418Y342749D01*
Y341916D01*
X619086D01*
X624084Y340250D02*
Y343582D01*
X626583D01*
X627416Y342749D01*
Y340250D01*
X603257Y354665D02*
X602424Y355498D01*
X600758D01*
X599925Y354665D01*
Y351333D01*
X600758Y350500D01*
X602424D01*
X603257Y351333D01*
X604924Y350500D02*
Y353832D01*
X607423D01*
X608256Y352999D01*
Y350500D01*
X610755Y354665D02*
Y353832D01*
X609922D01*
X611588D01*
X610755D01*
Y351333D01*
X611588Y350500D01*
X614087Y349667D02*
X617419D01*
X619086Y353832D02*
Y350500D01*
Y352166D01*
X619919Y352999D01*
X620752Y353832D01*
X621585D01*
X624084Y350500D02*
X626583D01*
X627416Y351333D01*
X626583Y352166D01*
X624917D01*
X624084Y352999D01*
X624917Y353832D01*
X627416D01*
X604118Y361000D02*
Y365998D01*
X605784Y364332D01*
X607450Y365998D01*
Y361000D01*
X609117Y364332D02*
Y361833D01*
X609949Y361000D01*
X612449D01*
Y364332D01*
X614115D02*
X617447Y361000D01*
X615781Y362666D01*
X617447Y364332D01*
X614115Y361000D01*
X619113Y360167D02*
X622445D01*
X627444Y364332D02*
X624945D01*
X624112Y363499D01*
Y361833D01*
X624945Y361000D01*
X627444D01*
X603925Y370500D02*
Y375498D01*
X605591Y373832D01*
X607257Y375498D01*
Y370500D01*
X608924Y373832D02*
Y371333D01*
X609757Y370500D01*
X612256D01*
Y373832D01*
X613922D02*
X617254Y370500D01*
X615588Y372166D01*
X617254Y373832D01*
X613922Y370500D01*
X618920Y369667D02*
X622253D01*
X623919Y375498D02*
Y370500D01*
X626418D01*
X627251Y371333D01*
Y372166D01*
Y372999D01*
X626418Y373832D01*
X623919D01*
X604118Y381000D02*
Y385998D01*
X605784Y384332D01*
X607450Y385998D01*
Y381000D01*
X609117Y384332D02*
Y381833D01*
X609949Y381000D01*
X612449D01*
Y384332D01*
X614115D02*
X617447Y381000D01*
X615781Y382666D01*
X617447Y384332D01*
X614115Y381000D01*
X619113Y380167D02*
X622445D01*
X624945Y384332D02*
X626611D01*
X627444Y383499D01*
Y381000D01*
X624945D01*
X624112Y381833D01*
X624945Y382666D01*
X627444D01*
X604118Y391000D02*
Y395998D01*
X605784Y394332D01*
X607450Y395998D01*
Y391000D01*
X609117Y394332D02*
Y391833D01*
X609949Y391000D01*
X612449D01*
Y394332D01*
X614115D02*
X617447Y391000D01*
X615781Y392666D01*
X617447Y394332D01*
X614115Y391000D01*
X619113Y390167D02*
X622445D01*
X624945Y391000D02*
X626611D01*
X627444Y391833D01*
Y393499D01*
X626611Y394332D01*
X624945D01*
X624112Y393499D01*
Y391833D01*
X624945Y391000D01*
X589735Y462243D02*
X590568Y463076D01*
X592235D01*
X593068Y462243D01*
Y461409D01*
X592235Y460576D01*
X591402D01*
X592235D01*
X593068Y459743D01*
Y458910D01*
X592235Y458077D01*
X590568D01*
X589735Y458910D01*
X594734Y458077D02*
Y458910D01*
X595567D01*
Y458077D01*
X594734D01*
X598899Y462243D02*
X599732Y463076D01*
X601398D01*
X602231Y462243D01*
Y461409D01*
X601398Y460576D01*
X600565D01*
X601398D01*
X602231Y459743D01*
Y458910D01*
X601398Y458077D01*
X599732D01*
X598899Y458910D01*
X603897Y463076D02*
Y459743D01*
X605564Y458077D01*
X607230Y459743D01*
Y463076D01*
X435634Y451851D02*
X440632D01*
Y454350D01*
X439799Y455183D01*
X436467D01*
X435634Y454350D01*
Y451851D01*
X440632Y456850D02*
Y458516D01*
Y457683D01*
X437300D01*
Y456850D01*
Y461015D02*
X440632D01*
X438966D01*
X438133Y461848D01*
X437300Y462681D01*
Y463514D01*
X597032Y448365D02*
X596199Y449198D01*
X594533D01*
X593700Y448365D01*
Y445033D01*
X594533Y444200D01*
X596199D01*
X597032Y445033D01*
Y446699D01*
X595366D01*
X598698Y444200D02*
Y449198D01*
X602031Y444200D01*
Y449198D01*
X603697D02*
Y444200D01*
X606196D01*
X607029Y445033D01*
Y448365D01*
X606196Y449198D01*
X603697D01*
X614925Y405498D02*
Y400500D01*
X617424D01*
X618257Y401333D01*
Y404665D01*
X617424Y405498D01*
X614925D01*
X619924Y400500D02*
X621590D01*
X620757D01*
Y403832D01*
X619924D01*
X624089D02*
Y400500D01*
Y402166D01*
X624922Y402999D01*
X625755Y403832D01*
X626588D01*
X427243Y445958D02*
X422244D01*
Y448457D01*
X423077Y449290D01*
X424743D01*
X425576Y448457D01*
Y445958D01*
Y447624D02*
X427243Y449290D01*
Y453455D02*
Y451789D01*
X426409Y450956D01*
X424743D01*
X423910Y451789D01*
Y453455D01*
X424743Y454288D01*
X425576D01*
Y450956D01*
X427243Y458453D02*
Y456787D01*
X426409Y455954D01*
X424743D01*
X423910Y456787D01*
Y458453D01*
X424743Y459286D01*
X425576D01*
Y455954D01*
X422244Y464285D02*
X427243D01*
Y461786D01*
X426409Y460953D01*
X424743D01*
X423910Y461786D01*
Y464285D01*
X534417Y446838D02*
X533584Y447671D01*
Y449337D01*
X534417Y450170D01*
X535250D01*
X536084Y449337D01*
Y448504D01*
Y449337D01*
X536917Y450170D01*
X537750D01*
X538583Y449337D01*
Y447671D01*
X537750Y446838D01*
X538583Y451836D02*
X537750D01*
Y452669D01*
X538583D01*
Y451836D01*
X534417Y456002D02*
X533584Y456835D01*
Y458501D01*
X534417Y459334D01*
X535250D01*
X536084Y458501D01*
Y457668D01*
Y458501D01*
X536917Y459334D01*
X537750D01*
X538583Y458501D01*
Y456835D01*
X537750Y456002D01*
X533584Y461000D02*
X536917D01*
X538583Y462666D01*
X536917Y464332D01*
X533584D01*
X548984Y454107D02*
X548151Y453274D01*
Y451608D01*
X548984Y450775D01*
X552317D01*
X553150Y451608D01*
Y453274D01*
X552317Y454107D01*
X550650D01*
Y452441D01*
X553150Y455773D02*
X548151D01*
X553150Y459105D01*
X548151D01*
Y460772D02*
X553150D01*
Y463271D01*
X552317Y464104D01*
X548984D01*
X548151Y463271D01*
Y460772D01*
D13*
X454783Y393783D02*
Y409531D01*
X414902Y393783D02*
Y409531D01*
X444126Y318059D02*
X459874D01*
X444126Y357941D02*
X459874D01*
X507870D02*
X523618D01*
X507870Y318059D02*
X523618D01*
D14*
X361200Y473499D02*
Y470000D01*
X362949D01*
X363533Y470583D01*
Y472916D01*
X362949Y473499D01*
X361200D01*
X364699Y472333D02*
Y470000D01*
Y471166D01*
X365282Y471749D01*
X365865Y472333D01*
X366448D01*
X369947Y470000D02*
X368781D01*
X368198Y470583D01*
Y471749D01*
X368781Y472333D01*
X369947D01*
X370530Y471749D01*
Y471166D01*
X368198D01*
X374029Y470000D02*
X371697D01*
X374029Y472333D01*
Y472916D01*
X373446Y473499D01*
X372280D01*
X371697Y472916D01*
X485500Y454399D02*
Y450900D01*
X487249D01*
X487833Y451483D01*
Y453816D01*
X487249Y454399D01*
X485500D01*
X489582Y453233D02*
X490748D01*
X491331Y452649D01*
Y450900D01*
X489582D01*
X488999Y451483D01*
X489582Y452066D01*
X491331D01*
X492498Y453233D02*
X493664Y450900D01*
X494830Y453233D01*
X498329D02*
X496580D01*
X495997Y452649D01*
Y451483D01*
X496580Y450900D01*
X498329D01*
X501828Y453233D02*
X500079D01*
X499496Y452649D01*
Y451483D01*
X500079Y450900D01*
X501828D01*
X505327D02*
X502994D01*
X505327Y453233D01*
Y453816D01*
X504744Y454399D01*
X503578D01*
X502994Y453816D01*
X485100Y470999D02*
Y467500D01*
X486849D01*
X487433Y468083D01*
Y470416D01*
X486849Y470999D01*
X485100D01*
X489182Y469833D02*
X490348D01*
X490932Y469249D01*
Y467500D01*
X489182D01*
X488599Y468083D01*
X489182Y468666D01*
X490932D01*
X492098Y467500D02*
Y469833D01*
X493847D01*
X494430Y469249D01*
Y467500D01*
X497929D02*
X495597D01*
X497929Y469833D01*
Y470416D01*
X497346Y470999D01*
X496180D01*
X495597Y470416D01*
X611900Y470734D02*
Y474233D01*
X613649D01*
X614233Y473649D01*
Y472483D01*
X613649Y471900D01*
X611900D01*
X615982D02*
X617148D01*
X617732Y472483D01*
Y473649D01*
X617148Y474233D01*
X615982D01*
X615399Y473649D01*
Y472483D01*
X615982Y471900D01*
X618898Y474233D02*
Y472483D01*
X619481Y471900D01*
X620064Y472483D01*
X620647Y471900D01*
X621230Y472483D01*
Y474233D01*
X624146Y471900D02*
X622980D01*
X622397Y472483D01*
Y473649D01*
X622980Y474233D01*
X624146D01*
X624729Y473649D01*
Y473066D01*
X622397D01*
X625896Y474233D02*
Y471900D01*
Y473066D01*
X626479Y473649D01*
X627062Y474233D01*
X627645D01*
X629394Y471317D02*
X631727D01*
X632893Y471900D02*
X634059D01*
X633476D01*
Y474233D01*
X632893D01*
X635809Y471900D02*
Y474233D01*
X637558D01*
X638141Y473649D01*
Y471900D01*
X416483Y502733D02*
X417649D01*
X418233Y502149D01*
Y500400D01*
X416483D01*
X415900Y500983D01*
X416483Y501566D01*
X418233D01*
X419399Y500400D02*
Y502733D01*
X421148D01*
X421732Y502149D01*
Y500400D01*
X424647D02*
X423481D01*
X422898Y500983D01*
Y502149D01*
X423481Y502733D01*
X424647D01*
X425230Y502149D01*
Y501566D01*
X422898D01*
X426397Y500400D02*
Y502733D01*
X426980D01*
X427563Y502149D01*
Y500400D01*
Y502149D01*
X428146Y502733D01*
X428729Y502149D01*
Y500400D01*
X430479D02*
X431645D01*
X432228Y500983D01*
Y502149D01*
X431645Y502733D01*
X430479D01*
X429895Y502149D01*
Y500983D01*
X430479Y500400D01*
X433394Y499817D02*
X435727D01*
X436893Y500400D02*
X438643D01*
X439226Y500983D01*
X438643Y501566D01*
X437476D01*
X436893Y502149D01*
X437476Y502733D01*
X439226D01*
X440392Y500400D02*
X441558D01*
X440975D01*
Y502733D01*
X440392D01*
X444474Y499234D02*
X445057D01*
X445640Y499817D01*
Y502733D01*
X443891D01*
X443308Y502149D01*
Y500983D01*
X443891Y500400D01*
X445640D01*
X446807D02*
Y502733D01*
X448556D01*
X449139Y502149D01*
Y500400D01*
X450889Y502733D02*
X452055D01*
X452638Y502149D01*
Y500400D01*
X450889D01*
X450306Y500983D01*
X450889Y501566D01*
X452638D01*
X453804Y500400D02*
X454971D01*
X454388D01*
Y503899D01*
X453804D01*
X456720Y500400D02*
X458470D01*
X459053Y500983D01*
X458470Y501566D01*
X457303D01*
X456720Y502149D01*
X457303Y502733D01*
X459053D01*
X528930Y502726D02*
X530096D01*
X530679Y502143D01*
Y500394D01*
X528930D01*
X528346Y500977D01*
X528930Y501560D01*
X530679D01*
X531845Y500394D02*
Y502726D01*
X533595D01*
X534178Y502143D01*
Y500394D01*
X537094D02*
X535927D01*
X535344Y500977D01*
Y502143D01*
X535927Y502726D01*
X537094D01*
X537677Y502143D01*
Y501560D01*
X535344D01*
X538843Y500394D02*
Y502726D01*
X539426D01*
X540009Y502143D01*
Y500394D01*
Y502143D01*
X540592Y502726D01*
X541176Y502143D01*
Y500394D01*
X542925D02*
X544091D01*
X544674Y500977D01*
Y502143D01*
X544091Y502726D01*
X542925D01*
X542342Y502143D01*
Y500977D01*
X542925Y500394D01*
X545841Y499811D02*
X548173D01*
X549340Y499227D02*
Y502726D01*
X551089D01*
X551672Y502143D01*
Y500977D01*
X551089Y500394D01*
X549340D01*
X553422D02*
X554588D01*
X555171Y500977D01*
Y502143D01*
X554588Y502726D01*
X553422D01*
X552839Y502143D01*
Y500977D01*
X553422Y500394D01*
X556337Y502726D02*
Y500977D01*
X556921Y500394D01*
X557504Y500977D01*
X558087Y500394D01*
X558670Y500977D01*
Y502726D01*
X561586Y500394D02*
X560419D01*
X559836Y500977D01*
Y502143D01*
X560419Y502726D01*
X561586D01*
X562169Y502143D01*
Y501560D01*
X559836D01*
X563335Y502726D02*
Y500394D01*
Y501560D01*
X563918Y502143D01*
X564501Y502726D01*
X565085D01*
X510827Y490158D02*
Y493656D01*
X512576D01*
X513159Y493073D01*
Y491907D01*
X512576Y491324D01*
X510827D01*
X511993D02*
X513159Y490158D01*
X514909Y492490D02*
X516075D01*
X516658Y491907D01*
Y490158D01*
X514909D01*
X514326Y490741D01*
X514909Y491324D01*
X516658D01*
X517825Y492490D02*
X518991Y490158D01*
X520157Y492490D01*
X523656D02*
X521907D01*
X521323Y491907D01*
Y490741D01*
X521907Y490158D01*
X523656D01*
X527155Y492490D02*
X525405D01*
X524822Y491907D01*
Y490741D01*
X525405Y490158D01*
X527155D01*
X464419Y456469D02*
Y452970D01*
X466168D01*
X466751Y453553D01*
Y455886D01*
X466168Y456469D01*
X464419D01*
X468501Y455303D02*
X469667D01*
X470250Y454719D01*
Y452970D01*
X468501D01*
X467918Y453553D01*
X468501Y454136D01*
X470250D01*
X471417Y452970D02*
Y455303D01*
X473166D01*
X473749Y454719D01*
Y452970D01*
X509209Y463345D02*
Y459846D01*
X510958D01*
X511541Y460430D01*
Y462762D01*
X510958Y463345D01*
X509209D01*
X513291Y462179D02*
X514457D01*
X515040Y461596D01*
Y459846D01*
X513291D01*
X512708Y460430D01*
X513291Y461013D01*
X515040D01*
X516206Y462179D02*
X517373Y459846D01*
X518539Y462179D01*
X522038D02*
X520288D01*
X519705Y461596D01*
Y460430D01*
X520288Y459846D01*
X522038D01*
X525537Y462179D02*
X523787D01*
X523204Y461596D01*
Y460430D01*
X523787Y459846D01*
X525537D01*
X514167Y438221D02*
X513584Y438804D01*
X512418D01*
X511835Y438221D01*
Y435889D01*
X512418Y435306D01*
X513584D01*
X514167Y435889D01*
X515917Y437638D02*
X517083D01*
X517666Y437055D01*
Y435306D01*
X515917D01*
X515334Y435889D01*
X515917Y436472D01*
X517666D01*
X518832Y437638D02*
X519999Y435306D01*
X521165Y437638D01*
X524664D02*
X522914D01*
X522331Y437055D01*
Y435889D01*
X522914Y435306D01*
X524664D01*
X528163Y437638D02*
X526413D01*
X525830Y437055D01*
Y435889D01*
X526413Y435306D01*
X528163D01*
X438221Y364334D02*
Y361418D01*
X438804Y360835D01*
X439970D01*
X440553Y361418D01*
Y364334D01*
X441719Y360835D02*
X442886D01*
X442303D01*
Y364334D01*
X441719Y363750D01*
X460248Y490315D02*
Y493814D01*
X461998D01*
X462581Y493231D01*
Y492064D01*
X461998Y491481D01*
X460248D01*
X461414D02*
X462581Y490315D01*
X464330Y492648D02*
X465496D01*
X466080Y492064D01*
Y490315D01*
X464330D01*
X463747Y490898D01*
X464330Y491481D01*
X466080D01*
X467246Y490315D02*
Y492648D01*
X468995D01*
X469578Y492064D01*
Y490315D01*
X396654Y488976D02*
Y492475D01*
X398403D01*
X398986Y491892D01*
Y490726D01*
X398403Y490143D01*
X396654D01*
X397820D02*
X398986Y488976D01*
X400152Y491309D02*
Y488976D01*
Y490143D01*
X400736Y490726D01*
X401319Y491309D01*
X401902D01*
X405401Y488976D02*
X404234D01*
X403651Y489560D01*
Y490726D01*
X404234Y491309D01*
X405401D01*
X405984Y490726D01*
Y490143D01*
X403651D01*
X392579Y459903D02*
Y456404D01*
X394328D01*
X394911Y456987D01*
Y459320D01*
X394328Y459903D01*
X392579D01*
X396078Y458737D02*
Y456404D01*
Y457570D01*
X396661Y458153D01*
X397244Y458737D01*
X397827D01*
X401326Y456404D02*
X400160D01*
X399576Y456987D01*
Y458153D01*
X400160Y458737D01*
X401326D01*
X401909Y458153D01*
Y457570D01*
X399576D01*
X457535Y438615D02*
X456952Y439198D01*
X455786D01*
X455202Y438615D01*
Y436282D01*
X455786Y435699D01*
X456952D01*
X457535Y436282D01*
X459284Y438032D02*
X460451D01*
X461034Y437449D01*
Y435699D01*
X459284D01*
X458701Y436282D01*
X459284Y436866D01*
X461034D01*
X462200Y435699D02*
Y438032D01*
X463949D01*
X464533Y437449D01*
Y435699D01*
X413108Y462252D02*
X412525Y462835D01*
X411359D01*
X410776Y462252D01*
Y459919D01*
X411359Y459336D01*
X412525D01*
X413108Y459919D01*
X414275Y461669D02*
Y459336D01*
Y460502D01*
X414858Y461086D01*
X415441Y461669D01*
X416024D01*
X419523Y459336D02*
X418357D01*
X417773Y459919D01*
Y461086D01*
X418357Y461669D01*
X419523D01*
X420106Y461086D01*
Y460502D01*
X417773D01*
X369200Y399800D02*
Y403299D01*
X370949D01*
X371533Y402716D01*
Y401549D01*
X370949Y400966D01*
X369200D01*
X370366D02*
X371533Y399800D01*
X372699D02*
X374448D01*
X375031Y400383D01*
X374448Y400966D01*
X373282D01*
X372699Y401549D01*
X373282Y402133D01*
X375031D01*
X376198Y399800D02*
X377364D01*
X376781D01*
Y402133D01*
X376198D01*
X379114Y399800D02*
X380280D01*
X379697D01*
Y403299D01*
X379114Y402716D01*
X583413Y320151D02*
Y323650D01*
X585163D01*
X585746Y323066D01*
Y321900D01*
X585163Y321317D01*
X583413D01*
X584580D02*
X585746Y320151D01*
X586912D02*
X588662D01*
X589245Y320734D01*
X588662Y321317D01*
X587495D01*
X586912Y321900D01*
X587495Y322483D01*
X589245D01*
X590411Y320151D02*
X591577D01*
X590994D01*
Y322483D01*
X590411D01*
X595659Y323650D02*
X594493Y323066D01*
X593327Y321900D01*
Y320734D01*
X593910Y320151D01*
X595076D01*
X595659Y320734D01*
Y321317D01*
X595076Y321900D01*
X593327D01*
X388233Y403211D02*
X387649Y403794D01*
X386483D01*
X385900Y403211D01*
Y400878D01*
X386483Y400295D01*
X387649D01*
X388233Y400878D01*
X389399Y400295D02*
X391148D01*
X391731Y400878D01*
X391148Y401462D01*
X389982D01*
X389399Y402045D01*
X389982Y402628D01*
X391731D01*
X392898Y400295D02*
X394064D01*
X393481D01*
Y402628D01*
X392898D01*
X395813Y400295D02*
X396980D01*
X396397D01*
Y403794D01*
X395813Y403211D01*
X463549Y408577D02*
X462966Y409160D01*
X461800D01*
X461216Y408577D01*
Y406245D01*
X461800Y405661D01*
X462966D01*
X463549Y406245D01*
X464715Y409160D02*
Y405661D01*
X466465D01*
X467048Y406245D01*
Y406828D01*
Y407411D01*
X466465Y407994D01*
X464715D01*
X468214Y408577D02*
X468797Y409160D01*
X469964D01*
X470547Y408577D01*
Y407994D01*
X469964Y407411D01*
X469381D01*
X469964D01*
X470547Y406828D01*
Y406245D01*
X469964Y405661D01*
X468797D01*
X468214Y406245D01*
X567246Y323617D02*
X566663Y324200D01*
X565496D01*
X564913Y323617D01*
Y321284D01*
X565496Y320701D01*
X566663D01*
X567246Y321284D01*
X568412Y320701D02*
X570162D01*
X570745Y321284D01*
X570162Y321867D01*
X568995D01*
X568412Y322450D01*
X568995Y323033D01*
X570745D01*
X571911Y320701D02*
X573077D01*
X572494D01*
Y323033D01*
X571911D01*
X577159Y324200D02*
X575993Y323617D01*
X574827Y322450D01*
Y321284D01*
X575410Y320701D01*
X576576D01*
X577159Y321284D01*
Y321867D01*
X576576Y322450D01*
X574827D01*
X567344Y350191D02*
X566761Y350774D01*
X565595D01*
X565012Y350191D01*
Y347859D01*
X565595Y347276D01*
X566761D01*
X567344Y347859D01*
X568511Y347276D02*
X570260D01*
X570843Y347859D01*
X570260Y348442D01*
X569094D01*
X568511Y349025D01*
X569094Y349608D01*
X570843D01*
X572010Y347276D02*
X573176D01*
X572593D01*
Y349608D01*
X572010D01*
X577258Y350774D02*
X574925D01*
Y349025D01*
X576092Y349608D01*
X576675D01*
X577258Y349025D01*
Y347859D01*
X576675Y347276D01*
X575508D01*
X574925Y347859D01*
X415354Y422790D02*
Y419874D01*
X415938Y419291D01*
X417104D01*
X417687Y419874D01*
Y422790D01*
X418853Y422207D02*
X419436Y422790D01*
X420603D01*
X421186Y422207D01*
Y421624D01*
X420603Y421041D01*
X420019D01*
X420603D01*
X421186Y420458D01*
Y419874D01*
X420603Y419291D01*
X419436D01*
X418853Y419874D01*
X583413Y347142D02*
Y350641D01*
X585163D01*
X585746Y350057D01*
Y348891D01*
X585163Y348308D01*
X583413D01*
X584580D02*
X585746Y347142D01*
X586912D02*
X588662D01*
X589245Y347725D01*
X588662Y348308D01*
X587495D01*
X586912Y348891D01*
X587495Y349474D01*
X589245D01*
X590411Y347142D02*
X591577D01*
X590994D01*
Y349474D01*
X590411D01*
X595659Y350641D02*
X593327D01*
Y348891D01*
X594493Y349474D01*
X595076D01*
X595659Y348891D01*
Y347725D01*
X595076Y347142D01*
X593910D01*
X593327Y347725D01*
X582913Y373929D02*
Y377428D01*
X584663D01*
X585246Y376845D01*
Y375678D01*
X584663Y375095D01*
X582913D01*
X584080D02*
X585246Y373929D01*
X586412D02*
X588162D01*
X588745Y374512D01*
X588162Y375095D01*
X586995D01*
X586412Y375678D01*
X586995Y376262D01*
X588745D01*
X589911Y373929D02*
X591077D01*
X590494D01*
Y376262D01*
X589911D01*
X594576Y373929D02*
Y377428D01*
X592827Y375678D01*
X595159D01*
X386658Y374205D02*
Y377704D01*
X388407D01*
X388990Y377120D01*
Y375954D01*
X388407Y375371D01*
X386658D01*
X387824D02*
X388990Y374205D01*
X390156D02*
X391906D01*
X392489Y374788D01*
X391906Y375371D01*
X390739D01*
X390156Y375954D01*
X390739Y376537D01*
X392489D01*
X393655Y374205D02*
X394822D01*
X394238D01*
Y376537D01*
X393655D01*
X398903Y374205D02*
X396571D01*
X398903Y376537D01*
Y377120D01*
X398320Y377704D01*
X397154D01*
X396571Y377120D01*
X386622Y346748D02*
Y350247D01*
X388371D01*
X388955Y349664D01*
Y348498D01*
X388371Y347914D01*
X386622D01*
X387788D02*
X388955Y346748D01*
X390121D02*
X391870D01*
X392454Y347331D01*
X391870Y347914D01*
X390704D01*
X390121Y348498D01*
X390704Y349081D01*
X392454D01*
X393620Y346748D02*
X394786D01*
X394203D01*
Y349081D01*
X393620D01*
X396535Y349664D02*
X397119Y350247D01*
X398285D01*
X398868Y349664D01*
Y349081D01*
X398285Y348498D01*
X397702D01*
X398285D01*
X398868Y347914D01*
Y347331D01*
X398285Y346748D01*
X397119D01*
X396535Y347331D01*
X498799Y364523D02*
Y361607D01*
X499382Y361024D01*
X500549D01*
X501132Y361607D01*
Y364523D01*
X504631Y361024D02*
X502298D01*
X504631Y363356D01*
Y363939D01*
X504047Y364523D01*
X502881D01*
X502298Y363939D01*
X633858Y413341D02*
X635025D01*
X634441D01*
Y409842D01*
X633858D01*
X635025D01*
X638523Y413341D02*
X637357D01*
X636774Y412758D01*
Y410426D01*
X637357Y409842D01*
X638523D01*
X639107Y410426D01*
Y412758D01*
X638523Y413341D01*
X567246Y376979D02*
X566663Y377562D01*
X565496D01*
X564913Y376979D01*
Y374646D01*
X565496Y374063D01*
X566663D01*
X567246Y374646D01*
X568412Y374063D02*
X570162D01*
X570745Y374646D01*
X570162Y375229D01*
X568995D01*
X568412Y375812D01*
X568995Y376396D01*
X570745D01*
X571911Y374063D02*
X573077D01*
X572494D01*
Y376396D01*
X571911D01*
X576576Y374063D02*
Y377562D01*
X574827Y375812D01*
X577159D01*
X407990Y377120D02*
X407407Y377704D01*
X406241D01*
X405657Y377120D01*
Y374788D01*
X406241Y374205D01*
X407407D01*
X407990Y374788D01*
X409156Y374205D02*
X410906D01*
X411489Y374788D01*
X410906Y375371D01*
X409739D01*
X409156Y375954D01*
X409739Y376537D01*
X411489D01*
X412655Y374205D02*
X413822D01*
X413238D01*
Y376537D01*
X412655D01*
X417904Y374205D02*
X415571D01*
X417904Y376537D01*
Y377120D01*
X417320Y377704D01*
X416154D01*
X415571Y377120D01*
X406955Y349664D02*
X406371Y350247D01*
X405205D01*
X404622Y349664D01*
Y347331D01*
X405205Y346748D01*
X406371D01*
X406955Y347331D01*
X408121Y346748D02*
X409870D01*
X410454Y347331D01*
X409870Y347914D01*
X408704D01*
X408121Y348498D01*
X408704Y349081D01*
X410454D01*
X411620Y346748D02*
X412786D01*
X412203D01*
Y349081D01*
X411620D01*
X414536Y349664D02*
X415119Y350247D01*
X416285D01*
X416868Y349664D01*
Y349081D01*
X416285Y348498D01*
X415702D01*
X416285D01*
X416868Y347914D01*
Y347331D01*
X416285Y346748D01*
X415119D01*
X414536Y347331D01*
X498396Y422207D02*
X497812Y422790D01*
X496646D01*
X496063Y422207D01*
Y419874D01*
X496646Y419291D01*
X497812D01*
X498396Y419874D01*
X499562Y422790D02*
Y419291D01*
X501311D01*
X501894Y419874D01*
Y420458D01*
X501311Y421041D01*
X499562D01*
X501311D01*
X501894Y421624D01*
Y422207D01*
X501311Y422790D01*
X499562D01*
X503061D02*
Y419291D01*
X504810D01*
X505393Y419874D01*
Y420458D01*
X504810Y421041D01*
X503061D01*
X504810D01*
X505393Y421624D01*
Y422207D01*
X504810Y422790D01*
X503061D01*
X508892Y419291D02*
X506560D01*
X508892Y421624D01*
Y422207D01*
X508309Y422790D01*
X507143D01*
X506560Y422207D01*
X556466D02*
X555883Y422790D01*
X554717D01*
X554134Y422207D01*
Y419874D01*
X554717Y419291D01*
X555883D01*
X556466Y419874D01*
X557633Y422790D02*
Y419291D01*
X559382D01*
X559965Y419874D01*
Y420458D01*
X559382Y421041D01*
X557633D01*
X559382D01*
X559965Y421624D01*
Y422207D01*
X559382Y422790D01*
X557633D01*
X561132D02*
Y419291D01*
X562881D01*
X563464Y419874D01*
Y420458D01*
X562881Y421041D01*
X561132D01*
X562881D01*
X563464Y421624D01*
Y422207D01*
X562881Y422790D01*
X561132D01*
X564631Y419291D02*
X565797D01*
X565214D01*
Y422790D01*
X564631Y422207D01*
X538333Y372514D02*
X537749Y373097D01*
X536583D01*
X536000Y372514D01*
Y370182D01*
X536583Y369598D01*
X537749D01*
X538333Y370182D01*
X539499Y373097D02*
Y369598D01*
X541248D01*
X541831Y370182D01*
Y370765D01*
Y371348D01*
X541248Y371931D01*
X539499D01*
X545330Y369598D02*
X542998D01*
X545330Y371931D01*
Y372514D01*
X544747Y373097D01*
X543581D01*
X542998Y372514D01*
X429675Y317916D02*
X429092Y318499D01*
X427926D01*
X427343Y317916D01*
Y315583D01*
X427926Y315000D01*
X429092D01*
X429675Y315583D01*
X430841Y318499D02*
Y315000D01*
X432591D01*
X433174Y315583D01*
Y316166D01*
Y316749D01*
X432591Y317333D01*
X430841D01*
X434340Y315000D02*
X435507D01*
X434923D01*
Y318499D01*
X434340Y317916D01*
M02*
