G04*
G04 #@! TF.GenerationSoftware,Altium Limited,Altium Designer,19.1.5 (86)*
G04*
G04 Layer_Physical_Order=1*
G04 Layer_Color=255*
%FSLAX25Y25*%
%MOIN*%
G70*
G01*
G75*
%ADD12C,0.01000*%
%ADD30R,0.01575X0.01890*%
G04:AMPARAMS|DCode=31|XSize=61.02mil|YSize=49.21mil|CornerRadius=3.69mil|HoleSize=0mil|Usage=FLASHONLY|Rotation=0.000|XOffset=0mil|YOffset=0mil|HoleType=Round|Shape=RoundedRectangle|*
%AMROUNDEDRECTD31*
21,1,0.06102,0.04183,0,0,0.0*
21,1,0.05364,0.04921,0,0,0.0*
1,1,0.00738,0.02682,-0.02092*
1,1,0.00738,-0.02682,-0.02092*
1,1,0.00738,-0.02682,0.02092*
1,1,0.00738,0.02682,0.02092*
%
%ADD31ROUNDEDRECTD31*%
G04:AMPARAMS|DCode=32|XSize=61.02mil|YSize=49.21mil|CornerRadius=3.69mil|HoleSize=0mil|Usage=FLASHONLY|Rotation=270.000|XOffset=0mil|YOffset=0mil|HoleType=Round|Shape=RoundedRectangle|*
%AMROUNDEDRECTD32*
21,1,0.06102,0.04183,0,0,270.0*
21,1,0.05364,0.04921,0,0,270.0*
1,1,0.00738,-0.02092,-0.02682*
1,1,0.00738,-0.02092,0.02682*
1,1,0.00738,0.02092,0.02682*
1,1,0.00738,0.02092,-0.02682*
%
%ADD32ROUNDEDRECTD32*%
%ADD33R,0.02362X0.07756*%
%ADD34R,0.07756X0.02362*%
%ADD35R,0.01890X0.01575*%
G04:AMPARAMS|DCode=36|XSize=59.06mil|YSize=47.24mil|CornerRadius=3.54mil|HoleSize=0mil|Usage=FLASHONLY|Rotation=0.000|XOffset=0mil|YOffset=0mil|HoleType=Round|Shape=RoundedRectangle|*
%AMROUNDEDRECTD36*
21,1,0.05906,0.04016,0,0,0.0*
21,1,0.05197,0.04724,0,0,0.0*
1,1,0.00709,0.02598,-0.02008*
1,1,0.00709,-0.02598,-0.02008*
1,1,0.00709,-0.02598,0.02008*
1,1,0.00709,0.02598,0.02008*
%
%ADD36ROUNDEDRECTD36*%
%ADD37R,0.12402X0.06299*%
%ADD38C,0.02000*%
%ADD39C,0.01500*%
%ADD40C,0.06000*%
%ADD41C,0.07677*%
%ADD42R,0.07677X0.07677*%
%ADD43R,0.07677X0.07677*%
%ADD44C,0.06890*%
%ADD45C,0.03543*%
%ADD46C,0.03150*%
G36*
X648587Y503515D02*
Y295698D01*
X645247Y292358D01*
X358690D01*
X355350Y295698D01*
Y503515D01*
X358690Y506854D01*
X645247D01*
X648587Y503515D01*
D02*
G37*
%LPC*%
G36*
X535433Y488143D02*
X534222Y487984D01*
X533094Y487516D01*
X532125Y486773D01*
X531381Y485804D01*
X531336Y485694D01*
X519523D01*
Y486260D01*
X519434Y486710D01*
X519179Y487092D01*
X518797Y487347D01*
X518347Y487437D01*
X513150D01*
X512699Y487347D01*
X512317Y487092D01*
X512062Y486710D01*
X511973Y486260D01*
Y482244D01*
X512062Y481794D01*
X512317Y481412D01*
X512699Y481157D01*
X513150Y481067D01*
X518347D01*
X518797Y481157D01*
X519179Y481412D01*
X519434Y481794D01*
X519479Y482023D01*
X531009D01*
X531381Y481125D01*
X532125Y480156D01*
X533094Y479413D01*
X534222Y478945D01*
X535433Y478786D01*
X536644Y478945D01*
X537772Y479413D01*
X538741Y480156D01*
X539485Y481125D01*
X539952Y482254D01*
X540112Y483465D01*
X539952Y484676D01*
X539485Y485804D01*
X538741Y486773D01*
X537772Y487516D01*
X536644Y487984D01*
X535433Y488143D01*
D02*
G37*
G36*
X425197Y488143D02*
X423986Y487984D01*
X422858Y487516D01*
X421889Y486773D01*
X421145Y485804D01*
X420725Y484790D01*
X405350D01*
Y485472D01*
X405261Y485923D01*
X405005Y486305D01*
X404624Y486560D01*
X404173Y486649D01*
X398976D01*
X398526Y486560D01*
X398144Y486305D01*
X397889Y485923D01*
X397799Y485472D01*
Y481457D01*
X397889Y481006D01*
X398144Y480624D01*
X398526Y480369D01*
X398976Y480280D01*
X404173D01*
X404624Y480369D01*
X405005Y480624D01*
X405261Y481006D01*
X405350Y481457D01*
Y482139D01*
X420725D01*
X421145Y481125D01*
X421889Y480156D01*
X422858Y479413D01*
X423986Y478945D01*
X425197Y478786D01*
X426408Y478945D01*
X427536Y479413D01*
X428505Y480156D01*
X429249Y481125D01*
X429716Y482254D01*
X429876Y483465D01*
X429716Y484676D01*
X429249Y485804D01*
X428505Y486773D01*
X427536Y487516D01*
X426408Y487984D01*
X425197Y488143D01*
D02*
G37*
G36*
X554051Y488303D02*
X549813D01*
Y484064D01*
X554051D01*
Y488303D01*
D02*
G37*
G36*
X548613D02*
X544374D01*
Y484064D01*
X548613D01*
Y488303D01*
D02*
G37*
G36*
X443615Y488103D02*
X434338D01*
Y478826D01*
X443615D01*
Y482139D01*
X462033D01*
X462062Y481990D01*
X462317Y481609D01*
X462699Y481354D01*
X463150Y481264D01*
X468347D01*
X468797Y481354D01*
X469179Y481609D01*
X469434Y481990D01*
X469523Y482441D01*
Y486457D01*
X469434Y486907D01*
X469179Y487289D01*
X468797Y487544D01*
X468347Y487634D01*
X463150D01*
X462699Y487544D01*
X462317Y487289D01*
X462062Y486907D01*
X461973Y486457D01*
Y484790D01*
X443615D01*
Y488103D01*
D02*
G37*
G36*
X554051Y482865D02*
X549813D01*
Y478626D01*
X554051D01*
Y482865D01*
D02*
G37*
G36*
X548613D02*
X544374D01*
Y478626D01*
X548613D01*
Y482865D01*
D02*
G37*
G36*
X630939Y497842D02*
X629000D01*
X627099Y497464D01*
X625307Y496722D01*
X623695Y495645D01*
X622324Y494274D01*
X621247Y492662D01*
X620505Y490871D01*
X620127Y488969D01*
Y487031D01*
X620505Y485129D01*
X621247Y483338D01*
X622324Y481726D01*
X623695Y480355D01*
X625307Y479278D01*
X627099Y478536D01*
X629000Y478157D01*
X630939D01*
X632840Y478536D01*
X634632Y479278D01*
X636244Y480355D01*
X637615Y481726D01*
X638692Y483338D01*
X639434Y485129D01*
X639812Y487031D01*
Y488969D01*
X639434Y490871D01*
X638692Y492662D01*
X637615Y494274D01*
X636244Y495645D01*
X634632Y496722D01*
X632840Y497464D01*
X630939Y497842D01*
D02*
G37*
G36*
X375033D02*
X373095D01*
X371193Y497464D01*
X369402Y496722D01*
X367790Y495645D01*
X366419Y494274D01*
X365342Y492662D01*
X364600Y490871D01*
X364222Y488969D01*
Y487031D01*
X364600Y485129D01*
X365342Y483338D01*
X366419Y481726D01*
X367790Y480355D01*
X369402Y479278D01*
X371193Y478536D01*
X373095Y478157D01*
X375033D01*
X376935Y478536D01*
X378726Y479278D01*
X380338Y480355D01*
X381709Y481726D01*
X382786Y483338D01*
X383528Y485129D01*
X383907Y487031D01*
Y488969D01*
X383528Y490871D01*
X382786Y492662D01*
X381709Y494274D01*
X380338Y495645D01*
X378726Y496722D01*
X376935Y497464D01*
X375033Y497842D01*
D02*
G37*
G36*
X491200Y483194D02*
X490529Y483106D01*
X489903Y482846D01*
X489366Y482434D01*
X488954Y481897D01*
X488694Y481271D01*
X488606Y480600D01*
X488694Y479929D01*
X488954Y479303D01*
X489366Y478766D01*
X489903Y478354D01*
X490529Y478094D01*
X491200Y478006D01*
X491871Y478094D01*
X492497Y478354D01*
X493034Y478766D01*
X493446Y479303D01*
X493706Y479929D01*
X493794Y480600D01*
X493706Y481271D01*
X493446Y481897D01*
X493034Y482434D01*
X492497Y482846D01*
X491871Y483106D01*
X491200Y483194D01*
D02*
G37*
G36*
X604000Y472094D02*
X603329Y472006D01*
X602703Y471746D01*
X602166Y471334D01*
X601754Y470797D01*
X601495Y470171D01*
X601406Y469500D01*
X601495Y468829D01*
X601754Y468203D01*
X602166Y467666D01*
X602703Y467254D01*
X603329Y466994D01*
X604000Y466906D01*
X604671Y466994D01*
X605297Y467254D01*
X605834Y467666D01*
X606246Y468203D01*
X606505Y468829D01*
X606594Y469500D01*
X606505Y470171D01*
X606246Y470797D01*
X605834Y471334D01*
X605297Y471746D01*
X604671Y472006D01*
X604000Y472094D01*
D02*
G37*
G36*
X364301Y468456D02*
Y465100D01*
X367656D01*
X367598Y465544D01*
X367195Y466517D01*
X366554Y467353D01*
X365718Y467994D01*
X364745Y468397D01*
X364301Y468456D01*
D02*
G37*
G36*
X363101D02*
X362657Y468397D01*
X361684Y467994D01*
X360848Y467353D01*
X360207Y466517D01*
X359804Y465544D01*
X359745Y465100D01*
X363101D01*
Y468456D01*
D02*
G37*
G36*
X496700Y465955D02*
Y462600D01*
X500056D01*
X499997Y463044D01*
X499594Y464017D01*
X498953Y464853D01*
X498117Y465494D01*
X497144Y465897D01*
X496700Y465955D01*
D02*
G37*
G36*
X495500D02*
X495056Y465897D01*
X494083Y465494D01*
X493247Y464853D01*
X492606Y464017D01*
X492203Y463044D01*
X492144Y462600D01*
X495500D01*
Y465955D01*
D02*
G37*
G36*
X367656Y463900D02*
X364301D01*
Y460544D01*
X364745Y460603D01*
X365718Y461006D01*
X366554Y461647D01*
X367195Y462483D01*
X367598Y463456D01*
X367656Y463900D01*
D02*
G37*
G36*
X363101D02*
X359745D01*
X359804Y463456D01*
X360207Y462483D01*
X360848Y461647D01*
X361684Y461006D01*
X362657Y460603D01*
X363101Y460544D01*
Y463900D01*
D02*
G37*
G36*
X500056Y461400D02*
X496700D01*
Y458044D01*
X497144Y458103D01*
X498117Y458506D01*
X498953Y459147D01*
X499594Y459983D01*
X499997Y460956D01*
X500056Y461400D01*
D02*
G37*
G36*
X495500D02*
X492144D01*
X492203Y460956D01*
X492606Y459983D01*
X493247Y459147D01*
X494083Y458506D01*
X495056Y458103D01*
X495500Y458044D01*
Y461400D01*
D02*
G37*
G36*
X512847Y458287D02*
X511502D01*
Y457100D01*
X512847D01*
Y458287D01*
D02*
G37*
G36*
X510302D02*
X508957D01*
Y457100D01*
X510302D01*
Y458287D01*
D02*
G37*
G36*
X512847Y455900D02*
X511502D01*
Y454713D01*
X512847D01*
Y455900D01*
D02*
G37*
G36*
X510302D02*
X508957D01*
Y454713D01*
X510302D01*
Y455900D01*
D02*
G37*
G36*
X473143Y450887D02*
X471798D01*
Y449700D01*
X473143D01*
Y450887D01*
D02*
G37*
G36*
X470598D02*
X469253D01*
Y449700D01*
X470598D01*
Y450887D01*
D02*
G37*
G36*
X399287Y449845D02*
X398100D01*
Y448500D01*
X399287D01*
Y449845D01*
D02*
G37*
G36*
X396900D02*
X395713D01*
Y448500D01*
X396900D01*
Y449845D01*
D02*
G37*
G36*
X632398Y452083D02*
X628159D01*
Y447844D01*
X632398D01*
Y452083D01*
D02*
G37*
G36*
X626959D02*
X622720D01*
Y447844D01*
X626959D01*
Y452083D01*
D02*
G37*
G36*
X473143Y448500D02*
X471798D01*
Y447313D01*
X473143D01*
Y448500D01*
D02*
G37*
G36*
X470598D02*
X469253D01*
Y447313D01*
X470598D01*
Y448500D01*
D02*
G37*
G36*
X486600Y449455D02*
Y446100D01*
X489956D01*
X489897Y446544D01*
X489494Y447517D01*
X488853Y448353D01*
X488017Y448994D01*
X487044Y449397D01*
X486600Y449455D01*
D02*
G37*
G36*
X485400D02*
X484956Y449397D01*
X483983Y448994D01*
X483147Y448353D01*
X482506Y447517D01*
X482103Y446544D01*
X482045Y446100D01*
X485400D01*
Y449455D01*
D02*
G37*
G36*
X399287Y447300D02*
X398100D01*
Y445955D01*
X399287D01*
Y447300D01*
D02*
G37*
G36*
X396900D02*
X395713D01*
Y445955D01*
X396900D01*
Y447300D01*
D02*
G37*
G36*
X418182Y448355D02*
X416100D01*
Y445468D01*
X419578D01*
Y446959D01*
X419472Y447493D01*
X419169Y447946D01*
X418716Y448249D01*
X418182Y448355D01*
D02*
G37*
G36*
X414900D02*
X412818D01*
X412284Y448249D01*
X411831Y447946D01*
X411528Y447493D01*
X411422Y446959D01*
Y445468D01*
X414900D01*
Y448355D01*
D02*
G37*
G36*
X632398Y446644D02*
X628159D01*
Y442406D01*
X632398D01*
Y446644D01*
D02*
G37*
G36*
X626959D02*
X622720D01*
Y442406D01*
X626959D01*
Y446644D01*
D02*
G37*
G36*
X489956Y444900D02*
X486600D01*
Y441544D01*
X487044Y441603D01*
X488017Y442006D01*
X488853Y442647D01*
X489494Y443483D01*
X489897Y444456D01*
X489956Y444900D01*
D02*
G37*
G36*
X485400D02*
X482045D01*
X482103Y444456D01*
X482506Y443483D01*
X483147Y442647D01*
X483983Y442006D01*
X484956Y441603D01*
X485400Y441544D01*
Y444900D01*
D02*
G37*
G36*
X419578Y444268D02*
X416100D01*
Y441380D01*
X418182D01*
X418716Y441487D01*
X419169Y441789D01*
X419472Y442242D01*
X419578Y442776D01*
Y444268D01*
D02*
G37*
G36*
X414900D02*
X411422D01*
Y442776D01*
X411528Y442242D01*
X411831Y441789D01*
X412284Y441487D01*
X412818Y441380D01*
X414900D01*
Y444268D01*
D02*
G37*
G36*
X526304Y433478D02*
X524813D01*
Y430000D01*
X527700D01*
Y432082D01*
X527594Y432616D01*
X527291Y433069D01*
X526838Y433372D01*
X526304Y433478D01*
D02*
G37*
G36*
X459459D02*
X457968D01*
Y430000D01*
X460855D01*
Y432082D01*
X460749Y432616D01*
X460446Y433069D01*
X459993Y433372D01*
X459459Y433478D01*
D02*
G37*
G36*
X456768D02*
X455276D01*
X454742Y433372D01*
X454289Y433069D01*
X453987Y432616D01*
X453880Y432082D01*
Y430000D01*
X456768D01*
Y433478D01*
D02*
G37*
G36*
X523613D02*
X522121D01*
X521587Y433372D01*
X521134Y433069D01*
X520831Y432616D01*
X520725Y432082D01*
Y430000D01*
X523613D01*
Y433478D01*
D02*
G37*
G36*
X527700Y428800D02*
X524813D01*
Y425322D01*
X526304D01*
X526838Y425428D01*
X527291Y425731D01*
X527594Y426184D01*
X527700Y426718D01*
Y428800D01*
D02*
G37*
G36*
X523613D02*
X520725D01*
Y426718D01*
X520831Y426184D01*
X521134Y425731D01*
X521587Y425428D01*
X522121Y425322D01*
X523613D01*
Y428800D01*
D02*
G37*
G36*
X460855D02*
X457968D01*
Y425322D01*
X459459D01*
X459993Y425428D01*
X460446Y425731D01*
X460749Y426184D01*
X460855Y426718D01*
Y428800D01*
D02*
G37*
G36*
X456768D02*
X453880D01*
Y426718D01*
X453987Y426184D01*
X454289Y425731D01*
X454742Y425428D01*
X455276Y425322D01*
X456768D01*
Y428800D01*
D02*
G37*
G36*
X468347Y479366D02*
X463150D01*
X462699Y479276D01*
X462317Y479021D01*
X462062Y478639D01*
X461973Y478189D01*
Y474173D01*
X462062Y473723D01*
X462317Y473341D01*
X462699Y473086D01*
X463150Y472996D01*
X464423D01*
Y465418D01*
X464184Y465319D01*
X463390Y464710D01*
X462781Y463916D01*
X462398Y462992D01*
X462267Y462000D01*
X462398Y461008D01*
X462781Y460084D01*
X463390Y459290D01*
X464184Y458681D01*
X464423Y458582D01*
Y450687D01*
X464257D01*
Y447513D01*
X464423D01*
Y433274D01*
X463741D01*
X463285Y433183D01*
X462898Y432925D01*
X462640Y432538D01*
X462549Y432082D01*
Y426718D01*
X462640Y426262D01*
X462898Y425875D01*
X463285Y425617D01*
X463741Y425526D01*
X464767D01*
Y418037D01*
X464380Y417779D01*
X463855Y416994D01*
X463671Y416067D01*
X463855Y415140D01*
X464380Y414355D01*
X465166Y413830D01*
X466092Y413646D01*
X467019Y413830D01*
X467804Y414355D01*
X468329Y415140D01*
X468513Y416067D01*
X468329Y416994D01*
X467804Y417779D01*
X467418Y418037D01*
Y425526D01*
X467924D01*
X468380Y425617D01*
X468767Y425875D01*
X469025Y426262D01*
X469116Y426718D01*
Y432082D01*
X469025Y432538D01*
X468767Y432925D01*
X468380Y433183D01*
X467924Y433274D01*
X467073D01*
Y447513D01*
X467746D01*
Y450687D01*
X467073D01*
Y458295D01*
X467092Y458298D01*
X468016Y458681D01*
X468810Y459290D01*
X469419Y460084D01*
X469802Y461008D01*
X469933Y462000D01*
X469802Y462992D01*
X469419Y463916D01*
X468810Y464710D01*
X468016Y465319D01*
X467092Y465702D01*
X467073Y465705D01*
Y472996D01*
X468347D01*
X468797Y473086D01*
X469179Y473341D01*
X469434Y473723D01*
X469523Y474173D01*
Y478189D01*
X469434Y478639D01*
X469179Y479021D01*
X468797Y479276D01*
X468347Y479366D01*
D02*
G37*
G36*
X429524Y416280D02*
X427943D01*
Y412002D01*
X429524D01*
Y416280D01*
D02*
G37*
G36*
X424524D02*
X422942D01*
Y412002D01*
X424524D01*
Y416280D01*
D02*
G37*
G36*
X419524D02*
X417942D01*
Y412002D01*
X419524D01*
Y416280D01*
D02*
G37*
G36*
X426743D02*
X425161D01*
Y412002D01*
X426743D01*
Y416280D01*
D02*
G37*
G36*
X421742D02*
X420161D01*
Y412002D01*
X421742D01*
Y416280D01*
D02*
G37*
G36*
X416743D02*
X415161D01*
Y412002D01*
X416743D01*
Y416280D01*
D02*
G37*
G36*
X454324Y416080D02*
X450361D01*
Y406724D01*
X454324D01*
Y416080D01*
D02*
G37*
G36*
X449324D02*
X445361D01*
Y406724D01*
X449324D01*
Y416080D01*
D02*
G37*
G36*
X439324D02*
X435361D01*
Y406724D01*
X439324D01*
Y416080D01*
D02*
G37*
G36*
X434324D02*
X430361D01*
Y406724D01*
X434324D01*
Y416080D01*
D02*
G37*
G36*
X429524Y410802D02*
X427943D01*
Y406524D01*
X429524D01*
Y410802D01*
D02*
G37*
G36*
X426743D02*
X425161D01*
Y406524D01*
X426743D01*
Y410802D01*
D02*
G37*
G36*
X424524D02*
X422942D01*
Y406524D01*
X424524D01*
Y410802D01*
D02*
G37*
G36*
X421742D02*
X420161D01*
Y406524D01*
X421742D01*
Y410802D01*
D02*
G37*
G36*
X419524D02*
X417942D01*
Y406524D01*
X419524D01*
Y410802D01*
D02*
G37*
G36*
X416743D02*
X415161D01*
Y406524D01*
X416743D01*
Y410802D01*
D02*
G37*
G36*
X570193Y406331D02*
X563592D01*
Y402781D01*
X570193D01*
Y406331D01*
D02*
G37*
G36*
X562392D02*
X555791D01*
Y402781D01*
X562392D01*
Y406331D01*
D02*
G37*
G36*
X511531Y406118D02*
X504931D01*
Y402568D01*
X511531D01*
Y406118D01*
D02*
G37*
G36*
X503731D02*
X497130D01*
Y402568D01*
X503731D01*
Y406118D01*
D02*
G37*
G36*
X468430Y403783D02*
X466348D01*
Y400895D01*
X469826D01*
Y402387D01*
X469720Y402921D01*
X469417Y403374D01*
X468964Y403677D01*
X468430Y403783D01*
D02*
G37*
G36*
X465148D02*
X463066D01*
X462532Y403677D01*
X462079Y403374D01*
X461776Y402921D01*
X461670Y402387D01*
Y400895D01*
X465148D01*
Y403783D01*
D02*
G37*
G36*
X606500Y418921D02*
X605573Y418737D01*
X604788Y418212D01*
X604263Y417427D01*
X604079Y416500D01*
X604263Y415573D01*
X604788Y414788D01*
X605573Y414263D01*
X606500Y414079D01*
X606956Y414169D01*
X619370Y401756D01*
X619800Y401468D01*
X620307Y401367D01*
X632175D01*
X632513Y400552D01*
X633193Y399665D01*
X634080Y398985D01*
X635112Y398557D01*
X636221Y398411D01*
X637329Y398557D01*
X638361Y398985D01*
X639248Y399665D01*
X639928Y400552D01*
X640356Y401585D01*
X640502Y402693D01*
X640356Y403801D01*
X639928Y404834D01*
X639248Y405720D01*
X638361Y406401D01*
X637329Y406828D01*
X636221Y406974D01*
X635112Y406828D01*
X634080Y406401D01*
X633193Y405720D01*
X632513Y404834D01*
X632175Y404018D01*
X620856D01*
X608831Y416044D01*
X608921Y416500D01*
X608737Y417427D01*
X608212Y418212D01*
X607427Y418737D01*
X606500Y418921D01*
D02*
G37*
G36*
X570193Y401581D02*
X563592D01*
Y398031D01*
X570193D01*
Y401581D01*
D02*
G37*
G36*
X562392D02*
X555791D01*
Y398031D01*
X562392D01*
Y401581D01*
D02*
G37*
G36*
X511531Y401369D02*
X504931D01*
Y397819D01*
X511531D01*
Y401369D01*
D02*
G37*
G36*
X503731D02*
X497130D01*
Y397819D01*
X503731D01*
Y401369D01*
D02*
G37*
G36*
X469826Y399695D02*
X466348D01*
Y396808D01*
X468430D01*
X468964Y396914D01*
X469417Y397217D01*
X469720Y397670D01*
X469826Y398204D01*
Y399695D01*
D02*
G37*
G36*
X465148D02*
X461670D01*
Y398204D01*
X461776Y397670D01*
X462079Y397217D01*
X462532Y396914D01*
X463066Y396808D01*
X465148D01*
Y399695D01*
D02*
G37*
G36*
X394304Y398521D02*
X392222D01*
Y395634D01*
X395700D01*
Y397125D01*
X395594Y397660D01*
X395291Y398112D01*
X394838Y398415D01*
X394304Y398521D01*
D02*
G37*
G36*
X391022D02*
X388940D01*
X388406Y398415D01*
X387953Y398112D01*
X387650Y397660D01*
X387544Y397125D01*
Y395634D01*
X391022D01*
Y398521D01*
D02*
G37*
G36*
X377198Y398226D02*
X375200D01*
Y395437D01*
X378579D01*
Y396845D01*
X378474Y397373D01*
X378175Y397821D01*
X377727Y398121D01*
X377198Y398226D01*
D02*
G37*
G36*
X374000D02*
X372002D01*
X371473Y398121D01*
X371025Y397821D01*
X370726Y397373D01*
X370621Y396845D01*
Y395437D01*
X374000D01*
Y398226D01*
D02*
G37*
G36*
X424524Y396791D02*
X422942D01*
Y392513D01*
X424524D01*
Y396791D01*
D02*
G37*
G36*
X419524D02*
X417942D01*
Y392513D01*
X419524D01*
Y396791D01*
D02*
G37*
G36*
X421742D02*
X420161D01*
Y392513D01*
X421742D01*
Y396791D01*
D02*
G37*
G36*
X416743D02*
X415161D01*
Y392513D01*
X416743D01*
Y396791D01*
D02*
G37*
G36*
X395700Y394434D02*
X392222D01*
Y391546D01*
X394304D01*
X394838Y391653D01*
X395291Y391955D01*
X395594Y392408D01*
X395700Y392942D01*
Y394434D01*
D02*
G37*
G36*
X391022D02*
X387544D01*
Y392942D01*
X387650Y392408D01*
X387953Y391955D01*
X388406Y391653D01*
X388940Y391546D01*
X391022D01*
Y394434D01*
D02*
G37*
G36*
X378579Y394237D02*
X375200D01*
Y391448D01*
X377198D01*
X377727Y391553D01*
X378175Y391853D01*
X378474Y392301D01*
X378579Y392829D01*
Y394237D01*
D02*
G37*
G36*
X374000D02*
X370621D01*
Y392829D01*
X370726Y392301D01*
X371025Y391853D01*
X371473Y391553D01*
X372002Y391448D01*
X374000D01*
Y394237D01*
D02*
G37*
G36*
X636221Y396974D02*
X635112Y396829D01*
X634080Y396401D01*
X633193Y395720D01*
X632513Y394834D01*
X632175Y394018D01*
X605193D01*
X604686Y393917D01*
X604256Y393630D01*
X588951Y378326D01*
X562878D01*
X562371Y378225D01*
X561941Y377937D01*
X557563Y373559D01*
X557275Y373129D01*
X557174Y372622D01*
Y360549D01*
X544456Y347831D01*
X544000Y347921D01*
X543073Y347737D01*
X542288Y347212D01*
X541763Y346427D01*
X541579Y345500D01*
X541763Y344573D01*
X542288Y343788D01*
X543073Y343263D01*
X544000Y343079D01*
X544927Y343263D01*
X545712Y343788D01*
X546237Y344573D01*
X546421Y345500D01*
X546331Y345956D01*
X559437Y359063D01*
X559725Y359493D01*
X559826Y360000D01*
Y372073D01*
X563427Y375675D01*
X589500D01*
X590007Y375775D01*
X590437Y376063D01*
X605742Y391367D01*
X632175D01*
X632513Y390552D01*
X633193Y389665D01*
X634080Y388985D01*
X635112Y388557D01*
X636221Y388411D01*
X637329Y388557D01*
X638361Y388985D01*
X639248Y389665D01*
X639928Y390552D01*
X640356Y391585D01*
X640502Y392693D01*
X640356Y393801D01*
X639928Y394834D01*
X639248Y395720D01*
X638361Y396401D01*
X637329Y396829D01*
X636221Y396974D01*
D02*
G37*
G36*
X434324Y396591D02*
X430361D01*
Y387235D01*
X434324D01*
Y396591D01*
D02*
G37*
G36*
X444524Y391313D02*
X442942D01*
Y387035D01*
X444524D01*
Y391313D01*
D02*
G37*
G36*
X441743D02*
X440161D01*
Y387035D01*
X441743D01*
Y391313D01*
D02*
G37*
G36*
X424524D02*
X422942D01*
Y387035D01*
X424524D01*
Y391313D01*
D02*
G37*
G36*
X421742D02*
X420161D01*
Y387035D01*
X421742D01*
Y391313D01*
D02*
G37*
G36*
X419524D02*
X417942D01*
Y387035D01*
X419524D01*
Y391313D01*
D02*
G37*
G36*
X416743D02*
X415161D01*
Y387035D01*
X416743D01*
Y391313D01*
D02*
G37*
G36*
X444324Y416080D02*
X440361D01*
Y406724D01*
X440461D01*
X440668Y406224D01*
X437738Y403294D01*
X407969D01*
X407461Y403193D01*
X407031Y402906D01*
X403063Y398937D01*
X402775Y398507D01*
X402674Y398000D01*
Y384387D01*
X402175Y384235D01*
X401900Y384647D01*
X401114Y385171D01*
X400188Y385356D01*
X399732Y385265D01*
X397490Y387507D01*
X397060Y387794D01*
X396553Y387895D01*
X395496D01*
Y388661D01*
X395405Y389117D01*
X395147Y389504D01*
X394760Y389762D01*
X394304Y389853D01*
X388940D01*
X388484Y389762D01*
X388097Y389504D01*
X387839Y389117D01*
X387748Y388661D01*
Y387895D01*
X378375D01*
Y388577D01*
X378286Y389028D01*
X378031Y389409D01*
X377649Y389665D01*
X377198Y389754D01*
X372002D01*
X371551Y389665D01*
X371169Y389409D01*
X370914Y389028D01*
X370825Y388577D01*
Y384561D01*
X370914Y384111D01*
X371169Y383729D01*
X371551Y383474D01*
X372002Y383384D01*
X373274D01*
Y335988D01*
X373375Y335481D01*
X373663Y335051D01*
X411438Y297275D01*
X411868Y296988D01*
X412375Y296887D01*
X598740D01*
X599248Y296988D01*
X599678Y297275D01*
X613108Y310705D01*
X613395Y311136D01*
X613496Y311643D01*
Y336621D01*
X618242Y341367D01*
X632175D01*
X632513Y340552D01*
X633193Y339665D01*
X634080Y338985D01*
X635112Y338557D01*
X636221Y338411D01*
X637329Y338557D01*
X638361Y338985D01*
X639248Y339665D01*
X639928Y340552D01*
X640356Y341585D01*
X640502Y342693D01*
X640356Y343801D01*
X639928Y344834D01*
X639248Y345720D01*
X638361Y346401D01*
X637329Y346829D01*
X636221Y346974D01*
X635112Y346829D01*
X634080Y346401D01*
X633193Y345720D01*
X632513Y344834D01*
X632175Y344018D01*
X617693D01*
X617186Y343917D01*
X616756Y343630D01*
X612158Y339033D01*
X611696Y339224D01*
Y344822D01*
X618242Y351367D01*
X632175D01*
X632513Y350552D01*
X633193Y349665D01*
X634080Y348985D01*
X635112Y348557D01*
X636221Y348411D01*
X637329Y348557D01*
X638361Y348985D01*
X639248Y349665D01*
X639928Y350552D01*
X640356Y351585D01*
X640502Y352693D01*
X640356Y353801D01*
X639928Y354834D01*
X639248Y355720D01*
X638361Y356401D01*
X637329Y356828D01*
X636221Y356974D01*
X635112Y356828D01*
X634080Y356401D01*
X633193Y355720D01*
X632513Y354834D01*
X632175Y354018D01*
X617693D01*
X617186Y353918D01*
X616756Y353630D01*
X609433Y346308D01*
X609146Y345878D01*
X609045Y345371D01*
Y312937D01*
X597446Y301338D01*
X413670D01*
X385825Y329183D01*
Y337664D01*
X387347Y339185D01*
X387847Y338978D01*
Y338874D01*
X387936Y338424D01*
X388191Y338042D01*
X388573Y337787D01*
X389024Y337697D01*
X394220D01*
X394671Y337787D01*
X395053Y338042D01*
X395308Y338424D01*
X395397Y338874D01*
Y339655D01*
X405748D01*
Y338889D01*
X405839Y338433D01*
X406097Y338046D01*
X406484Y337788D01*
X406940Y337697D01*
X412304D01*
X412760Y337788D01*
X413147Y338046D01*
X413405Y338433D01*
X413496Y338889D01*
Y339655D01*
X420854D01*
X421362Y339756D01*
X421792Y340043D01*
X425923Y344175D01*
X437578D01*
Y343519D01*
X446934D01*
Y347481D01*
X437578D01*
Y346826D01*
X425374D01*
X424867Y346725D01*
X424437Y346437D01*
X420305Y342306D01*
X413496D01*
Y343072D01*
X413405Y343528D01*
X413147Y343915D01*
X412760Y344173D01*
X412304Y344264D01*
X406940D01*
X406484Y344173D01*
X406097Y343915D01*
X405839Y343528D01*
X405748Y343072D01*
Y342306D01*
X395397D01*
Y342890D01*
X395308Y343340D01*
X395053Y343722D01*
X394671Y343977D01*
X394220Y344067D01*
X389024D01*
X388573Y343977D01*
X388191Y343722D01*
X387936Y343340D01*
X387847Y342890D01*
Y342207D01*
X387169D01*
X386662Y342107D01*
X386232Y341819D01*
X383563Y339150D01*
X383275Y338720D01*
X383174Y338213D01*
Y329941D01*
X382713Y329750D01*
X375925Y336537D01*
Y383384D01*
X377198D01*
X377649Y383474D01*
X378031Y383729D01*
X378286Y384111D01*
X378375Y384561D01*
Y385244D01*
X387748D01*
Y384478D01*
X387839Y384022D01*
X388097Y383635D01*
X388484Y383377D01*
X388940Y383286D01*
X394304D01*
X394760Y383377D01*
X395147Y383635D01*
X395405Y384022D01*
X395496Y384478D01*
Y385244D01*
X396004D01*
X397857Y383390D01*
X397766Y382934D01*
X397951Y382008D01*
X398273Y381525D01*
X398006Y381026D01*
X385357D01*
X384850Y380925D01*
X384420Y380637D01*
X380063Y376280D01*
X379775Y375850D01*
X379675Y375342D01*
Y364500D01*
X379775Y363993D01*
X380063Y363563D01*
X384358Y359267D01*
X384788Y358980D01*
X385295Y358879D01*
X387882D01*
Y358197D01*
X387972Y357747D01*
X388227Y357365D01*
X388609Y357109D01*
X389059Y357020D01*
X394256D01*
X394706Y357109D01*
X395088Y357365D01*
X395343Y357747D01*
X395433Y358197D01*
Y358879D01*
X405783D01*
Y358113D01*
X405874Y357657D01*
X406133Y357270D01*
X406519Y357012D01*
X406975Y356921D01*
X412340D01*
X412796Y357012D01*
X413182Y357270D01*
X413441Y357657D01*
X413532Y358113D01*
Y358879D01*
X421514D01*
X430830Y349563D01*
X431260Y349275D01*
X431768Y349174D01*
X437578D01*
Y348519D01*
X446934D01*
Y352481D01*
X437578D01*
Y351825D01*
X432317D01*
X423000Y361142D01*
X422570Y361429D01*
X422063Y361530D01*
X413532D01*
Y362296D01*
X413441Y362752D01*
X413182Y363139D01*
X412796Y363398D01*
X412340Y363488D01*
X406975D01*
X406519Y363398D01*
X406133Y363139D01*
X405874Y362752D01*
X405783Y362296D01*
Y361530D01*
X395433D01*
Y362213D01*
X395343Y362663D01*
X395088Y363045D01*
X394706Y363300D01*
X394256Y363389D01*
X389059D01*
X388609Y363300D01*
X388227Y363045D01*
X387972Y362663D01*
X387882Y362213D01*
Y361530D01*
X385844D01*
X382326Y365049D01*
Y374794D01*
X385907Y378375D01*
X402578D01*
X403085Y378475D01*
X403515Y378763D01*
X404937Y380185D01*
X405225Y380615D01*
X405326Y381122D01*
Y397451D01*
X408518Y400643D01*
X438287D01*
X438795Y400744D01*
X439225Y401031D01*
X443280Y405086D01*
X443567Y405516D01*
X443668Y406024D01*
Y406724D01*
X444324D01*
Y416080D01*
D02*
G37*
G36*
X518347Y479169D02*
X513150D01*
X512699Y479079D01*
X512317Y478824D01*
X512062Y478442D01*
X511973Y477992D01*
Y473976D01*
X512062Y473526D01*
X512317Y473144D01*
X512699Y472889D01*
X513150Y472799D01*
X514159D01*
Y463100D01*
Y460400D01*
Y455315D01*
Y448850D01*
X514084Y448819D01*
X513290Y448210D01*
X512681Y447416D01*
X512298Y446492D01*
X512167Y445500D01*
X512298Y444508D01*
X512681Y443584D01*
X513290Y442790D01*
X514084Y442181D01*
X514159Y442149D01*
Y435482D01*
X514298Y434780D01*
X514405Y434621D01*
Y433274D01*
X513657D01*
X513200Y433183D01*
X512814Y432925D01*
X512555Y432538D01*
X512465Y432082D01*
Y426718D01*
X512555Y426262D01*
X512814Y425875D01*
X513200Y425617D01*
X513657Y425526D01*
X514405D01*
Y409842D01*
X514545Y409140D01*
X514943Y408545D01*
X520165Y403323D01*
Y398019D01*
X534166D01*
Y400133D01*
X535968D01*
X536671Y400273D01*
X537266Y400671D01*
X583530Y446934D01*
X583991Y446743D01*
Y406131D01*
X578826D01*
Y398232D01*
X583165D01*
Y391760D01*
X574240Y382835D01*
X477929D01*
X469622Y391143D01*
Y393922D01*
X469531Y394378D01*
X469273Y394765D01*
X468886Y395023D01*
X468430Y395114D01*
X463066D01*
X462610Y395023D01*
X462223Y394765D01*
X461965Y394378D01*
X461874Y393922D01*
Y393666D01*
X454324D01*
X454324Y396342D01*
X454487Y396727D01*
X454695Y396901D01*
X454937Y397063D01*
X458221Y400346D01*
X458508Y400776D01*
X458609Y401284D01*
Y417517D01*
X458508Y418024D01*
X458221Y418454D01*
X454237Y422437D01*
X453807Y422725D01*
X453300Y422825D01*
X438494D01*
X432425Y428894D01*
Y443700D01*
X432325Y444207D01*
X432037Y444637D01*
X422686Y453988D01*
X422256Y454276D01*
X421749Y454377D01*
X419374D01*
Y455424D01*
X419283Y455880D01*
X419025Y456267D01*
X418638Y456525D01*
X418182Y456616D01*
X412818D01*
X412362Y456525D01*
X411975Y456267D01*
X411717Y455880D01*
X411626Y455424D01*
Y454422D01*
X399087D01*
Y454842D01*
X397787D01*
X395026Y457603D01*
Y460936D01*
X395617Y461181D01*
X396411Y461790D01*
X397020Y462584D01*
X397403Y463508D01*
X397534Y464500D01*
X397403Y465492D01*
X397020Y466416D01*
X396411Y467210D01*
X396175Y467391D01*
X396143Y467890D01*
X400059Y471807D01*
X400196Y472012D01*
X404173D01*
X404624Y472102D01*
X405005Y472357D01*
X405261Y472739D01*
X405350Y473189D01*
Y477205D01*
X405261Y477655D01*
X405005Y478037D01*
X404624Y478292D01*
X404173Y478382D01*
X398976D01*
X398526Y478292D01*
X398144Y478037D01*
X397889Y477655D01*
X397799Y477205D01*
Y473349D01*
X397797Y473335D01*
Y473293D01*
X392763Y468260D01*
X392726Y468204D01*
X392709Y468202D01*
X391784Y467819D01*
X390991Y467210D01*
X390382Y466416D01*
X389999Y465492D01*
X389868Y464500D01*
X389999Y463508D01*
X390382Y462584D01*
X390991Y461790D01*
X391784Y461181D01*
X392375Y460936D01*
Y457054D01*
X392476Y456546D01*
X392763Y456116D01*
X395913Y452967D01*
Y451352D01*
X399087D01*
Y451771D01*
X411188D01*
X411417Y451726D01*
X411626D01*
Y451241D01*
X411717Y450785D01*
X411975Y450398D01*
X412362Y450140D01*
X412818Y450049D01*
X418182D01*
X418638Y450140D01*
X419025Y450398D01*
X419283Y450785D01*
X419374Y451241D01*
Y451726D01*
X421200D01*
X429775Y443151D01*
Y428345D01*
X429875Y427838D01*
X430163Y427408D01*
X437008Y420563D01*
X437438Y420275D01*
X437945Y420175D01*
X452751D01*
X455958Y416967D01*
Y401832D01*
X453451Y399325D01*
X440732D01*
X440225Y399225D01*
X439795Y398937D01*
X437449Y396591D01*
X435361D01*
Y387235D01*
X439324D01*
Y394717D01*
X439700Y395093D01*
X440161Y394901D01*
Y392513D01*
X442343D01*
X444524D01*
Y396364D01*
X444861Y396558D01*
X445361Y396333D01*
Y387235D01*
X449324D01*
Y396175D01*
X449324Y396591D01*
X449789Y396674D01*
X449896D01*
X450361Y396591D01*
X450361Y396175D01*
Y387235D01*
X454324D01*
Y389995D01*
X461874D01*
Y389739D01*
X461965Y389283D01*
X462223Y388896D01*
X462610Y388638D01*
X463066Y388547D01*
X467027D01*
X472277Y383297D01*
X472085Y382835D01*
X456000D01*
X455298Y382696D01*
X454702Y382298D01*
X451045Y378640D01*
X450647Y378045D01*
X450507Y377343D01*
Y315126D01*
X445878Y310497D01*
X443516D01*
Y311344D01*
X443425Y311800D01*
X443167Y312186D01*
X442780Y312445D01*
X442324Y312536D01*
X442067D01*
Y318478D01*
X442075Y318484D01*
X442252Y318519D01*
X446934D01*
Y322481D01*
X437578D01*
Y318519D01*
X438397D01*
Y312536D01*
X438141D01*
X437685Y312445D01*
X437298Y312186D01*
X437040Y311800D01*
X436949Y311344D01*
Y305979D01*
X437040Y305523D01*
X437298Y305136D01*
X437685Y304878D01*
X438141Y304787D01*
X442324D01*
X442780Y304878D01*
X443167Y305136D01*
X443425Y305523D01*
X443516Y305979D01*
Y306826D01*
X446638D01*
X447340Y306966D01*
X447935Y307364D01*
X453640Y313068D01*
X454038Y313664D01*
X454178Y314366D01*
Y376582D01*
X456760Y379165D01*
X549916D01*
X550107Y378703D01*
X548702Y377298D01*
X548304Y376702D01*
X548165Y376000D01*
Y359760D01*
X545838Y357434D01*
X543874D01*
Y357690D01*
X543783Y358146D01*
X543525Y358533D01*
X543138Y358791D01*
X542682Y358882D01*
X537318D01*
X536862Y358791D01*
X536475Y358533D01*
X536217Y358146D01*
X536126Y357690D01*
Y357384D01*
X530166D01*
Y357481D01*
X520810D01*
X520617Y357901D01*
Y367241D01*
X520727Y367263D01*
X521512Y367788D01*
X522037Y368573D01*
X522221Y369500D01*
X522037Y370427D01*
X521512Y371212D01*
X520727Y371737D01*
X519800Y371921D01*
X518873Y371737D01*
X518088Y371212D01*
X517563Y370427D01*
X517379Y369500D01*
X517563Y368573D01*
X517966Y367970D01*
Y364644D01*
X517466Y364377D01*
X516927Y364737D01*
X516000Y364921D01*
X515073Y364737D01*
X514288Y364212D01*
X513763Y363427D01*
X513579Y362500D01*
X513586Y362466D01*
X513144Y362230D01*
X509831Y365544D01*
X509921Y366000D01*
X509737Y366927D01*
X509212Y367712D01*
X508427Y368237D01*
X507500Y368421D01*
X506573Y368237D01*
X505788Y367712D01*
X505263Y366927D01*
X505079Y366000D01*
X505263Y365073D01*
X505788Y364288D01*
X506573Y363763D01*
X507500Y363579D01*
X507956Y363669D01*
X508800Y362825D01*
X508593Y362326D01*
X485000D01*
X484493Y362225D01*
X484063Y361937D01*
X477325Y355200D01*
X476826Y355407D01*
Y367530D01*
X477212Y367788D01*
X477737Y368573D01*
X477921Y369500D01*
X477737Y370427D01*
X477212Y371212D01*
X476427Y371737D01*
X475500Y371921D01*
X474573Y371737D01*
X473788Y371212D01*
X473263Y370427D01*
X473079Y369500D01*
X473263Y368573D01*
X473788Y367788D01*
X474174Y367530D01*
Y364352D01*
X474164Y364349D01*
X473674Y364237D01*
X472927Y364737D01*
X472000Y364921D01*
X471073Y364737D01*
X470288Y364212D01*
X469763Y363427D01*
X469579Y362500D01*
X469763Y361573D01*
X470288Y360788D01*
X470675Y360529D01*
Y355539D01*
X466961Y351825D01*
X466422D01*
Y352481D01*
X457066D01*
Y348519D01*
X466422D01*
Y349174D01*
X467510D01*
X468017Y349275D01*
X468447Y349563D01*
X472937Y354052D01*
X473225Y354483D01*
X473325Y354990D01*
Y360444D01*
X473708Y360730D01*
X474174Y360585D01*
Y348049D01*
X472951Y346826D01*
X466422D01*
Y347481D01*
X457066D01*
Y343519D01*
X466422D01*
Y344175D01*
X473500D01*
X474007Y344275D01*
X474437Y344563D01*
X476174Y346300D01*
X476675Y346093D01*
Y345549D01*
X472951Y341826D01*
X466422D01*
Y342481D01*
X457066D01*
Y338519D01*
X466422D01*
Y339175D01*
X473500D01*
X474007Y339275D01*
X474437Y339563D01*
X478937Y344063D01*
X479225Y344493D01*
X479325Y345000D01*
Y353451D01*
X485549Y359675D01*
X508451D01*
X510183Y357943D01*
X509991Y357481D01*
X501322D01*
Y356825D01*
X491500D01*
X490993Y356725D01*
X490563Y356437D01*
X487063Y352937D01*
X486775Y352507D01*
X486674Y352000D01*
Y341549D01*
X476951Y331825D01*
X466422D01*
Y332481D01*
X457066D01*
Y328519D01*
X466422D01*
Y329174D01*
X477500D01*
X478007Y329275D01*
X478437Y329563D01*
X488937Y340063D01*
X489225Y340493D01*
X489326Y341000D01*
Y351451D01*
X492049Y354174D01*
X501322D01*
Y353519D01*
X510678D01*
Y356794D01*
X511140Y356986D01*
X511667Y356459D01*
Y345299D01*
X511768Y344792D01*
X512055Y344362D01*
X520810Y335607D01*
Y333519D01*
X530166D01*
Y337481D01*
X522685D01*
X522109Y338057D01*
X522300Y338519D01*
X530166D01*
Y342481D01*
X522685D01*
X522109Y343057D01*
X522300Y343519D01*
X530166D01*
Y347481D01*
X522685D01*
X522109Y348057D01*
X522300Y348519D01*
X530166D01*
Y352481D01*
X522685D01*
X522109Y353057D01*
X522300Y353519D01*
X530166D01*
Y353714D01*
X536126D01*
Y353507D01*
X536217Y353051D01*
X536475Y352664D01*
X536862Y352406D01*
X537318Y352315D01*
X542682D01*
X543138Y352406D01*
X543525Y352664D01*
X543783Y353051D01*
X543874Y353507D01*
Y353763D01*
X546598D01*
X547301Y353903D01*
X547896Y354301D01*
X551298Y357702D01*
X551696Y358298D01*
X551835Y359000D01*
Y375240D01*
X555760Y379165D01*
X575000D01*
X575702Y379304D01*
X576298Y379702D01*
X586298Y389702D01*
X586696Y390298D01*
X586835Y391000D01*
Y398232D01*
X592828D01*
Y406131D01*
X587662D01*
Y451067D01*
X595784Y459188D01*
X623299D01*
X623507Y458684D01*
X624251Y457715D01*
X625220Y456972D01*
X626348Y456504D01*
X627559Y456345D01*
X628770Y456504D01*
X629898Y456972D01*
X630867Y457715D01*
X631611Y458684D01*
X632078Y459813D01*
X632238Y461024D01*
X632078Y462234D01*
X631611Y463363D01*
X630867Y464332D01*
X629898Y465075D01*
X628770Y465543D01*
X627559Y465702D01*
X626348Y465543D01*
X625220Y465075D01*
X624251Y464332D01*
X623507Y463363D01*
X623299Y462859D01*
X595024D01*
X594321Y462719D01*
X593726Y462321D01*
X584529Y453125D01*
X584529Y453125D01*
X535208Y403804D01*
X534166D01*
Y405918D01*
X522760D01*
X518075Y410603D01*
Y425573D01*
X518296Y425617D01*
X518682Y425875D01*
X518941Y426262D01*
X519032Y426718D01*
Y432082D01*
X518941Y432538D01*
X518682Y432925D01*
X518296Y433183D01*
X518075Y433227D01*
Y435236D01*
X517936Y435939D01*
X517829Y436098D01*
Y442145D01*
X517916Y442181D01*
X518710Y442790D01*
X519319Y443584D01*
X519702Y444508D01*
X519833Y445500D01*
X519702Y446492D01*
X519319Y447416D01*
X518710Y448210D01*
X517916Y448819D01*
X517829Y448855D01*
Y454913D01*
X517843D01*
Y458087D01*
X517829D01*
Y463100D01*
Y472799D01*
X518347D01*
X518797Y472889D01*
X519179Y473144D01*
X519434Y473526D01*
X519523Y473976D01*
Y477992D01*
X519434Y478442D01*
X519179Y478824D01*
X518797Y479079D01*
X518347Y479169D01*
D02*
G37*
G36*
X429324Y396591D02*
X425361D01*
Y387235D01*
X426274D01*
Y384871D01*
X425888Y384612D01*
X425363Y383827D01*
X425179Y382900D01*
X425363Y381973D01*
X425888Y381188D01*
X426673Y380663D01*
X427600Y380479D01*
X428527Y380663D01*
X429312Y381188D01*
X429837Y381973D01*
X430021Y382900D01*
X429837Y383827D01*
X429312Y384612D01*
X428926Y384871D01*
Y387235D01*
X429324D01*
Y396591D01*
D02*
G37*
G36*
X636221Y386974D02*
X635112Y386828D01*
X634080Y386401D01*
X633193Y385720D01*
X632513Y384834D01*
X632175Y384018D01*
X611268D01*
X610760Y383917D01*
X610330Y383630D01*
X592282Y365581D01*
X591821Y365828D01*
X591893Y366189D01*
Y367597D01*
X588513D01*
Y364808D01*
X590512D01*
X590873Y364880D01*
X591119Y364419D01*
X589814Y363114D01*
X585315D01*
X584865Y363024D01*
X584483Y362769D01*
X584228Y362387D01*
X584138Y361937D01*
Y361156D01*
X573787D01*
Y361922D01*
X573697Y362378D01*
X573438Y362765D01*
X573052Y363023D01*
X572596Y363114D01*
X567231D01*
X566775Y363023D01*
X566388Y362765D01*
X566130Y362378D01*
X566039Y361922D01*
Y358422D01*
X539443Y331825D01*
X530166D01*
Y332481D01*
X520810D01*
Y328519D01*
X530166D01*
Y329174D01*
X539992D01*
X540499Y329275D01*
X540929Y329563D01*
X567914Y356547D01*
X572596D01*
X573052Y356638D01*
X573438Y356896D01*
X573697Y357283D01*
X573787Y357739D01*
Y358505D01*
X584138D01*
Y357921D01*
X584228Y357471D01*
X584483Y357089D01*
X584865Y356834D01*
X585315Y356744D01*
X590512D01*
X590962Y356834D01*
X591344Y357089D01*
X591599Y357471D01*
X591689Y357921D01*
Y361239D01*
X611817Y381367D01*
X632175D01*
X632513Y380552D01*
X633193Y379665D01*
X634080Y378985D01*
X635112Y378557D01*
X636221Y378411D01*
X637329Y378557D01*
X638361Y378985D01*
X639248Y379665D01*
X639928Y380552D01*
X640356Y381585D01*
X640502Y382693D01*
X640356Y383801D01*
X639928Y384834D01*
X639248Y385720D01*
X638361Y386401D01*
X637329Y386828D01*
X636221Y386974D01*
D02*
G37*
G36*
X412340Y372157D02*
X410257D01*
Y369269D01*
X413735D01*
Y370761D01*
X413629Y371295D01*
X413327Y371748D01*
X412874Y372050D01*
X412340Y372157D01*
D02*
G37*
G36*
X409058D02*
X406975D01*
X406441Y372050D01*
X405988Y371748D01*
X405686Y371295D01*
X405580Y370761D01*
Y369269D01*
X409058D01*
Y372157D01*
D02*
G37*
G36*
X394256Y371861D02*
X392257D01*
Y369072D01*
X395637D01*
Y370480D01*
X395532Y371009D01*
X395232Y371457D01*
X394784Y371756D01*
X394256Y371861D01*
D02*
G37*
G36*
X391057D02*
X389059D01*
X388531Y371756D01*
X388083Y371457D01*
X387783Y371009D01*
X387678Y370480D01*
Y369072D01*
X391057D01*
Y371861D01*
D02*
G37*
G36*
X572596Y371783D02*
X570513D01*
Y368895D01*
X573991D01*
Y370387D01*
X573885Y370921D01*
X573583Y371374D01*
X573130Y371676D01*
X572596Y371783D01*
D02*
G37*
G36*
X569313D02*
X567231D01*
X566697Y371676D01*
X566244Y371374D01*
X565942Y370921D01*
X565835Y370387D01*
Y368895D01*
X569313D01*
Y371783D01*
D02*
G37*
G36*
X590512Y371586D02*
X588513D01*
Y368797D01*
X591893D01*
Y370205D01*
X591788Y370733D01*
X591488Y371181D01*
X591040Y371480D01*
X590512Y371586D01*
D02*
G37*
G36*
X587313D02*
X585315D01*
X584787Y371480D01*
X584339Y371181D01*
X584039Y370733D01*
X583934Y370205D01*
Y368797D01*
X587313D01*
Y371586D01*
D02*
G37*
G36*
X636221Y376974D02*
X635112Y376829D01*
X634080Y376401D01*
X633193Y375720D01*
X632513Y374834D01*
X632175Y374018D01*
X620193D01*
X619686Y373918D01*
X619256Y373630D01*
X597063Y351437D01*
X596775Y351007D01*
X596674Y350500D01*
Y343187D01*
X592282Y338794D01*
X591821Y339040D01*
X591893Y339402D01*
Y340809D01*
X588513D01*
Y338021D01*
X590512D01*
X590873Y338093D01*
X591119Y337632D01*
X589814Y336327D01*
X585315D01*
X584865Y336237D01*
X584483Y335982D01*
X584228Y335600D01*
X584138Y335150D01*
Y334467D01*
X573886D01*
Y335135D01*
X573795Y335591D01*
X573537Y335978D01*
X573150Y336236D01*
X572694Y336327D01*
X567330D01*
X566874Y336236D01*
X566487Y335978D01*
X566228Y335591D01*
X566138Y335135D01*
Y331634D01*
X561329Y326825D01*
X530166D01*
Y327481D01*
X520810D01*
Y323519D01*
X530166D01*
Y324174D01*
X561878D01*
X562385Y324275D01*
X562815Y324563D01*
X568012Y329760D01*
X572694D01*
X573150Y329851D01*
X573537Y330109D01*
X573795Y330496D01*
X573886Y330952D01*
Y331816D01*
X584138D01*
Y331134D01*
X584228Y330683D01*
X584483Y330302D01*
X584865Y330047D01*
X585315Y329957D01*
X590512D01*
X590962Y330047D01*
X591344Y330302D01*
X591599Y330683D01*
X591689Y331134D01*
Y334452D01*
X598937Y341701D01*
X599225Y342130D01*
X599326Y342638D01*
Y349951D01*
X620742Y371367D01*
X632175D01*
X632513Y370552D01*
X633193Y369665D01*
X634080Y368985D01*
X635112Y368557D01*
X636221Y368411D01*
X637329Y368557D01*
X638361Y368985D01*
X639248Y369665D01*
X639928Y370552D01*
X640356Y371585D01*
X640502Y372693D01*
X640356Y373801D01*
X639928Y374834D01*
X639248Y375720D01*
X638361Y376401D01*
X637329Y376829D01*
X636221Y376974D01*
D02*
G37*
G36*
X400700Y370994D02*
X400029Y370905D01*
X399403Y370646D01*
X398866Y370234D01*
X398454Y369697D01*
X398195Y369071D01*
X398106Y368400D01*
X398195Y367729D01*
X398454Y367103D01*
X398866Y366566D01*
X399403Y366154D01*
X400029Y365895D01*
X400700Y365806D01*
X401371Y365895D01*
X401997Y366154D01*
X402534Y366566D01*
X402946Y367103D01*
X403205Y367729D01*
X403294Y368400D01*
X403205Y369071D01*
X402946Y369697D01*
X402534Y370234D01*
X401997Y370646D01*
X401371Y370905D01*
X400700Y370994D01*
D02*
G37*
G36*
X413735Y368069D02*
X410257D01*
Y365182D01*
X412340D01*
X412874Y365288D01*
X413327Y365591D01*
X413629Y366044D01*
X413735Y366578D01*
Y368069D01*
D02*
G37*
G36*
X409058D02*
X405580D01*
Y366578D01*
X405686Y366044D01*
X405988Y365591D01*
X406441Y365288D01*
X406975Y365182D01*
X409058D01*
Y368069D01*
D02*
G37*
G36*
X395637Y367872D02*
X392257D01*
Y365084D01*
X394256D01*
X394784Y365189D01*
X395232Y365488D01*
X395532Y365936D01*
X395637Y366465D01*
Y367872D01*
D02*
G37*
G36*
X391057D02*
X387678D01*
Y366465D01*
X387783Y365936D01*
X388083Y365488D01*
X388531Y365189D01*
X389059Y365084D01*
X391057D01*
Y367872D01*
D02*
G37*
G36*
X587313Y367597D02*
X583934D01*
Y366189D01*
X584039Y365661D01*
X584339Y365213D01*
X584787Y364913D01*
X585315Y364808D01*
X587313D01*
Y367597D01*
D02*
G37*
G36*
X573991Y367695D02*
X570513D01*
Y364808D01*
X572596D01*
X573130Y364914D01*
X573583Y365217D01*
X573885Y365669D01*
X573991Y366204D01*
Y367695D01*
D02*
G37*
G36*
X569313D02*
X565835D01*
Y366204D01*
X565942Y365669D01*
X566244Y365217D01*
X566697Y364914D01*
X567231Y364808D01*
X569313D01*
Y367695D01*
D02*
G37*
G36*
X542682Y367550D02*
X540600D01*
Y364663D01*
X544078D01*
Y366155D01*
X543972Y366689D01*
X543669Y367142D01*
X543216Y367444D01*
X542682Y367550D01*
D02*
G37*
G36*
X539400D02*
X537318D01*
X536784Y367444D01*
X536331Y367142D01*
X536028Y366689D01*
X535922Y366155D01*
Y364663D01*
X539400D01*
Y367550D01*
D02*
G37*
G36*
X544078Y363463D02*
X540600D01*
Y360576D01*
X542682D01*
X543216Y360682D01*
X543669Y360984D01*
X543972Y361437D01*
X544078Y361971D01*
Y363463D01*
D02*
G37*
G36*
X539400D02*
X535922D01*
Y361971D01*
X536028Y361437D01*
X536331Y360984D01*
X536784Y360682D01*
X537318Y360576D01*
X539400D01*
Y363463D01*
D02*
G37*
G36*
X636221Y366974D02*
X635112Y366828D01*
X634080Y366401D01*
X633193Y365720D01*
X632513Y364834D01*
X632175Y364018D01*
X621268D01*
X620760Y363917D01*
X620330Y363630D01*
X602722Y346022D01*
X602435Y345592D01*
X602334Y345085D01*
Y321996D01*
X592282Y311944D01*
X591821Y312190D01*
X591893Y312552D01*
Y313960D01*
X588513D01*
Y311171D01*
X590512D01*
X590873Y311243D01*
X591119Y310782D01*
X589814Y309477D01*
X585315D01*
X584865Y309387D01*
X584483Y309132D01*
X584228Y308750D01*
X584138Y308300D01*
Y307617D01*
X573787D01*
Y308560D01*
X573697Y309016D01*
X573438Y309403D01*
X573052Y309661D01*
X572596Y309752D01*
X567914D01*
X566606Y311060D01*
X566852Y311521D01*
X567231Y311446D01*
X569313D01*
Y314333D01*
X565835D01*
Y312842D01*
X565911Y312462D01*
X565450Y312216D01*
X556229Y321437D01*
X555799Y321725D01*
X555291Y321826D01*
X530166D01*
Y322481D01*
X520810D01*
Y318519D01*
X530166D01*
Y319175D01*
X554742D01*
X566039Y307877D01*
Y304377D01*
X566130Y303921D01*
X566388Y303534D01*
X566775Y303276D01*
X567231Y303185D01*
X572596D01*
X573052Y303276D01*
X573438Y303534D01*
X573697Y303921D01*
X573787Y304377D01*
Y304966D01*
X584138D01*
Y304284D01*
X584228Y303834D01*
X584483Y303452D01*
X584865Y303197D01*
X585315Y303107D01*
X590512D01*
X590962Y303197D01*
X591344Y303452D01*
X591599Y303834D01*
X591689Y304284D01*
Y307602D01*
X604597Y320510D01*
X604884Y320940D01*
X604985Y321447D01*
Y344535D01*
X621817Y361367D01*
X632175D01*
X632513Y360552D01*
X633193Y359665D01*
X634080Y358985D01*
X635112Y358557D01*
X636221Y358411D01*
X637329Y358557D01*
X638361Y358985D01*
X639248Y359665D01*
X639928Y360552D01*
X640356Y361585D01*
X640502Y362693D01*
X640356Y363801D01*
X639928Y364834D01*
X639248Y365720D01*
X638361Y366401D01*
X637329Y366828D01*
X636221Y366974D01*
D02*
G37*
G36*
X466622Y357681D02*
X462344D01*
Y356100D01*
X466622D01*
Y357681D01*
D02*
G37*
G36*
X461144D02*
X456866D01*
Y356100D01*
X461144D01*
Y357681D01*
D02*
G37*
G36*
X443000Y368421D02*
X442073Y368237D01*
X441288Y367712D01*
X440763Y366927D01*
X440579Y366000D01*
X440763Y365073D01*
X441288Y364288D01*
X441675Y364030D01*
Y357481D01*
X437578D01*
Y353519D01*
X446934D01*
Y357481D01*
X444325D01*
Y364030D01*
X444712Y364288D01*
X445237Y365073D01*
X445421Y366000D01*
X445237Y366927D01*
X444712Y367712D01*
X443927Y368237D01*
X443000Y368421D01*
D02*
G37*
G36*
X466622Y354900D02*
X462344D01*
Y353319D01*
X466622D01*
Y354900D01*
D02*
G37*
G36*
X461144D02*
X456866D01*
Y353319D01*
X461144D01*
Y354900D01*
D02*
G37*
G36*
X496250Y352921D02*
X495323Y352737D01*
X494538Y352212D01*
X494013Y351427D01*
X493829Y350500D01*
X494013Y349573D01*
X494538Y348788D01*
X495323Y348263D01*
X495364Y348255D01*
Y347745D01*
X495323Y347737D01*
X494538Y347212D01*
X494013Y346427D01*
X493829Y345500D01*
X494013Y344573D01*
X494538Y343788D01*
X495323Y343263D01*
X495986Y343131D01*
X496008Y343127D01*
Y342617D01*
X495985Y342612D01*
X495316Y342479D01*
X494530Y341954D01*
X494005Y341169D01*
X493821Y340242D01*
X494005Y339316D01*
X494530Y338530D01*
X495316Y338005D01*
X496242Y337821D01*
X497169Y338005D01*
X497954Y338530D01*
X498218Y338925D01*
X501322D01*
Y338519D01*
X510678D01*
Y342481D01*
X501322D01*
Y341576D01*
X498208D01*
X497954Y341954D01*
X497169Y342479D01*
X496506Y342611D01*
X496484Y342615D01*
Y343125D01*
X496507Y343130D01*
X497177Y343263D01*
X497962Y343788D01*
X498220Y344175D01*
X501322D01*
Y343519D01*
X510678D01*
Y347481D01*
X501322D01*
Y346826D01*
X498220D01*
X497962Y347212D01*
X497177Y347737D01*
X497136Y347745D01*
Y348255D01*
X497177Y348263D01*
X497962Y348788D01*
X498220Y349174D01*
X501322D01*
Y348519D01*
X510678D01*
Y352481D01*
X501322D01*
Y351825D01*
X498220D01*
X497962Y352212D01*
X497177Y352737D01*
X496250Y352921D01*
D02*
G37*
G36*
X572694Y344995D02*
X570612D01*
Y342108D01*
X574090D01*
Y343599D01*
X573984Y344134D01*
X573681Y344586D01*
X573228Y344889D01*
X572694Y344995D01*
D02*
G37*
G36*
X569412D02*
X567330D01*
X566795Y344889D01*
X566343Y344586D01*
X566040Y344134D01*
X565934Y343599D01*
Y342108D01*
X569412D01*
Y344995D01*
D02*
G37*
G36*
X590512Y344798D02*
X588513D01*
Y342009D01*
X591893D01*
Y343417D01*
X591788Y343946D01*
X591488Y344394D01*
X591040Y344693D01*
X590512Y344798D01*
D02*
G37*
G36*
X587313D02*
X585315D01*
X584787Y344693D01*
X584339Y344394D01*
X584039Y343946D01*
X583934Y343417D01*
Y342009D01*
X587313D01*
Y344798D01*
D02*
G37*
G36*
X446934Y342481D02*
X437578D01*
Y338519D01*
X446934D01*
Y342481D01*
D02*
G37*
G36*
X587313Y340809D02*
X583934D01*
Y339402D01*
X584039Y338873D01*
X584339Y338425D01*
X584787Y338126D01*
X585315Y338021D01*
X587313D01*
Y340809D01*
D02*
G37*
G36*
X574090Y340908D02*
X570612D01*
Y338020D01*
X572694D01*
X573228Y338127D01*
X573681Y338429D01*
X573984Y338882D01*
X574090Y339416D01*
Y340908D01*
D02*
G37*
G36*
X569412D02*
X565934D01*
Y339416D01*
X566040Y338882D01*
X566343Y338429D01*
X566795Y338127D01*
X567330Y338020D01*
X569412D01*
Y340908D01*
D02*
G37*
G36*
X483000Y352921D02*
X482073Y352737D01*
X481288Y352212D01*
X480763Y351427D01*
X480579Y350500D01*
X480763Y349573D01*
X481288Y348788D01*
X481674Y348530D01*
Y341549D01*
X476951Y336825D01*
X466422D01*
Y337481D01*
X457066D01*
Y333519D01*
X466422D01*
Y334174D01*
X477500D01*
X478007Y334275D01*
X478437Y334563D01*
X483937Y340063D01*
X484225Y340493D01*
X484326Y341000D01*
Y348530D01*
X484712Y348788D01*
X485237Y349573D01*
X485421Y350500D01*
X485237Y351427D01*
X484712Y352212D01*
X483927Y352737D01*
X483000Y352921D01*
D02*
G37*
G36*
X510678Y337481D02*
X501322D01*
Y336825D01*
X489500D01*
X488993Y336725D01*
X488563Y336437D01*
X478951Y326825D01*
X466422D01*
Y327481D01*
X457066D01*
Y323519D01*
X466422D01*
Y324174D01*
X479500D01*
X480007Y324275D01*
X480437Y324563D01*
X490049Y334174D01*
X501322D01*
Y333519D01*
X510678D01*
Y337481D01*
D02*
G37*
G36*
X431768Y342421D02*
X430841Y342237D01*
X430056Y341712D01*
X429531Y340927D01*
X429346Y340000D01*
X429531Y339073D01*
X430056Y338288D01*
X430841Y337763D01*
X431768Y337579D01*
X432224Y337669D01*
X435330Y334563D01*
X435760Y334275D01*
X436268Y334174D01*
X437578D01*
Y333519D01*
X446934D01*
Y337481D01*
X437578D01*
Y336825D01*
X436817D01*
X434098Y339544D01*
X434189Y340000D01*
X434005Y340927D01*
X433480Y341712D01*
X432694Y342237D01*
X431768Y342421D01*
D02*
G37*
G36*
X636821Y337097D02*
Y333293D01*
X640625D01*
X640551Y333853D01*
X640103Y334934D01*
X639391Y335863D01*
X638462Y336576D01*
X637381Y337023D01*
X636821Y337097D01*
D02*
G37*
G36*
X635620D02*
X635060Y337023D01*
X633979Y336576D01*
X633050Y335863D01*
X632338Y334934D01*
X631890Y333853D01*
X631816Y333293D01*
X635620D01*
Y337097D01*
D02*
G37*
G36*
X394220Y336003D02*
X392222D01*
Y333214D01*
X395601D01*
Y334622D01*
X395496Y335151D01*
X395197Y335598D01*
X394749Y335898D01*
X394220Y336003D01*
D02*
G37*
G36*
X391022D02*
X389024D01*
X388495Y335898D01*
X388047Y335598D01*
X387748Y335151D01*
X387643Y334622D01*
Y333214D01*
X391022D01*
Y336003D01*
D02*
G37*
G36*
X412304Y336003D02*
X410222D01*
Y333116D01*
X413700D01*
Y334607D01*
X413594Y335141D01*
X413291Y335594D01*
X412838Y335897D01*
X412304Y336003D01*
D02*
G37*
G36*
X409022D02*
X406940D01*
X406406Y335897D01*
X405953Y335594D01*
X405650Y335141D01*
X405544Y334607D01*
Y333116D01*
X409022D01*
Y336003D01*
D02*
G37*
G36*
X510878Y332681D02*
X506600D01*
Y331100D01*
X510878D01*
Y332681D01*
D02*
G37*
G36*
X505400D02*
X501122D01*
Y331100D01*
X505400D01*
Y332681D01*
D02*
G37*
G36*
X400400Y334994D02*
X399729Y334906D01*
X399103Y334646D01*
X398566Y334234D01*
X398154Y333697D01*
X397895Y333071D01*
X397806Y332400D01*
X397895Y331729D01*
X398154Y331103D01*
X398566Y330566D01*
X399103Y330154D01*
X399729Y329894D01*
X400400Y329806D01*
X401071Y329894D01*
X401697Y330154D01*
X402234Y330566D01*
X402646Y331103D01*
X402906Y331729D01*
X402994Y332400D01*
X402906Y333071D01*
X402646Y333697D01*
X402234Y334234D01*
X401697Y334646D01*
X401071Y334906D01*
X400400Y334994D01*
D02*
G37*
G36*
X395601Y332014D02*
X392222D01*
Y329225D01*
X394220D01*
X394749Y329331D01*
X395197Y329630D01*
X395496Y330078D01*
X395601Y330606D01*
Y332014D01*
D02*
G37*
G36*
X391022D02*
X387643D01*
Y330606D01*
X387748Y330078D01*
X388047Y329630D01*
X388495Y329331D01*
X389024Y329225D01*
X391022D01*
Y332014D01*
D02*
G37*
G36*
X413700Y331916D02*
X410222D01*
Y329028D01*
X412304D01*
X412838Y329135D01*
X413291Y329437D01*
X413594Y329890D01*
X413700Y330424D01*
Y331916D01*
D02*
G37*
G36*
X409022D02*
X405544D01*
Y330424D01*
X405650Y329890D01*
X405953Y329437D01*
X406406Y329135D01*
X406940Y329028D01*
X409022D01*
Y331916D01*
D02*
G37*
G36*
X446934Y332481D02*
X437578D01*
Y328519D01*
X446934D01*
Y332481D01*
D02*
G37*
G36*
X510878Y329900D02*
X506600D01*
Y328319D01*
X510878D01*
Y329900D01*
D02*
G37*
G36*
X505400D02*
X501122D01*
Y328319D01*
X505400D01*
Y329900D01*
D02*
G37*
G36*
X635620Y332093D02*
X631816D01*
X631890Y331533D01*
X632338Y330451D01*
X633050Y329523D01*
X633979Y328810D01*
X635060Y328362D01*
X635620Y328289D01*
Y332093D01*
D02*
G37*
G36*
X640625D02*
X636821D01*
Y328289D01*
X637381Y328362D01*
X638462Y328810D01*
X639391Y329523D01*
X640103Y330451D01*
X640551Y331533D01*
X640625Y332093D01*
D02*
G37*
G36*
X510878Y327681D02*
X506600D01*
Y326100D01*
X510878D01*
Y327681D01*
D02*
G37*
G36*
X505400D02*
X501122D01*
Y326100D01*
X505400D01*
Y327681D01*
D02*
G37*
G36*
X366900Y329794D02*
X366229Y329706D01*
X365603Y329446D01*
X365066Y329034D01*
X364654Y328497D01*
X364394Y327871D01*
X364306Y327200D01*
X364394Y326529D01*
X364654Y325903D01*
X365066Y325366D01*
X365603Y324954D01*
X366229Y324694D01*
X366900Y324606D01*
X367571Y324694D01*
X368197Y324954D01*
X368734Y325366D01*
X369146Y325903D01*
X369406Y326529D01*
X369494Y327200D01*
X369406Y327871D01*
X369146Y328497D01*
X368734Y329034D01*
X368197Y329446D01*
X367571Y329706D01*
X366900Y329794D01*
D02*
G37*
G36*
X446934Y327481D02*
X437578D01*
Y323519D01*
X446934D01*
Y327481D01*
D02*
G37*
G36*
X510878Y324900D02*
X506600D01*
Y323319D01*
X510878D01*
Y324900D01*
D02*
G37*
G36*
X505400D02*
X501122D01*
Y323319D01*
X505400D01*
Y324900D01*
D02*
G37*
G36*
X510878Y322681D02*
X506600D01*
Y321100D01*
X510878D01*
Y322681D01*
D02*
G37*
G36*
X505400D02*
X501122D01*
Y321100D01*
X505400D01*
Y322681D01*
D02*
G37*
G36*
X641000Y325094D02*
X640329Y325006D01*
X639703Y324746D01*
X639166Y324334D01*
X638754Y323797D01*
X638494Y323171D01*
X638406Y322500D01*
X638494Y321829D01*
X638754Y321203D01*
X639166Y320666D01*
X639703Y320254D01*
X640329Y319994D01*
X641000Y319906D01*
X641671Y319994D01*
X642297Y320254D01*
X642834Y320666D01*
X643246Y321203D01*
X643505Y321829D01*
X643594Y322500D01*
X643505Y323171D01*
X643246Y323797D01*
X642834Y324334D01*
X642297Y324746D01*
X641671Y325006D01*
X641000Y325094D01*
D02*
G37*
G36*
X466422Y322481D02*
X457066D01*
Y318519D01*
X466422D01*
Y322481D01*
D02*
G37*
G36*
X510878Y319900D02*
X506600D01*
Y318319D01*
X510878D01*
Y319900D01*
D02*
G37*
G36*
X505400D02*
X501122D01*
Y318319D01*
X505400D01*
Y319900D01*
D02*
G37*
G36*
X572596Y318421D02*
X570513D01*
Y315533D01*
X573991D01*
Y317025D01*
X573885Y317559D01*
X573583Y318012D01*
X573130Y318314D01*
X572596Y318421D01*
D02*
G37*
G36*
X569313D02*
X567231D01*
X566697Y318314D01*
X566244Y318012D01*
X565942Y317559D01*
X565835Y317025D01*
Y315533D01*
X569313D01*
Y318421D01*
D02*
G37*
G36*
X590512Y317948D02*
X588513D01*
Y315160D01*
X591893D01*
Y316567D01*
X591788Y317096D01*
X591488Y317544D01*
X591040Y317843D01*
X590512Y317948D01*
D02*
G37*
G36*
X587313D02*
X585315D01*
X584787Y317843D01*
X584339Y317544D01*
X584039Y317096D01*
X583934Y316567D01*
Y315160D01*
X587313D01*
Y317948D01*
D02*
G37*
G36*
X573991Y314333D02*
X570513D01*
Y311446D01*
X572596D01*
X573130Y311552D01*
X573583Y311855D01*
X573885Y312307D01*
X573991Y312842D01*
Y314333D01*
D02*
G37*
G36*
X587313Y313960D02*
X583934D01*
Y312552D01*
X584039Y312023D01*
X584339Y311575D01*
X584787Y311276D01*
X585315Y311171D01*
X587313D01*
Y313960D01*
D02*
G37*
G36*
X433859Y312739D02*
X432368D01*
Y309261D01*
X435255D01*
Y311344D01*
X435149Y311878D01*
X434846Y312331D01*
X434393Y312633D01*
X433859Y312739D01*
D02*
G37*
G36*
X431168D02*
X429676D01*
X429142Y312633D01*
X428689Y312331D01*
X428386Y311878D01*
X428280Y311344D01*
Y309261D01*
X431168D01*
Y312739D01*
D02*
G37*
G36*
X435255Y308061D02*
X432368D01*
Y304583D01*
X433859D01*
X434393Y304690D01*
X434846Y304992D01*
X435149Y305445D01*
X435255Y305979D01*
Y308061D01*
D02*
G37*
G36*
X431168D02*
X428280D01*
Y305979D01*
X428386Y305445D01*
X428689Y304992D01*
X429142Y304690D01*
X429676Y304583D01*
X431168D01*
Y308061D01*
D02*
G37*
G36*
X630939Y320677D02*
X629000D01*
X627099Y320299D01*
X625307Y319557D01*
X623695Y318480D01*
X622324Y317109D01*
X621247Y315497D01*
X620505Y313705D01*
X620127Y311804D01*
Y309865D01*
X620505Y307963D01*
X621247Y306172D01*
X622324Y304560D01*
X623695Y303189D01*
X625307Y302112D01*
X627099Y301370D01*
X629000Y300992D01*
X630939D01*
X632840Y301370D01*
X634632Y302112D01*
X636244Y303189D01*
X637615Y304560D01*
X638692Y306172D01*
X639434Y307963D01*
X639812Y309865D01*
Y311804D01*
X639434Y313705D01*
X638692Y315497D01*
X637615Y317109D01*
X636244Y318480D01*
X634632Y319557D01*
X632840Y320299D01*
X630939Y320677D01*
D02*
G37*
G36*
X375033D02*
X373095D01*
X371193Y320299D01*
X369402Y319557D01*
X367790Y318480D01*
X366419Y317109D01*
X365342Y315497D01*
X364600Y313705D01*
X364222Y311804D01*
Y309865D01*
X364600Y307963D01*
X365342Y306172D01*
X366419Y304560D01*
X367790Y303189D01*
X369402Y302112D01*
X371193Y301370D01*
X373095Y300992D01*
X375033D01*
X376935Y301370D01*
X378726Y302112D01*
X380338Y303189D01*
X381709Y304560D01*
X382786Y306172D01*
X383528Y307963D01*
X383907Y309865D01*
Y311804D01*
X383528Y313705D01*
X382786Y315497D01*
X381709Y317109D01*
X380338Y318480D01*
X378726Y319557D01*
X376935Y320299D01*
X375033Y320677D01*
D02*
G37*
%LPD*%
D12*
X612171Y337171D02*
X617693Y342693D01*
X612171Y311643D02*
Y337171D01*
X598740Y298213D02*
X612171Y311643D01*
X610371Y312388D02*
Y345371D01*
X597995Y300013D02*
X610371Y312388D01*
X412375Y298213D02*
X598740D01*
X413121Y300013D02*
X597995D01*
X384500Y328634D02*
X413121Y300013D01*
X384500Y328634D02*
Y338213D01*
X374600Y335988D02*
X412375Y298213D01*
X374600Y335988D02*
Y386569D01*
X516000Y362000D02*
X517323Y360677D01*
X516000Y362000D02*
Y362500D01*
X517323Y350969D02*
Y360677D01*
X472000Y354990D02*
Y362500D01*
X467510Y350500D02*
X472000Y354990D01*
X507500Y366000D02*
X515000Y358500D01*
Y348291D02*
Y358500D01*
X461744Y350500D02*
X467510D01*
X475500Y347500D02*
Y369500D01*
X485000Y361000D02*
X509000D01*
X478000Y354000D02*
X485000Y361000D01*
X478000Y345000D02*
Y354000D01*
X509000Y361000D02*
X512992Y357008D01*
X515000Y348291D02*
X522791Y340500D01*
X512992Y345299D02*
Y357008D01*
Y345299D02*
X522791Y335500D01*
X517323Y350969D02*
X522791Y345500D01*
X519291Y368991D02*
X519800Y369500D01*
X519291Y354000D02*
Y368991D01*
Y354000D02*
X522791Y350500D01*
X374600Y386569D02*
X374600Y386569D01*
X391622D01*
X396553D02*
X400188Y382934D01*
X391622Y386569D02*
X396553D01*
X496242Y340242D02*
X496250Y340250D01*
X505750D01*
X496250Y345500D02*
X506000D01*
X496250Y350500D02*
X506000D01*
X483000Y341000D02*
Y350500D01*
X466092Y416067D02*
Y429140D01*
X465832Y429400D02*
X466092Y429140D01*
X393701Y457054D02*
Y464500D01*
Y457054D02*
X397500Y453254D01*
Y453097D02*
Y453254D01*
X411372Y453097D02*
X411417Y453051D01*
X421749D01*
X411372Y453097D02*
X415265D01*
X397500D02*
X411372D01*
X415265D02*
X415500Y453332D01*
X453300Y421500D02*
X457283Y417517D01*
X437945Y421500D02*
X453300D01*
X431100Y428345D02*
X437945Y421500D01*
X431100Y428345D02*
Y443700D01*
X421749Y453051D02*
X431100Y443700D01*
X393701Y464500D02*
Y467323D01*
X457283Y401284D02*
Y417517D01*
X465748Y431800D02*
Y476181D01*
X381000Y364500D02*
X385295Y360205D01*
X381000Y364500D02*
Y375342D01*
X385295Y360205D02*
X391657D01*
X427600Y382900D02*
Y391656D01*
X427343Y391913D02*
X427600Y391656D01*
X404000Y381122D02*
Y398000D01*
X402578Y379700D02*
X404000Y381122D01*
X385357Y379700D02*
X402578D01*
X381000Y375342D02*
X385357Y379700D01*
X404000Y398000D02*
X407969Y401968D01*
X438287D01*
X442343Y406024D01*
Y411402D01*
X384500Y338213D02*
X387169Y340882D01*
X399122Y472744D02*
Y473335D01*
X400984Y475197D02*
X401575D01*
Y483465D02*
X401575Y483465D01*
X442319Y355500D02*
X443000Y356181D01*
X442256Y355500D02*
X442319D01*
X464764Y483465D02*
X465748Y484449D01*
X473500Y345500D02*
X475500Y347500D01*
X505750Y340250D02*
X506000Y340500D01*
X505902Y355500D02*
X505951Y355549D01*
X522791Y340500D02*
X525488D01*
X522791Y350500D02*
X525488D01*
X522791Y345500D02*
X525488D01*
X569913Y306469D02*
X570090Y306292D01*
X569323Y306469D02*
X569913D01*
X569421Y333043D02*
X570012D01*
X570110Y333142D01*
X587913Y306292D02*
X588504D01*
X587913Y333142D02*
X588504D01*
X393701Y467323D02*
X399122Y472744D01*
X427343Y391913D02*
Y394610D01*
X437343Y391913D02*
Y394610D01*
X466092Y416067D02*
X466092Y416067D01*
X473500Y340500D02*
X478000Y345000D01*
X522791Y335500D02*
X525488D01*
X558500Y360000D02*
Y372622D01*
X569323Y359831D02*
X569913D01*
X587913Y359929D02*
X588504D01*
X587815Y359831D02*
X587913Y359929D01*
X598000Y342638D02*
Y350500D01*
X443000Y356181D02*
Y366000D01*
X603659Y321447D02*
Y345085D01*
X391622Y340882D02*
X391721Y340980D01*
X409622D01*
X399122Y473335D02*
X400984Y475197D01*
X425374Y345500D02*
X442256D01*
X431768Y350500D02*
X442256D01*
X437343Y394610D02*
X440732Y398000D01*
X461744Y325500D02*
X479500D01*
X461744Y330500D02*
X477500D01*
X461744Y340500D02*
X473500D01*
X461744Y345500D02*
X473500D01*
X491500Y355500D02*
X505902D01*
X525488Y330500D02*
X539992D01*
X617693Y342693D02*
X636221D01*
X617693Y352693D02*
X636221D01*
X621268Y362693D02*
X636221D01*
X620193Y372693D02*
X636221D01*
X620307Y402693D02*
X636221D01*
X391657Y360205D02*
X409657D01*
X420854Y340980D02*
X425374Y345500D01*
X431768Y340000D02*
X436268Y335500D01*
X442256D01*
X477500D02*
X483000Y341000D01*
X461744Y335500D02*
X477500D01*
X454000Y398000D02*
X457283Y401284D01*
X488000Y341000D02*
Y352000D01*
X489500Y335500D02*
X506000D01*
X555291Y320500D02*
X569323Y306469D01*
X561878Y325500D02*
X569421Y333043D01*
X558500Y372622D02*
X562878Y377000D01*
X588504Y306292D02*
X603659Y321447D01*
X588504Y333142D02*
X598000Y342638D01*
X588504Y359929D02*
X611268Y382693D01*
X422063Y360205D02*
X431768Y350500D01*
X488000Y352000D02*
X491500Y355500D01*
X589500Y377000D02*
X605193Y392693D01*
X387169Y340882D02*
X391622D01*
X409622Y340980D02*
X420854D01*
X440732Y398000D02*
X454000D01*
X438976Y483465D02*
X464764D01*
X570090Y306292D02*
X587913D01*
X570110Y333142D02*
X587913D01*
X562878Y377000D02*
X589500D01*
X611268Y382693D02*
X636221D01*
X605193Y392693D02*
X636221D01*
X477500Y330500D02*
X488000Y341000D01*
X479500Y325500D02*
X489500Y335500D01*
X409657Y360205D02*
X422063D01*
X610371Y345371D02*
X617693Y352693D01*
X569913Y359831D02*
X587815D01*
X606500Y416500D02*
X620307Y402693D01*
X544000Y345500D02*
X558500Y360000D01*
X598000Y350500D02*
X620193Y372693D01*
X603659Y345085D02*
X621268Y362693D01*
X539992Y330500D02*
X569323Y359831D01*
X525488Y325500D02*
X561878D01*
X525488Y320500D02*
X555291D01*
X401575Y483465D02*
X425197D01*
D30*
X397500Y453097D02*
D03*
Y447900D02*
D03*
D31*
X415500Y444868D02*
D03*
Y453332D02*
D03*
X540000Y355598D02*
D03*
Y364063D02*
D03*
X391622Y386569D02*
D03*
Y395034D02*
D03*
X409622Y340980D02*
D03*
Y332516D02*
D03*
X409657Y360205D02*
D03*
Y368669D02*
D03*
X465748Y391831D02*
D03*
Y400295D02*
D03*
X569913Y306469D02*
D03*
Y314933D02*
D03*
X570012Y333043D02*
D03*
Y341508D02*
D03*
X569913Y359831D02*
D03*
Y368295D02*
D03*
D32*
X440232Y308661D02*
D03*
X431768D02*
D03*
X457368Y429400D02*
D03*
X465832D02*
D03*
X524213D02*
D03*
X515748D02*
D03*
D33*
X452343Y411402D02*
D03*
X447342D02*
D03*
X442343D02*
D03*
X437343D02*
D03*
X432342D02*
D03*
X427343D02*
D03*
X422342D02*
D03*
X417343D02*
D03*
Y391913D02*
D03*
X422342D02*
D03*
X427343D02*
D03*
X432342D02*
D03*
X437343D02*
D03*
X442343D02*
D03*
X447342D02*
D03*
X452343D02*
D03*
D34*
X461744Y320500D02*
D03*
Y325500D02*
D03*
Y330500D02*
D03*
Y335500D02*
D03*
Y340500D02*
D03*
Y345500D02*
D03*
Y350500D02*
D03*
Y355500D02*
D03*
X442256D02*
D03*
Y350500D02*
D03*
Y345500D02*
D03*
Y340500D02*
D03*
Y335500D02*
D03*
Y330500D02*
D03*
Y325500D02*
D03*
Y320500D02*
D03*
X506000Y355500D02*
D03*
Y350500D02*
D03*
Y345500D02*
D03*
Y340500D02*
D03*
Y335500D02*
D03*
Y330500D02*
D03*
Y325500D02*
D03*
Y320500D02*
D03*
X525488D02*
D03*
Y325500D02*
D03*
Y330500D02*
D03*
Y335500D02*
D03*
Y340500D02*
D03*
Y345500D02*
D03*
Y350500D02*
D03*
Y355500D02*
D03*
D35*
X466002Y449100D02*
D03*
X471198D02*
D03*
X516098Y456500D02*
D03*
X510902D02*
D03*
D36*
X515748Y484252D02*
D03*
Y475984D02*
D03*
X587913Y314560D02*
D03*
Y306292D02*
D03*
Y341409D02*
D03*
Y333142D02*
D03*
Y368197D02*
D03*
Y359929D02*
D03*
X374600Y394837D02*
D03*
Y386569D02*
D03*
X391622Y332614D02*
D03*
Y340882D02*
D03*
X391657Y368472D02*
D03*
Y360205D02*
D03*
X401575Y483465D02*
D03*
Y475197D02*
D03*
X465748Y484449D02*
D03*
Y476181D02*
D03*
D37*
X504331Y401968D02*
D03*
X527165D02*
D03*
X562992Y402181D02*
D03*
X585827D02*
D03*
D38*
X515994Y456500D02*
Y460400D01*
Y444000D02*
Y447200D01*
Y461900D02*
Y463100D01*
Y475738D01*
X516240Y429400D02*
Y435236D01*
X515994Y460400D02*
Y461900D01*
Y455315D02*
Y456500D01*
Y447200D02*
Y455315D01*
Y435482D02*
X516240Y435236D01*
X515748Y475984D02*
X515994Y475738D01*
X515748Y484252D02*
X516142Y483858D01*
X525488Y355500D02*
X525537Y355549D01*
X539951D02*
X540000Y355598D01*
X442075Y320319D02*
X442256Y320500D01*
X452343Y391913D02*
X452425Y391831D01*
X465748D02*
X466339D01*
X550000Y359000D02*
Y376000D01*
X585000Y391000D02*
Y399957D01*
X452343Y314366D02*
Y377343D01*
X515994Y435482D02*
Y444000D01*
X516240Y409842D02*
Y429400D01*
X546598Y355598D02*
X550000Y359000D01*
X585827Y402181D02*
Y451827D01*
X440527Y308366D02*
X440528D01*
X441551Y307343D01*
X440232Y308071D02*
X440528Y308366D01*
X440232Y308661D02*
X440527Y308366D01*
X440232Y308071D02*
Y308661D01*
X440823D02*
X446638D01*
X440528Y308366D02*
X440823Y308661D01*
X456000Y381000D02*
X477169D01*
X525537Y355549D02*
X539951D01*
X540000Y355598D02*
X546598D01*
X524114Y401968D02*
X527165D01*
X535968D01*
X535039Y483858D02*
X535433Y483465D01*
X555000Y381000D02*
X575000D01*
X582776Y402181D02*
X585827D01*
X440413Y320500D02*
X442256D01*
X440232Y320319D02*
X440413Y320500D01*
X440232Y308661D02*
Y320319D01*
X550000Y376000D02*
X555000Y381000D01*
X582776Y402181D02*
X585000Y399957D01*
X466339Y391831D02*
X477169Y381000D01*
X585827Y451827D02*
X595024Y461024D01*
X452343Y377343D02*
X456000Y381000D01*
X595024Y461024D02*
X627559D01*
X446638Y308661D02*
X452343Y314366D01*
X516240Y409842D02*
X524114Y401968D01*
X452425Y391831D02*
X465748D01*
X575000Y381000D02*
X585000Y391000D01*
X535968Y401968D02*
X585827Y451827D01*
X477169Y381000D02*
X555000D01*
X516142Y483858D02*
X535039D01*
D39*
X505951Y355549D02*
X506000Y355500D01*
D40*
X629921Y488189D02*
D03*
X374016D02*
D03*
X374016Y311024D02*
D03*
X363701Y464500D02*
D03*
X393701D02*
D03*
X496100Y462000D02*
D03*
X466100D02*
D03*
X516000Y445500D02*
D03*
X486000D02*
D03*
X629921Y311024D02*
D03*
D41*
X425197Y483465D02*
D03*
X535433Y483465D02*
D03*
X627559Y461024D02*
D03*
D42*
X438976Y483465D02*
D03*
X549213Y483465D02*
D03*
D43*
X627559Y447244D02*
D03*
D44*
X636221Y352693D02*
D03*
Y402693D02*
D03*
Y392693D02*
D03*
Y372693D02*
D03*
Y382693D02*
D03*
Y362693D02*
D03*
Y342693D02*
D03*
Y332693D02*
D03*
D45*
X604000Y469500D02*
D03*
X382000Y350500D02*
D03*
X400700Y368400D02*
D03*
X400400Y332400D02*
D03*
X366900Y327200D02*
D03*
X641000Y322500D02*
D03*
X491200Y480600D02*
D03*
X604000Y439000D02*
D03*
X575000Y427500D02*
D03*
X604000Y453800D02*
D03*
X387169Y300000D02*
D03*
X619000Y322500D02*
D03*
X506500Y312000D02*
D03*
X495500Y316500D02*
D03*
Y323500D02*
D03*
Y330500D02*
D03*
X530500Y372693D02*
D03*
X539951Y376000D02*
D03*
X530500Y364000D02*
D03*
X579000Y365000D02*
D03*
Y372622D02*
D03*
Y348000D02*
D03*
Y340000D02*
D03*
Y323500D02*
D03*
Y315500D02*
D03*
X383300Y414000D02*
D03*
Y395034D02*
D03*
X565000Y471000D02*
D03*
Y498000D02*
D03*
Y483465D02*
D03*
X640500Y427500D02*
D03*
X627559Y427000D02*
D03*
X614500D02*
D03*
X491500Y435236D02*
D03*
X500600Y455300D02*
D03*
X454000Y453386D02*
D03*
X532900Y428900D02*
D03*
X524100Y437600D02*
D03*
X480000Y454500D02*
D03*
X446500Y435482D02*
D03*
X388700Y445500D02*
D03*
X405500D02*
D03*
X397500Y440200D02*
D03*
X412000Y434500D02*
D03*
X422342Y350500D02*
D03*
X463500Y309500D02*
D03*
X432342Y319000D02*
D03*
X424000Y308661D02*
D03*
X432342Y362000D02*
D03*
X465748D02*
D03*
X459000D02*
D03*
X410500Y394837D02*
D03*
X415500Y378700D02*
D03*
X422342D02*
D03*
X449000Y382000D02*
D03*
X442256D02*
D03*
X410500Y414000D02*
D03*
X415500Y421000D02*
D03*
X421449Y421158D02*
D03*
X427343D02*
D03*
X465748Y408000D02*
D03*
X475500Y400295D02*
D03*
X491500Y394000D02*
D03*
X497500Y409842D02*
D03*
X491500Y401968D02*
D03*
X555500Y410500D02*
D03*
X550000Y394000D02*
D03*
Y402181D02*
D03*
D46*
X516000Y362500D02*
D03*
X472000D02*
D03*
X507500Y366000D02*
D03*
X519800Y369500D02*
D03*
X400188Y382934D02*
D03*
X496242Y340242D02*
D03*
X496250Y345500D02*
D03*
Y350500D02*
D03*
X483000D02*
D03*
X427600Y382900D02*
D03*
X606500Y416500D02*
D03*
X466092Y416067D02*
D03*
X544000Y345500D02*
D03*
X475500Y369500D02*
D03*
X443000Y366000D02*
D03*
X431768Y340000D02*
D03*
M02*
