G04*
G04 #@! TF.GenerationSoftware,Altium Limited,Altium Designer,19.1.5 (86)*
G04*
G04 Layer_Physical_Order=1*
G04 Layer_Color=255*
%FSLAX25Y25*%
%MOIN*%
G70*
G01*
G75*
%ADD13C,0.01000*%
%ADD30R,0.01575X0.01890*%
G04:AMPARAMS|DCode=31|XSize=61.02mil|YSize=49.21mil|CornerRadius=3.69mil|HoleSize=0mil|Usage=FLASHONLY|Rotation=0.000|XOffset=0mil|YOffset=0mil|HoleType=Round|Shape=RoundedRectangle|*
%AMROUNDEDRECTD31*
21,1,0.06102,0.04183,0,0,0.0*
21,1,0.05364,0.04921,0,0,0.0*
1,1,0.00738,0.02682,-0.02092*
1,1,0.00738,-0.02682,-0.02092*
1,1,0.00738,-0.02682,0.02092*
1,1,0.00738,0.02682,0.02092*
%
%ADD31ROUNDEDRECTD31*%
G04:AMPARAMS|DCode=32|XSize=61.02mil|YSize=49.21mil|CornerRadius=3.69mil|HoleSize=0mil|Usage=FLASHONLY|Rotation=270.000|XOffset=0mil|YOffset=0mil|HoleType=Round|Shape=RoundedRectangle|*
%AMROUNDEDRECTD32*
21,1,0.06102,0.04183,0,0,270.0*
21,1,0.05364,0.04921,0,0,270.0*
1,1,0.00738,-0.02092,-0.02682*
1,1,0.00738,-0.02092,0.02682*
1,1,0.00738,0.02092,0.02682*
1,1,0.00738,0.02092,-0.02682*
%
%ADD32ROUNDEDRECTD32*%
%ADD33R,0.02362X0.07756*%
%ADD34R,0.07756X0.02362*%
%ADD35R,0.01890X0.01575*%
G04:AMPARAMS|DCode=36|XSize=59.06mil|YSize=47.24mil|CornerRadius=3.54mil|HoleSize=0mil|Usage=FLASHONLY|Rotation=0.000|XOffset=0mil|YOffset=0mil|HoleType=Round|Shape=RoundedRectangle|*
%AMROUNDEDRECTD36*
21,1,0.05906,0.04016,0,0,0.0*
21,1,0.05197,0.04724,0,0,0.0*
1,1,0.00709,0.02598,-0.02008*
1,1,0.00709,-0.02598,-0.02008*
1,1,0.00709,-0.02598,0.02008*
1,1,0.00709,0.02598,0.02008*
%
%ADD36ROUNDEDRECTD36*%
%ADD37R,0.12402X0.06299*%
%ADD38C,0.01500*%
%ADD39C,0.02000*%
%ADD40C,0.07677*%
%ADD41R,0.07677X0.07677*%
%ADD42R,0.07677X0.07677*%
%ADD43C,0.06890*%
%ADD44C,0.06000*%
%ADD45C,0.02756*%
%ADD46C,0.03543*%
G36*
X649606Y503937D02*
Y295276D01*
X645669Y291339D01*
X358268D01*
X354331Y295276D01*
Y503937D01*
X358268Y507874D01*
X645669D01*
X649606Y503937D01*
D02*
G37*
%LPC*%
G36*
X535433Y488042D02*
X534248Y487886D01*
X533144Y487429D01*
X532196Y486701D01*
X531469Y485753D01*
X531402Y485592D01*
X519421D01*
Y486260D01*
X519340Y486671D01*
X519107Y487020D01*
X518758Y487253D01*
X518347Y487335D01*
X513150D01*
X512738Y487253D01*
X512390Y487020D01*
X512156Y486671D01*
X512075Y486260D01*
Y482244D01*
X512156Y481833D01*
X512390Y481484D01*
X512738Y481251D01*
X513150Y481169D01*
X518347D01*
X518758Y481251D01*
X519107Y481484D01*
X519340Y481833D01*
X519398Y482125D01*
X531075D01*
X531469Y481176D01*
X532196Y480228D01*
X533144Y479500D01*
X534248Y479043D01*
X535433Y478887D01*
X536618Y479043D01*
X537722Y479500D01*
X538670Y480228D01*
X539397Y481176D01*
X539855Y482280D01*
X540011Y483465D01*
X539855Y484649D01*
X539397Y485753D01*
X538670Y486701D01*
X537722Y487429D01*
X536618Y487886D01*
X535433Y488042D01*
D02*
G37*
G36*
X425197Y488042D02*
X424012Y487886D01*
X422908Y487429D01*
X421960Y486701D01*
X421232Y485753D01*
X420791Y484688D01*
X405248D01*
Y485472D01*
X405166Y485884D01*
X404933Y486233D01*
X404585Y486466D01*
X404173Y486547D01*
X398976D01*
X398565Y486466D01*
X398216Y486233D01*
X397983Y485884D01*
X397901Y485472D01*
Y481457D01*
X397983Y481045D01*
X398216Y480697D01*
X398565Y480464D01*
X398976Y480382D01*
X404173D01*
X404585Y480464D01*
X404933Y480697D01*
X405166Y481045D01*
X405248Y481457D01*
Y482241D01*
X420791D01*
X421232Y481176D01*
X421960Y480228D01*
X422908Y479500D01*
X424012Y479043D01*
X425197Y478887D01*
X426382Y479043D01*
X427486Y479500D01*
X428434Y480228D01*
X429161Y481176D01*
X429619Y482280D01*
X429775Y483465D01*
X429619Y484649D01*
X429161Y485753D01*
X428434Y486701D01*
X427486Y487429D01*
X426382Y487886D01*
X425197Y488042D01*
D02*
G37*
G36*
X554051Y488303D02*
X549813D01*
Y484064D01*
X554051D01*
Y488303D01*
D02*
G37*
G36*
X548613D02*
X544374D01*
Y484064D01*
X548613D01*
Y488303D01*
D02*
G37*
G36*
X443515Y488003D02*
X434438D01*
Y478926D01*
X443515D01*
Y482241D01*
X462114D01*
X462156Y482030D01*
X462390Y481681D01*
X462738Y481448D01*
X463150Y481366D01*
X468347D01*
X468758Y481448D01*
X469107Y481681D01*
X469340Y482030D01*
X469421Y482441D01*
Y486457D01*
X469340Y486868D01*
X469107Y487217D01*
X468758Y487450D01*
X468347Y487532D01*
X463150D01*
X462738Y487450D01*
X462390Y487217D01*
X462156Y486868D01*
X462075Y486457D01*
Y484688D01*
X443515D01*
Y488003D01*
D02*
G37*
G36*
X629921Y495420D02*
X628511Y495281D01*
X627154Y494869D01*
X625904Y494201D01*
X624808Y493302D01*
X623909Y492206D01*
X623241Y490956D01*
X622829Y489600D01*
X622690Y488189D01*
X622829Y486778D01*
X623241Y485422D01*
X623909Y484172D01*
X624808Y483076D01*
X625904Y482177D01*
X627154Y481508D01*
X628511Y481097D01*
X629921Y480958D01*
X631332Y481097D01*
X632688Y481508D01*
X633939Y482177D01*
X635034Y483076D01*
X635933Y484172D01*
X636602Y485422D01*
X637013Y486778D01*
X637152Y488189D01*
X637013Y489600D01*
X636602Y490956D01*
X635933Y492206D01*
X635034Y493302D01*
X633939Y494201D01*
X632688Y494869D01*
X631332Y495281D01*
X629921Y495420D01*
D02*
G37*
G36*
X374016D02*
X372605Y495281D01*
X371249Y494869D01*
X369999Y494201D01*
X368903Y493302D01*
X368004Y492206D01*
X367335Y490956D01*
X366924Y489600D01*
X366785Y488189D01*
X366924Y486778D01*
X367335Y485422D01*
X368004Y484172D01*
X368903Y483076D01*
X369999Y482177D01*
X371249Y481508D01*
X372605Y481097D01*
X374016Y480958D01*
X375426Y481097D01*
X376783Y481508D01*
X378033Y482177D01*
X379129Y483076D01*
X380028Y484172D01*
X380696Y485422D01*
X381108Y486778D01*
X381247Y488189D01*
X381108Y489600D01*
X380696Y490956D01*
X380028Y492206D01*
X379129Y493302D01*
X378033Y494201D01*
X376783Y494869D01*
X375426Y495281D01*
X374016Y495420D01*
D02*
G37*
G36*
X554051Y482865D02*
X549813D01*
Y478626D01*
X554051D01*
Y482865D01*
D02*
G37*
G36*
X548613D02*
X544374D01*
Y478626D01*
X548613D01*
Y482865D01*
D02*
G37*
G36*
X472890Y457102D02*
X471545D01*
Y455915D01*
X472890D01*
Y457102D01*
D02*
G37*
G36*
X470345D02*
X469000D01*
Y455915D01*
X470345D01*
Y457102D01*
D02*
G37*
G36*
X512496D02*
X511151D01*
Y455915D01*
X512496D01*
Y457102D01*
D02*
G37*
G36*
X509951D02*
X508606D01*
Y455915D01*
X509951D01*
Y457102D01*
D02*
G37*
G36*
X512496Y454715D02*
X511151D01*
Y453527D01*
X512496D01*
Y454715D01*
D02*
G37*
G36*
X509951D02*
X508606D01*
Y453527D01*
X509951D01*
Y454715D01*
D02*
G37*
G36*
X472890Y454715D02*
X471545D01*
Y453527D01*
X472890D01*
Y454715D01*
D02*
G37*
G36*
X470345D02*
X469000D01*
Y453527D01*
X470345D01*
Y454715D01*
D02*
G37*
G36*
X395488Y450134D02*
X394301D01*
Y448789D01*
X395488D01*
Y450134D01*
D02*
G37*
G36*
X393101D02*
X391913D01*
Y448789D01*
X393101D01*
Y450134D01*
D02*
G37*
G36*
X632398Y452083D02*
X628159D01*
Y447844D01*
X632398D01*
Y452083D01*
D02*
G37*
G36*
X626959D02*
X622720D01*
Y447844D01*
X626959D01*
Y452083D01*
D02*
G37*
G36*
X395488Y447589D02*
X394301D01*
Y446244D01*
X395488D01*
Y447589D01*
D02*
G37*
G36*
X393101D02*
X391913D01*
Y446244D01*
X393101D01*
Y447589D01*
D02*
G37*
G36*
X414099Y448074D02*
X412017D01*
Y445187D01*
X415495D01*
Y446678D01*
X415389Y447212D01*
X415087Y447665D01*
X414634Y447968D01*
X414099Y448074D01*
D02*
G37*
G36*
X410817D02*
X408735D01*
X408201Y447968D01*
X407748Y447665D01*
X407446Y447212D01*
X407339Y446678D01*
Y445187D01*
X410817D01*
Y448074D01*
D02*
G37*
G36*
X632398Y446644D02*
X628159D01*
Y442406D01*
X632398D01*
Y446644D01*
D02*
G37*
G36*
X626959D02*
X622720D01*
Y442406D01*
X626959D01*
Y446644D01*
D02*
G37*
G36*
X415495Y443987D02*
X412017D01*
Y441099D01*
X414099D01*
X414634Y441205D01*
X415087Y441508D01*
X415389Y441961D01*
X415495Y442495D01*
Y443987D01*
D02*
G37*
G36*
X410817D02*
X407339D01*
Y442495D01*
X407446Y441961D01*
X407748Y441508D01*
X408201Y441205D01*
X408735Y441099D01*
X410817D01*
Y443987D01*
D02*
G37*
G36*
X459375Y439314D02*
X457884D01*
Y435836D01*
X460771D01*
Y437918D01*
X460665Y438452D01*
X460362Y438905D01*
X459909Y439208D01*
X459375Y439314D01*
D02*
G37*
G36*
X456683D02*
X455192D01*
X454658Y439208D01*
X454205Y438905D01*
X453902Y438452D01*
X453796Y437918D01*
Y435836D01*
X456683D01*
Y439314D01*
D02*
G37*
G36*
X526796Y439314D02*
X525305D01*
Y435836D01*
X528192D01*
Y437918D01*
X528086Y438452D01*
X527783Y438905D01*
X527330Y439208D01*
X526796Y439314D01*
D02*
G37*
G36*
X524105D02*
X522613D01*
X522079Y439208D01*
X521626Y438905D01*
X521323Y438452D01*
X521217Y437918D01*
Y435836D01*
X524105D01*
Y439314D01*
D02*
G37*
G36*
X460771Y434636D02*
X457884D01*
Y431158D01*
X459375D01*
X459909Y431264D01*
X460362Y431567D01*
X460665Y432020D01*
X460771Y432554D01*
Y434636D01*
D02*
G37*
G36*
X456683D02*
X453796D01*
Y432554D01*
X453902Y432020D01*
X454205Y431567D01*
X454658Y431264D01*
X455192Y431158D01*
X456683D01*
Y434636D01*
D02*
G37*
G36*
X528192Y434636D02*
X525305D01*
Y431158D01*
X526796D01*
X527330Y431264D01*
X527783Y431567D01*
X528086Y432020D01*
X528192Y432554D01*
Y434636D01*
D02*
G37*
G36*
X524105D02*
X521217D01*
Y432554D01*
X521323Y432020D01*
X521626Y431567D01*
X522079Y431264D01*
X522613Y431158D01*
X524105D01*
Y434636D01*
D02*
G37*
G36*
X468347Y479264D02*
X463150D01*
X462738Y479182D01*
X462390Y478949D01*
X462156Y478600D01*
X462075Y478189D01*
Y474173D01*
X462156Y473762D01*
X462390Y473413D01*
X462738Y473180D01*
X463150Y473098D01*
X464525D01*
Y456802D01*
X464103D01*
Y453827D01*
X464525D01*
Y439008D01*
X463657D01*
X463239Y438925D01*
X462886Y438689D01*
X462649Y438336D01*
X462567Y437918D01*
Y432554D01*
X462649Y432137D01*
X462886Y431783D01*
X463239Y431547D01*
X463657Y431464D01*
X464525D01*
Y417748D01*
X464250Y417565D01*
X463791Y416878D01*
X463629Y416067D01*
X463791Y415256D01*
X464250Y414569D01*
X464937Y414110D01*
X465748Y413948D01*
X466559Y414110D01*
X467246Y414569D01*
X467705Y415256D01*
X467867Y416067D01*
X467705Y416878D01*
X467246Y417565D01*
X466972Y417748D01*
Y431464D01*
X467840D01*
X468257Y431547D01*
X468610Y431783D01*
X468847Y432137D01*
X468930Y432554D01*
Y437918D01*
X468847Y438336D01*
X468610Y438689D01*
X468257Y438925D01*
X467840Y439008D01*
X466972D01*
Y453827D01*
X467393D01*
Y456802D01*
X466972D01*
Y473098D01*
X468347D01*
X468758Y473180D01*
X469107Y473413D01*
X469340Y473762D01*
X469421Y474173D01*
Y478189D01*
X469340Y478600D01*
X469107Y478949D01*
X468758Y479182D01*
X468347Y479264D01*
D02*
G37*
G36*
X429524Y416280D02*
X427943D01*
Y412002D01*
X429524D01*
Y416280D01*
D02*
G37*
G36*
X424524D02*
X422942D01*
Y412002D01*
X424524D01*
Y416280D01*
D02*
G37*
G36*
X419524D02*
X417942D01*
Y412002D01*
X419524D01*
Y416280D01*
D02*
G37*
G36*
X426743D02*
X425161D01*
Y412002D01*
X426743D01*
Y416280D01*
D02*
G37*
G36*
X421742D02*
X420161D01*
Y412002D01*
X421742D01*
Y416280D01*
D02*
G37*
G36*
X416743D02*
X415161D01*
Y412002D01*
X416743D01*
Y416280D01*
D02*
G37*
G36*
X454224Y415979D02*
X450461D01*
Y406824D01*
X454224D01*
Y415979D01*
D02*
G37*
G36*
X449224D02*
X445461D01*
Y406824D01*
X449224D01*
Y415979D01*
D02*
G37*
G36*
X439224D02*
X435461D01*
Y406824D01*
X439224D01*
Y415979D01*
D02*
G37*
G36*
X434224D02*
X430461D01*
Y406824D01*
X434224D01*
Y415979D01*
D02*
G37*
G36*
X429524Y410802D02*
X427943D01*
Y406524D01*
X429524D01*
Y410802D01*
D02*
G37*
G36*
X426743D02*
X425161D01*
Y406524D01*
X426743D01*
Y410802D01*
D02*
G37*
G36*
X424524D02*
X422942D01*
Y406524D01*
X424524D01*
Y410802D01*
D02*
G37*
G36*
X421742D02*
X420161D01*
Y406524D01*
X421742D01*
Y410802D01*
D02*
G37*
G36*
X419524D02*
X417942D01*
Y406524D01*
X419524D01*
Y410802D01*
D02*
G37*
G36*
X416743D02*
X415161D01*
Y406524D01*
X416743D01*
Y410802D01*
D02*
G37*
G36*
X394304Y405741D02*
X388940D01*
X388523Y405658D01*
X388169Y405421D01*
X387933Y405068D01*
X387850Y404651D01*
Y403783D01*
X377689D01*
Y404567D01*
X377607Y404978D01*
X377374Y405327D01*
X377026Y405560D01*
X376614Y405642D01*
X371417D01*
X371006Y405560D01*
X370657Y405327D01*
X370424Y404978D01*
X370342Y404567D01*
Y403783D01*
X367559D01*
X367091Y403689D01*
X366694Y403424D01*
X364135Y400865D01*
X363870Y400468D01*
X363776Y400000D01*
Y339472D01*
X363870Y339004D01*
X364135Y338607D01*
X405395Y297347D01*
X405791Y297082D01*
X406260Y296989D01*
X598740D01*
X599209Y297082D01*
X599606Y297347D01*
X614152Y311894D01*
X614418Y312291D01*
X614511Y312760D01*
Y337781D01*
X618200Y341469D01*
X632241D01*
X632600Y340603D01*
X633264Y339737D01*
X634130Y339072D01*
X635139Y338655D01*
X636221Y338512D01*
X637302Y338655D01*
X638311Y339072D01*
X639177Y339737D01*
X639841Y340603D01*
X640259Y341611D01*
X640401Y342693D01*
X640259Y343775D01*
X639841Y344783D01*
X639177Y345649D01*
X638311Y346314D01*
X637302Y346731D01*
X636221Y346874D01*
X635139Y346731D01*
X634130Y346314D01*
X633264Y345649D01*
X632600Y344783D01*
X632241Y343916D01*
X617693D01*
X617225Y343823D01*
X616828Y343558D01*
X613186Y339916D01*
X612723Y340107D01*
Y345993D01*
X618200Y351469D01*
X632241D01*
X632600Y350603D01*
X633264Y349737D01*
X634130Y349072D01*
X635139Y348655D01*
X636221Y348512D01*
X637302Y348655D01*
X638311Y349072D01*
X639177Y349737D01*
X639841Y350603D01*
X640259Y351611D01*
X640401Y352693D01*
X640259Y353775D01*
X639841Y354783D01*
X639177Y355649D01*
X638311Y356313D01*
X637302Y356731D01*
X636221Y356874D01*
X635139Y356731D01*
X634130Y356313D01*
X633264Y355649D01*
X632600Y354783D01*
X632241Y353916D01*
X617693D01*
X617225Y353823D01*
X616828Y353558D01*
X610635Y347365D01*
X610370Y346968D01*
X610277Y346500D01*
Y314007D01*
X597493Y301223D01*
X407507D01*
X385723Y323007D01*
Y337706D01*
X387449Y339431D01*
X387949Y339224D01*
Y338874D01*
X388031Y338463D01*
X388264Y338114D01*
X388612Y337881D01*
X389024Y337799D01*
X394220D01*
X394632Y337881D01*
X394981Y338114D01*
X395214Y338463D01*
X395296Y338874D01*
Y339757D01*
X405850D01*
Y338889D01*
X405933Y338472D01*
X406169Y338118D01*
X406523Y337882D01*
X406940Y337799D01*
X412304D01*
X412721Y337882D01*
X413075Y338118D01*
X413311Y338472D01*
X413394Y338889D01*
Y339757D01*
X420854D01*
X421323Y339850D01*
X421720Y340115D01*
X425881Y344276D01*
X437678D01*
Y343619D01*
X446834D01*
Y347381D01*
X437678D01*
Y346724D01*
X425374D01*
X424906Y346630D01*
X424509Y346365D01*
X420348Y342204D01*
X413394D01*
Y343072D01*
X413311Y343489D01*
X413075Y343843D01*
X412721Y344079D01*
X412304Y344162D01*
X406940D01*
X406523Y344079D01*
X406169Y343843D01*
X405933Y343489D01*
X405850Y343072D01*
Y342204D01*
X395296D01*
Y342890D01*
X395214Y343301D01*
X394981Y343650D01*
X394632Y343883D01*
X394220Y343965D01*
X389024D01*
X388612Y343883D01*
X388264Y343650D01*
X388031Y343301D01*
X387949Y342890D01*
Y342105D01*
X387169D01*
X386701Y342012D01*
X386304Y341747D01*
X383635Y339078D01*
X383370Y338681D01*
X383277Y338213D01*
Y323579D01*
X382815Y323388D01*
X366224Y339979D01*
Y399493D01*
X368066Y401336D01*
X370342D01*
Y400551D01*
X370424Y400140D01*
X370657Y399791D01*
X371006Y399558D01*
X371417Y399476D01*
X376614D01*
X377026Y399558D01*
X377374Y399791D01*
X377607Y400140D01*
X377689Y400551D01*
Y401336D01*
X387850D01*
Y400467D01*
X387933Y400050D01*
X388169Y399697D01*
X388523Y399461D01*
X388940Y399377D01*
X394304D01*
X394721Y399461D01*
X394986Y399638D01*
X397899Y396725D01*
Y385682D01*
X397624Y385498D01*
X397165Y384811D01*
X397003Y384000D01*
X397165Y383189D01*
X397624Y382502D01*
X398311Y382043D01*
X399122Y381881D01*
X399933Y382043D01*
X400620Y382502D01*
X401079Y383189D01*
X401241Y384000D01*
X401079Y384811D01*
X400620Y385498D01*
X400346Y385682D01*
Y397232D01*
X400252Y397700D01*
X399987Y398097D01*
X395394Y402690D01*
Y404651D01*
X395311Y405068D01*
X395075Y405421D01*
X394721Y405658D01*
X394304Y405741D01*
D02*
G37*
G36*
X570193Y406331D02*
X563592D01*
Y402781D01*
X570193D01*
Y406331D01*
D02*
G37*
G36*
X562392D02*
X555791D01*
Y402781D01*
X562392D01*
Y406331D01*
D02*
G37*
G36*
X511531Y406118D02*
X504931D01*
Y402568D01*
X511531D01*
Y406118D01*
D02*
G37*
G36*
X503731D02*
X497130D01*
Y402568D01*
X503731D01*
Y406118D01*
D02*
G37*
G36*
X468430Y403783D02*
X466348D01*
Y400895D01*
X469826D01*
Y402387D01*
X469720Y402921D01*
X469417Y403374D01*
X468964Y403677D01*
X468430Y403783D01*
D02*
G37*
G36*
X465148D02*
X463066D01*
X462532Y403677D01*
X462079Y403374D01*
X461776Y402921D01*
X461670Y402387D01*
Y400895D01*
X465148D01*
Y403783D01*
D02*
G37*
G36*
X606500Y418619D02*
X605689Y418457D01*
X605002Y417998D01*
X604543Y417311D01*
X604381Y416500D01*
X604543Y415689D01*
X605002Y415002D01*
X605689Y414543D01*
X606500Y414381D01*
X606824Y414446D01*
X619442Y401828D01*
X619839Y401562D01*
X620307Y401469D01*
X632241D01*
X632600Y400603D01*
X633264Y399737D01*
X634130Y399072D01*
X635139Y398655D01*
X636221Y398512D01*
X637302Y398655D01*
X638311Y399072D01*
X639177Y399737D01*
X639841Y400603D01*
X640259Y401611D01*
X640401Y402693D01*
X640259Y403775D01*
X639841Y404783D01*
X639177Y405649D01*
X638311Y406314D01*
X637302Y406731D01*
X636221Y406874D01*
X635139Y406731D01*
X634130Y406314D01*
X633264Y405649D01*
X632600Y404783D01*
X632241Y403916D01*
X620814D01*
X608554Y416176D01*
X608619Y416500D01*
X608457Y417311D01*
X607998Y417998D01*
X607311Y418457D01*
X606500Y418619D01*
D02*
G37*
G36*
X570193Y401581D02*
X563592D01*
Y398031D01*
X570193D01*
Y401581D01*
D02*
G37*
G36*
X562392D02*
X555791D01*
Y398031D01*
X562392D01*
Y401581D01*
D02*
G37*
G36*
X511531Y401369D02*
X504931D01*
Y397819D01*
X511531D01*
Y401369D01*
D02*
G37*
G36*
X503731D02*
X497130D01*
Y397819D01*
X503731D01*
Y401369D01*
D02*
G37*
G36*
X469826Y399695D02*
X466348D01*
Y396808D01*
X468430D01*
X468964Y396914D01*
X469417Y397217D01*
X469720Y397670D01*
X469826Y398204D01*
Y399695D01*
D02*
G37*
G36*
X465148D02*
X461670D01*
Y398204D01*
X461776Y397670D01*
X462079Y397217D01*
X462532Y396914D01*
X463066Y396808D01*
X465148D01*
Y399695D01*
D02*
G37*
G36*
X376614Y397680D02*
X374616D01*
Y394891D01*
X377995D01*
Y396299D01*
X377890Y396828D01*
X377591Y397276D01*
X377143Y397575D01*
X376614Y397680D01*
D02*
G37*
G36*
X373416D02*
X371417D01*
X370889Y397575D01*
X370441Y397276D01*
X370142Y396828D01*
X370037Y396299D01*
Y394891D01*
X373416D01*
Y397680D01*
D02*
G37*
G36*
X394304Y397582D02*
X392222D01*
Y394694D01*
X395700D01*
Y396186D01*
X395594Y396720D01*
X395291Y397173D01*
X394838Y397476D01*
X394304Y397582D01*
D02*
G37*
G36*
X391022D02*
X388940D01*
X388406Y397476D01*
X387953Y397173D01*
X387650Y396720D01*
X387544Y396186D01*
Y394694D01*
X391022D01*
Y397582D01*
D02*
G37*
G36*
X424524Y396791D02*
X422942D01*
Y392513D01*
X424524D01*
Y396791D01*
D02*
G37*
G36*
X419524D02*
X417942D01*
Y392513D01*
X419524D01*
Y396791D01*
D02*
G37*
G36*
X421742D02*
X420161D01*
Y392513D01*
X421742D01*
Y396791D01*
D02*
G37*
G36*
X416743D02*
X415161D01*
Y392513D01*
X416743D01*
Y396791D01*
D02*
G37*
G36*
X377995Y393691D02*
X374616D01*
Y390903D01*
X376614D01*
X377143Y391008D01*
X377591Y391307D01*
X377890Y391755D01*
X377995Y392284D01*
Y393691D01*
D02*
G37*
G36*
X373416D02*
X370037D01*
Y392284D01*
X370142Y391755D01*
X370441Y391307D01*
X370889Y391008D01*
X371417Y390903D01*
X373416D01*
Y393691D01*
D02*
G37*
G36*
X395700Y393495D02*
X392222D01*
Y390607D01*
X394304D01*
X394838Y390713D01*
X395291Y391016D01*
X395594Y391469D01*
X395700Y392003D01*
Y393495D01*
D02*
G37*
G36*
X391022D02*
X387544D01*
Y392003D01*
X387650Y391469D01*
X387953Y391016D01*
X388406Y390713D01*
X388940Y390607D01*
X391022D01*
Y393495D01*
D02*
G37*
G36*
X636221Y396874D02*
X635139Y396731D01*
X634130Y396314D01*
X633264Y395649D01*
X632600Y394783D01*
X632241Y393916D01*
X605193D01*
X604725Y393823D01*
X604328Y393558D01*
X588993Y378223D01*
X562878D01*
X562410Y378130D01*
X562013Y377865D01*
X557635Y373487D01*
X557370Y373090D01*
X557276Y372622D01*
Y360507D01*
X544324Y347554D01*
X544000Y347619D01*
X543189Y347457D01*
X542502Y346998D01*
X542043Y346311D01*
X541881Y345500D01*
X542043Y344689D01*
X542502Y344002D01*
X543189Y343543D01*
X544000Y343381D01*
X544811Y343543D01*
X545498Y344002D01*
X545957Y344689D01*
X546119Y345500D01*
X546054Y345824D01*
X559365Y359135D01*
X559630Y359532D01*
X559724Y360000D01*
Y372115D01*
X563385Y375777D01*
X589500D01*
X589968Y375870D01*
X590365Y376135D01*
X605700Y391469D01*
X632241D01*
X632600Y390603D01*
X633264Y389737D01*
X634130Y389072D01*
X635139Y388655D01*
X636221Y388512D01*
X637302Y388655D01*
X638311Y389072D01*
X639177Y389737D01*
X639841Y390603D01*
X640259Y391611D01*
X640401Y392693D01*
X640259Y393775D01*
X639841Y394783D01*
X639177Y395649D01*
X638311Y396314D01*
X637302Y396731D01*
X636221Y396874D01*
D02*
G37*
G36*
X434224Y396491D02*
X430461D01*
Y387335D01*
X434224D01*
Y396491D01*
D02*
G37*
G36*
X444524Y391313D02*
X442942D01*
Y387035D01*
X444524D01*
Y391313D01*
D02*
G37*
G36*
X441743D02*
X440161D01*
Y387035D01*
X441743D01*
Y391313D01*
D02*
G37*
G36*
X424524D02*
X422942D01*
Y387035D01*
X424524D01*
Y391313D01*
D02*
G37*
G36*
X421742D02*
X420161D01*
Y387035D01*
X421742D01*
Y391313D01*
D02*
G37*
G36*
X419524D02*
X417942D01*
Y387035D01*
X419524D01*
Y391313D01*
D02*
G37*
G36*
X416743D02*
X415161D01*
Y387035D01*
X416743D01*
Y391313D01*
D02*
G37*
G36*
X518347Y479067D02*
X513150D01*
X512738Y478985D01*
X512390Y478752D01*
X512156Y478404D01*
X512075Y477992D01*
Y473976D01*
X512156Y473565D01*
X512390Y473216D01*
X512738Y472983D01*
X513150Y472901D01*
X514261D01*
Y456802D01*
X514103D01*
Y453827D01*
X514261D01*
Y439008D01*
X514149D01*
X513731Y438925D01*
X513378Y438689D01*
X513142Y438335D01*
X513059Y437918D01*
Y432554D01*
X513142Y432137D01*
X513378Y431783D01*
X513731Y431547D01*
X514149Y431464D01*
X514507D01*
Y409842D01*
X514639Y409179D01*
X515015Y408617D01*
X520265Y403367D01*
Y398119D01*
X534066D01*
Y400235D01*
X535968D01*
X536632Y400367D01*
X537194Y400743D01*
X583632Y447180D01*
X584094Y446989D01*
Y406031D01*
X578926D01*
Y398331D01*
X583267D01*
Y391718D01*
X574282Y382733D01*
X477887D01*
X469520Y391100D01*
Y393922D01*
X469437Y394339D01*
X469201Y394693D01*
X468847Y394929D01*
X468430Y395012D01*
X463066D01*
X462649Y394929D01*
X462295Y394693D01*
X462059Y394339D01*
X461976Y393922D01*
Y393564D01*
X454224D01*
Y396311D01*
X454224Y396478D01*
X454339Y396663D01*
X454487Y396882D01*
X454865Y397135D01*
X458149Y400418D01*
X458414Y400815D01*
X458507Y401284D01*
Y417216D01*
X458414Y417685D01*
X458149Y418082D01*
X422314Y453916D01*
X421917Y454182D01*
X421449Y454275D01*
X415189D01*
Y455143D01*
X415106Y455560D01*
X414870Y455913D01*
X414517Y456150D01*
X414099Y456233D01*
X408735D01*
X408318Y456150D01*
X407965Y455913D01*
X407728Y455560D01*
X407645Y455143D01*
Y454609D01*
X395188D01*
Y455031D01*
X394924D01*
Y466816D01*
X399987Y471879D01*
X400144Y472114D01*
X404173D01*
X404585Y472196D01*
X404933Y472429D01*
X405166Y472778D01*
X405248Y473189D01*
Y477205D01*
X405166Y477616D01*
X404933Y477965D01*
X404585Y478198D01*
X404173Y478280D01*
X398976D01*
X398565Y478198D01*
X398216Y477965D01*
X397983Y477616D01*
X397901Y477205D01*
Y473349D01*
X397899Y473335D01*
Y473251D01*
X392836Y468188D01*
X392570Y467791D01*
X392477Y467323D01*
Y455031D01*
X392213D01*
Y451741D01*
X395188D01*
Y452162D01*
X407645D01*
Y450960D01*
X407728Y450542D01*
X407965Y450189D01*
X408318Y449953D01*
X408735Y449870D01*
X414099D01*
X414517Y449953D01*
X414870Y450189D01*
X415106Y450542D01*
X415189Y450960D01*
Y451828D01*
X420942D01*
X456060Y416710D01*
Y401790D01*
X453493Y399223D01*
X440732D01*
X440264Y399130D01*
X439867Y398865D01*
X437493Y396491D01*
X435461D01*
Y387335D01*
X439224D01*
Y394761D01*
X439700Y395237D01*
X440161Y395046D01*
Y392513D01*
X442343D01*
X444524D01*
Y396777D01*
X445080D01*
X445461Y396491D01*
X445461Y396276D01*
Y387335D01*
X449224D01*
Y396276D01*
X449224Y396491D01*
X449606Y396777D01*
X450079D01*
X450461Y396491D01*
X450461Y396276D01*
Y387335D01*
X454224D01*
Y390097D01*
X461976D01*
Y389739D01*
X462059Y389322D01*
X462295Y388968D01*
X462649Y388732D01*
X463066Y388649D01*
X467069D01*
X472523Y383195D01*
X472331Y382733D01*
X456000D01*
X455337Y382601D01*
X454774Y382226D01*
X451117Y378568D01*
X450741Y378006D01*
X450609Y377343D01*
Y315084D01*
X445920Y310395D01*
X443414D01*
Y311344D01*
X443331Y311761D01*
X443095Y312114D01*
X442741Y312351D01*
X442324Y312434D01*
X441966D01*
Y318496D01*
X442075Y318586D01*
X442242Y318619D01*
X446834D01*
Y322381D01*
X437678D01*
Y318619D01*
X438499D01*
Y312434D01*
X438141D01*
X437724Y312351D01*
X437370Y312114D01*
X437134Y311761D01*
X437051Y311344D01*
Y305979D01*
X437134Y305562D01*
X437370Y305209D01*
X437724Y304972D01*
X438141Y304889D01*
X442324D01*
X442741Y304972D01*
X443095Y305209D01*
X443331Y305562D01*
X443414Y305979D01*
Y306928D01*
X446638D01*
X447301Y307060D01*
X447863Y307436D01*
X453568Y313141D01*
X453944Y313703D01*
X454076Y314366D01*
X454076Y314366D01*
Y376625D01*
X456718Y379267D01*
X550162D01*
X550353Y378805D01*
X548774Y377226D01*
X548399Y376663D01*
X548267Y376000D01*
Y359718D01*
X545881Y357332D01*
X543772D01*
Y357690D01*
X543689Y358107D01*
X543453Y358461D01*
X543099Y358697D01*
X542682Y358780D01*
X537318D01*
X536901Y358697D01*
X536547Y358461D01*
X536311Y358107D01*
X536228Y357690D01*
Y357282D01*
X530066D01*
Y357381D01*
X520910D01*
Y355108D01*
X520410Y354860D01*
X520224Y355002D01*
Y367818D01*
X520498Y368002D01*
X520957Y368689D01*
X521119Y369500D01*
X520957Y370311D01*
X520498Y370998D01*
X519811Y371457D01*
X519000Y371619D01*
X518189Y371457D01*
X517502Y370998D01*
X517043Y370311D01*
X516881Y369500D01*
X517043Y368689D01*
X517502Y368002D01*
X517776Y367818D01*
Y365074D01*
X517276Y364807D01*
X517051Y364957D01*
X516240Y365119D01*
X515429Y364957D01*
X514742Y364498D01*
X514283Y363811D01*
X514121Y363000D01*
X514283Y362189D01*
X514742Y361502D01*
X515017Y361318D01*
Y360367D01*
X514555Y360176D01*
X511775Y362956D01*
Y364318D01*
X512049Y364502D01*
X512509Y365189D01*
X512670Y366000D01*
X512509Y366811D01*
X512049Y367498D01*
X511362Y367957D01*
X510551Y368119D01*
X509740Y367957D01*
X509053Y367498D01*
X508594Y366811D01*
X508432Y366000D01*
X508594Y365189D01*
X509053Y364502D01*
X509328Y364318D01*
Y362668D01*
X509076Y362327D01*
X508863Y362224D01*
X485000D01*
X484532Y362130D01*
X484135Y361865D01*
X477223Y354954D01*
X476878Y355041D01*
X476723Y355146D01*
Y367818D01*
X476998Y368002D01*
X477457Y368689D01*
X477619Y369500D01*
X477457Y370311D01*
X476998Y370998D01*
X476311Y371457D01*
X475500Y371619D01*
X474689Y371457D01*
X474002Y370998D01*
X473543Y370311D01*
X473381Y369500D01*
X473543Y368689D01*
X474002Y368002D01*
X474276Y367818D01*
Y348007D01*
X472993Y346724D01*
X466322D01*
Y347381D01*
X457166D01*
Y343619D01*
X466322D01*
Y344276D01*
X473500D01*
X473968Y344370D01*
X474365Y344635D01*
X476276Y346546D01*
X476622Y346460D01*
X476777Y346354D01*
Y345507D01*
X472993Y341723D01*
X466322D01*
Y342381D01*
X457166D01*
Y338619D01*
X466322D01*
Y339277D01*
X473500D01*
X473968Y339370D01*
X474365Y339635D01*
X478865Y344135D01*
X479130Y344532D01*
X479223Y345000D01*
Y353493D01*
X485507Y359776D01*
X508493D01*
X510389Y357881D01*
X510182Y357381D01*
X501422D01*
Y356723D01*
X491500D01*
X491032Y356630D01*
X490635Y356365D01*
X487135Y352865D01*
X486870Y352468D01*
X486776Y352000D01*
Y341507D01*
X476993Y331723D01*
X466322D01*
Y332381D01*
X457166D01*
Y328619D01*
X466322D01*
Y329276D01*
X477500D01*
X477968Y329370D01*
X478365Y329635D01*
X488865Y340135D01*
X489130Y340532D01*
X489223Y341000D01*
Y351493D01*
X492007Y354276D01*
X501422D01*
Y353619D01*
X510578D01*
Y356985D01*
X511078Y357192D01*
X511442Y356828D01*
Y345626D01*
X511535Y345158D01*
X511800Y344761D01*
X520910Y335651D01*
Y333619D01*
X530066D01*
Y337381D01*
X522641D01*
X521865Y338157D01*
X522056Y338619D01*
X530066D01*
Y342381D01*
X522641D01*
X521865Y343157D01*
X522056Y343619D01*
X530066D01*
Y347381D01*
X522641D01*
X521865Y348157D01*
X522056Y348619D01*
X530066D01*
Y352381D01*
X522641D01*
X521865Y353157D01*
X522056Y353619D01*
X530066D01*
Y353816D01*
X536228D01*
Y353507D01*
X536311Y353090D01*
X536547Y352736D01*
X536901Y352500D01*
X537318Y352417D01*
X542682D01*
X543099Y352500D01*
X543453Y352736D01*
X543689Y353090D01*
X543772Y353507D01*
Y353865D01*
X546598D01*
X547262Y353997D01*
X547824Y354373D01*
X551226Y357774D01*
X551601Y358337D01*
X551733Y359000D01*
Y375282D01*
X555718Y379267D01*
X575000D01*
X575663Y379399D01*
X576226Y379774D01*
X586226Y389774D01*
X586601Y390337D01*
X586733Y391000D01*
X586733Y391000D01*
Y398331D01*
X592728D01*
Y406031D01*
X587560D01*
Y451109D01*
X595742Y459290D01*
X623364D01*
X623595Y458735D01*
X624322Y457787D01*
X625270Y457059D01*
X626374Y456602D01*
X627559Y456446D01*
X628744Y456602D01*
X629848Y457059D01*
X630796Y457787D01*
X631524Y458735D01*
X631981Y459839D01*
X632137Y461024D01*
X631981Y462208D01*
X631524Y463312D01*
X630796Y464261D01*
X629848Y464988D01*
X628744Y465445D01*
X627559Y465601D01*
X626374Y465445D01*
X625270Y464988D01*
X624322Y464261D01*
X623595Y463312D01*
X623364Y462757D01*
X595024D01*
X595024Y462757D01*
X594360Y462625D01*
X593798Y462249D01*
X584601Y453052D01*
X535251Y403702D01*
X534066D01*
Y405818D01*
X522716D01*
X517974Y410561D01*
Y431464D01*
X518332D01*
X518749Y431547D01*
X519102Y431783D01*
X519339Y432137D01*
X519422Y432554D01*
Y437918D01*
X519339Y438335D01*
X519102Y438689D01*
X518749Y438925D01*
X518332Y439008D01*
X517727D01*
Y472901D01*
X518347D01*
X518758Y472983D01*
X519107Y473216D01*
X519340Y473565D01*
X519421Y473976D01*
Y477992D01*
X519340Y478404D01*
X519107Y478752D01*
X518758Y478985D01*
X518347Y479067D01*
D02*
G37*
G36*
X429224Y396491D02*
X425461D01*
Y387335D01*
X426376D01*
Y384582D01*
X426102Y384398D01*
X425643Y383711D01*
X425481Y382900D01*
X425643Y382089D01*
X426102Y381402D01*
X426789Y380943D01*
X427600Y380781D01*
X428411Y380943D01*
X429098Y381402D01*
X429557Y382089D01*
X429719Y382900D01*
X429557Y383711D01*
X429098Y384398D01*
X428824Y384582D01*
Y387335D01*
X429224D01*
Y396491D01*
D02*
G37*
G36*
X636221Y386874D02*
X635139Y386731D01*
X634130Y386314D01*
X633264Y385649D01*
X632600Y384783D01*
X632241Y383916D01*
X611268D01*
X610800Y383823D01*
X610403Y383558D01*
X592155Y365311D01*
X591767Y365629D01*
X591788Y365661D01*
X591893Y366189D01*
Y367597D01*
X588513D01*
Y364808D01*
X590512D01*
X591040Y364913D01*
X591072Y364934D01*
X591390Y364546D01*
X589856Y363012D01*
X585315D01*
X584904Y362930D01*
X584555Y362697D01*
X584322Y362348D01*
X584240Y361937D01*
Y361054D01*
X573686D01*
Y361922D01*
X573602Y362339D01*
X573366Y362693D01*
X573013Y362929D01*
X572596Y363012D01*
X567231D01*
X566814Y362929D01*
X566461Y362693D01*
X566224Y362339D01*
X566141Y361922D01*
Y358379D01*
X539485Y331723D01*
X530066D01*
Y332381D01*
X520910D01*
Y328619D01*
X530066D01*
Y329276D01*
X539992D01*
X540460Y329370D01*
X540857Y329635D01*
X567872Y356649D01*
X572596D01*
X573013Y356732D01*
X573366Y356968D01*
X573602Y357322D01*
X573686Y357739D01*
Y358607D01*
X584240D01*
Y357921D01*
X584322Y357510D01*
X584555Y357161D01*
X584904Y356928D01*
X585315Y356846D01*
X590512D01*
X590923Y356928D01*
X591272Y357161D01*
X591505Y357510D01*
X591587Y357921D01*
Y361282D01*
X611774Y381469D01*
X632241D01*
X632600Y380603D01*
X633264Y379737D01*
X634130Y379072D01*
X635139Y378655D01*
X636221Y378512D01*
X637302Y378655D01*
X638311Y379072D01*
X639177Y379737D01*
X639841Y380603D01*
X640259Y381611D01*
X640401Y382693D01*
X640259Y383775D01*
X639841Y384783D01*
X639177Y385649D01*
X638311Y386314D01*
X637302Y386731D01*
X636221Y386874D01*
D02*
G37*
G36*
X412340Y372157D02*
X410257D01*
Y369269D01*
X413735D01*
Y370761D01*
X413629Y371295D01*
X413327Y371748D01*
X412874Y372050D01*
X412340Y372157D01*
D02*
G37*
G36*
X409058D02*
X406975D01*
X406441Y372050D01*
X405988Y371748D01*
X405686Y371295D01*
X405580Y370761D01*
Y369269D01*
X409058D01*
Y372157D01*
D02*
G37*
G36*
X394256Y371861D02*
X392257D01*
Y369072D01*
X395637D01*
Y370480D01*
X395532Y371009D01*
X395232Y371457D01*
X394784Y371756D01*
X394256Y371861D01*
D02*
G37*
G36*
X391057D02*
X389059D01*
X388531Y371756D01*
X388083Y371457D01*
X387783Y371009D01*
X387678Y370480D01*
Y369072D01*
X391057D01*
Y371861D01*
D02*
G37*
G36*
X572596Y371783D02*
X570513D01*
Y368895D01*
X573991D01*
Y370387D01*
X573885Y370921D01*
X573583Y371374D01*
X573130Y371676D01*
X572596Y371783D01*
D02*
G37*
G36*
X569313D02*
X567231D01*
X566697Y371676D01*
X566244Y371374D01*
X565942Y370921D01*
X565835Y370387D01*
Y368895D01*
X569313D01*
Y371783D01*
D02*
G37*
G36*
X590512Y371586D02*
X588513D01*
Y368797D01*
X591893D01*
Y370205D01*
X591788Y370733D01*
X591488Y371181D01*
X591040Y371480D01*
X590512Y371586D01*
D02*
G37*
G36*
X587313D02*
X585315D01*
X584787Y371480D01*
X584339Y371181D01*
X584039Y370733D01*
X583934Y370205D01*
Y368797D01*
X587313D01*
Y371586D01*
D02*
G37*
G36*
X636221Y376874D02*
X635139Y376731D01*
X634130Y376313D01*
X633264Y375649D01*
X632600Y374783D01*
X632241Y373916D01*
X620193D01*
X619725Y373823D01*
X619328Y373558D01*
X597135Y351365D01*
X596870Y350968D01*
X596776Y350500D01*
Y343145D01*
X592155Y338523D01*
X591767Y338842D01*
X591788Y338873D01*
X591893Y339402D01*
Y340809D01*
X588513D01*
Y338021D01*
X590512D01*
X591040Y338126D01*
X591072Y338147D01*
X591390Y337758D01*
X589856Y336225D01*
X585315D01*
X584904Y336143D01*
X584555Y335910D01*
X584322Y335561D01*
X584240Y335150D01*
Y334365D01*
X573784D01*
Y335135D01*
X573701Y335552D01*
X573465Y335906D01*
X573111Y336142D01*
X572694Y336225D01*
X567330D01*
X566913Y336142D01*
X566559Y335906D01*
X566323Y335552D01*
X566240Y335135D01*
Y331592D01*
X561371Y326724D01*
X530066D01*
Y327381D01*
X520910D01*
Y323619D01*
X530066D01*
Y324276D01*
X561878D01*
X562346Y324370D01*
X562743Y324635D01*
X567970Y329862D01*
X572694D01*
X573111Y329945D01*
X573465Y330181D01*
X573701Y330535D01*
X573784Y330952D01*
Y331918D01*
X584240D01*
Y331134D01*
X584322Y330722D01*
X584555Y330374D01*
X584904Y330141D01*
X585315Y330059D01*
X590512D01*
X590923Y330141D01*
X591272Y330374D01*
X591505Y330722D01*
X591587Y331134D01*
Y334494D01*
X598865Y341773D01*
X599130Y342170D01*
X599224Y342638D01*
Y349993D01*
X620700Y371469D01*
X632241D01*
X632600Y370603D01*
X633264Y369737D01*
X634130Y369072D01*
X635139Y368655D01*
X636221Y368512D01*
X637302Y368655D01*
X638311Y369072D01*
X639177Y369737D01*
X639841Y370603D01*
X640259Y371611D01*
X640401Y372693D01*
X640259Y373775D01*
X639841Y374783D01*
X639177Y375649D01*
X638311Y376313D01*
X637302Y376731D01*
X636221Y376874D01*
D02*
G37*
G36*
X413735Y368069D02*
X410257D01*
Y365182D01*
X412340D01*
X412874Y365288D01*
X413327Y365591D01*
X413629Y366044D01*
X413735Y366578D01*
Y368069D01*
D02*
G37*
G36*
X409058D02*
X405580D01*
Y366578D01*
X405686Y366044D01*
X405988Y365591D01*
X406441Y365288D01*
X406975Y365182D01*
X409058D01*
Y368069D01*
D02*
G37*
G36*
X395637Y367872D02*
X392257D01*
Y365084D01*
X394256D01*
X394784Y365189D01*
X395232Y365488D01*
X395532Y365936D01*
X395637Y366465D01*
Y367872D01*
D02*
G37*
G36*
X391057D02*
X387678D01*
Y366465D01*
X387783Y365936D01*
X388083Y365488D01*
X388531Y365189D01*
X389059Y365084D01*
X391057D01*
Y367872D01*
D02*
G37*
G36*
X587313Y367597D02*
X583934D01*
Y366189D01*
X584039Y365661D01*
X584339Y365213D01*
X584787Y364913D01*
X585315Y364808D01*
X587313D01*
Y367597D01*
D02*
G37*
G36*
X573991Y367695D02*
X570513D01*
Y364808D01*
X572596D01*
X573130Y364914D01*
X573583Y365217D01*
X573885Y365669D01*
X573991Y366204D01*
Y367695D01*
D02*
G37*
G36*
X569313D02*
X565835D01*
Y366204D01*
X565942Y365669D01*
X566244Y365217D01*
X566697Y364914D01*
X567231Y364808D01*
X569313D01*
Y367695D01*
D02*
G37*
G36*
X542682Y367550D02*
X540600D01*
Y364663D01*
X544078D01*
Y366155D01*
X543972Y366689D01*
X543669Y367142D01*
X543216Y367444D01*
X542682Y367550D01*
D02*
G37*
G36*
X539400D02*
X537318D01*
X536784Y367444D01*
X536331Y367142D01*
X536028Y366689D01*
X535922Y366155D01*
Y364663D01*
X539400D01*
Y367550D01*
D02*
G37*
G36*
X544078Y363463D02*
X540600D01*
Y360576D01*
X542682D01*
X543216Y360682D01*
X543669Y360984D01*
X543972Y361437D01*
X544078Y361971D01*
Y363463D01*
D02*
G37*
G36*
X539400D02*
X535922D01*
Y361971D01*
X536028Y361437D01*
X536331Y360984D01*
X536784Y360682D01*
X537318Y360576D01*
X539400D01*
Y363463D01*
D02*
G37*
G36*
X636221Y366874D02*
X635139Y366731D01*
X634130Y366314D01*
X633264Y365649D01*
X632600Y364783D01*
X632241Y363916D01*
X621268D01*
X620799Y363823D01*
X620403Y363558D01*
X602794Y345950D01*
X602529Y345553D01*
X602436Y345085D01*
Y321954D01*
X592155Y311673D01*
X591767Y311992D01*
X591788Y312023D01*
X591893Y312552D01*
Y313960D01*
X588513D01*
Y311171D01*
X590512D01*
X591040Y311276D01*
X591072Y311297D01*
X591390Y310909D01*
X589856Y309375D01*
X585315D01*
X584904Y309293D01*
X584555Y309060D01*
X584322Y308711D01*
X584240Y308300D01*
Y307515D01*
X573686D01*
Y308560D01*
X573602Y308977D01*
X573366Y309331D01*
X573013Y309567D01*
X572596Y309650D01*
X567872D01*
X566317Y311204D01*
X566636Y311593D01*
X566697Y311552D01*
X567231Y311446D01*
X569313D01*
Y314333D01*
X565835D01*
Y312842D01*
X565942Y312307D01*
X565982Y312246D01*
X565594Y311928D01*
X556156Y321365D01*
X555760Y321630D01*
X555291Y321724D01*
X530066D01*
Y322381D01*
X520910D01*
Y318619D01*
X530066D01*
Y319276D01*
X554785D01*
X566141Y307920D01*
Y304377D01*
X566224Y303960D01*
X566461Y303606D01*
X566814Y303370D01*
X567231Y303287D01*
X572596D01*
X573013Y303370D01*
X573366Y303606D01*
X573602Y303960D01*
X573686Y304377D01*
Y305068D01*
X584240D01*
Y304284D01*
X584322Y303873D01*
X584555Y303524D01*
X584904Y303291D01*
X585315Y303209D01*
X590512D01*
X590923Y303291D01*
X591272Y303524D01*
X591505Y303873D01*
X591587Y304284D01*
Y307645D01*
X604525Y320582D01*
X604790Y320979D01*
X604883Y321447D01*
Y344578D01*
X621774Y361469D01*
X632241D01*
X632600Y360603D01*
X633264Y359737D01*
X634130Y359072D01*
X635139Y358655D01*
X636221Y358512D01*
X637302Y358655D01*
X638311Y359072D01*
X639177Y359737D01*
X639841Y360603D01*
X640259Y361611D01*
X640401Y362693D01*
X640259Y363775D01*
X639841Y364783D01*
X639177Y365649D01*
X638311Y366314D01*
X637302Y366731D01*
X636221Y366874D01*
D02*
G37*
G36*
X466622Y357681D02*
X462344D01*
Y356100D01*
X466622D01*
Y357681D01*
D02*
G37*
G36*
X461144D02*
X456866D01*
Y356100D01*
X461144D01*
Y357681D01*
D02*
G37*
G36*
X443000Y368119D02*
X442189Y367957D01*
X441502Y367498D01*
X441043Y366811D01*
X440881Y366000D01*
X441043Y365189D01*
X441502Y364502D01*
X441777Y364318D01*
Y357381D01*
X437678D01*
Y353619D01*
X446834D01*
Y357381D01*
X444223D01*
Y364318D01*
X444498Y364502D01*
X444957Y365189D01*
X445119Y366000D01*
X444957Y366811D01*
X444498Y367498D01*
X443811Y367957D01*
X443000Y368119D01*
D02*
G37*
G36*
X466622Y354900D02*
X462344D01*
Y353319D01*
X466622D01*
Y354900D01*
D02*
G37*
G36*
X461144D02*
X456866D01*
Y353319D01*
X461144D01*
Y354900D01*
D02*
G37*
G36*
X471500Y365119D02*
X470689Y364957D01*
X470002Y364498D01*
X469543Y363811D01*
X469381Y363000D01*
X469543Y362189D01*
X470002Y361502D01*
X470276Y361318D01*
Y353007D01*
X468993Y351724D01*
X466322D01*
Y352381D01*
X457166D01*
Y348619D01*
X466322D01*
Y349276D01*
X469500D01*
X469968Y349370D01*
X470365Y349635D01*
X472365Y351635D01*
X472630Y352032D01*
X472723Y352500D01*
Y361318D01*
X472998Y361502D01*
X473457Y362189D01*
X473619Y363000D01*
X473457Y363811D01*
X472998Y364498D01*
X472311Y364957D01*
X471500Y365119D01*
D02*
G37*
G36*
X497500Y352619D02*
X496689Y352457D01*
X496002Y351998D01*
X495543Y351311D01*
X495381Y350500D01*
X495543Y349689D01*
X496002Y349002D01*
X496689Y348543D01*
X497500Y348381D01*
X498311Y348543D01*
X498998Y349002D01*
X499182Y349276D01*
X501422D01*
Y348619D01*
X510578D01*
Y352381D01*
X501422D01*
Y351724D01*
X499182D01*
X498998Y351998D01*
X498311Y352457D01*
X497500Y352619D01*
D02*
G37*
G36*
X444224Y415979D02*
X440461D01*
Y406824D01*
X440705D01*
X440912Y406324D01*
X437781Y403192D01*
X407969D01*
X407500Y403099D01*
X407103Y402834D01*
X403135Y398865D01*
X402870Y398468D01*
X402776Y398000D01*
Y381629D01*
X402071Y380924D01*
X385357D01*
X384889Y380830D01*
X384492Y380565D01*
X380135Y376208D01*
X379870Y375811D01*
X379777Y375342D01*
Y364500D01*
X379870Y364032D01*
X380135Y363635D01*
X384430Y359340D01*
X384827Y359074D01*
X385295Y358981D01*
X387984D01*
Y358197D01*
X388066Y357786D01*
X388299Y357437D01*
X388648Y357204D01*
X389059Y357122D01*
X394256D01*
X394667Y357204D01*
X395016Y357437D01*
X395249Y357786D01*
X395331Y358197D01*
Y358981D01*
X405885D01*
Y358113D01*
X405968Y357696D01*
X406205Y357342D01*
X406558Y357106D01*
X406975Y357023D01*
X412340D01*
X412757Y357106D01*
X413110Y357342D01*
X413347Y357696D01*
X413430Y358113D01*
Y358981D01*
X421556D01*
X430903Y349635D01*
X431299Y349370D01*
X431768Y349276D01*
X437678D01*
Y348619D01*
X446834D01*
Y352381D01*
X437678D01*
Y351724D01*
X432274D01*
X422928Y361070D01*
X422531Y361335D01*
X422063Y361428D01*
X413430D01*
Y362296D01*
X413347Y362713D01*
X413110Y363067D01*
X412757Y363303D01*
X412340Y363386D01*
X406975D01*
X406558Y363303D01*
X406205Y363067D01*
X405968Y362713D01*
X405885Y362296D01*
Y361428D01*
X395331D01*
Y362213D01*
X395249Y362624D01*
X395016Y362973D01*
X394667Y363206D01*
X394256Y363288D01*
X389059D01*
X388648Y363206D01*
X388299Y362973D01*
X388066Y362624D01*
X387984Y362213D01*
Y361428D01*
X385802D01*
X382224Y365007D01*
Y374836D01*
X385864Y378477D01*
X402578D01*
X403046Y378570D01*
X403443Y378835D01*
X404865Y380257D01*
X405130Y380654D01*
X405224Y381122D01*
Y397493D01*
X408475Y400745D01*
X438287D01*
X438756Y400838D01*
X439153Y401103D01*
X443208Y405159D01*
X443473Y405555D01*
X443566Y406024D01*
Y406824D01*
X444224D01*
Y415979D01*
D02*
G37*
G36*
X496250Y347619D02*
X495439Y347457D01*
X494752Y346998D01*
X494293Y346311D01*
X494131Y345500D01*
X494293Y344689D01*
X494752Y344002D01*
X495439Y343543D01*
X496250Y343381D01*
X497061Y343543D01*
X497748Y344002D01*
X497932Y344276D01*
X501422D01*
Y343619D01*
X510578D01*
Y347381D01*
X501422D01*
Y346724D01*
X497932D01*
X497748Y346998D01*
X497061Y347457D01*
X496250Y347619D01*
D02*
G37*
G36*
X572694Y344995D02*
X570612D01*
Y342108D01*
X574090D01*
Y343599D01*
X573984Y344134D01*
X573681Y344586D01*
X573228Y344889D01*
X572694Y344995D01*
D02*
G37*
G36*
X569412D02*
X567330D01*
X566795Y344889D01*
X566343Y344586D01*
X566040Y344134D01*
X565934Y343599D01*
Y342108D01*
X569412D01*
Y344995D01*
D02*
G37*
G36*
X590512Y344798D02*
X588513D01*
Y342009D01*
X591893D01*
Y343417D01*
X591788Y343946D01*
X591488Y344394D01*
X591040Y344693D01*
X590512Y344798D01*
D02*
G37*
G36*
X587313D02*
X585315D01*
X584787Y344693D01*
X584339Y344394D01*
X584039Y343946D01*
X583934Y343417D01*
Y342009D01*
X587313D01*
Y344798D01*
D02*
G37*
G36*
X510578Y342381D02*
X501422D01*
Y341474D01*
X497515D01*
X497498Y341498D01*
X496811Y341957D01*
X496000Y342119D01*
X495189Y341957D01*
X494502Y341498D01*
X494043Y340811D01*
X493881Y340000D01*
X494043Y339189D01*
X494502Y338502D01*
X495189Y338043D01*
X496000Y337881D01*
X496811Y338043D01*
X497498Y338502D01*
X497849Y339026D01*
X501422D01*
Y338619D01*
X510578D01*
Y342381D01*
D02*
G37*
G36*
X446834D02*
X437678D01*
Y338619D01*
X446834D01*
Y342381D01*
D02*
G37*
G36*
X587313Y340809D02*
X583934D01*
Y339402D01*
X584039Y338873D01*
X584339Y338425D01*
X584787Y338126D01*
X585315Y338021D01*
X587313D01*
Y340809D01*
D02*
G37*
G36*
X574090Y340908D02*
X570612D01*
Y338020D01*
X572694D01*
X573228Y338127D01*
X573681Y338429D01*
X573984Y338882D01*
X574090Y339416D01*
Y340908D01*
D02*
G37*
G36*
X569412D02*
X565934D01*
Y339416D01*
X566040Y338882D01*
X566343Y338429D01*
X566795Y338127D01*
X567330Y338020D01*
X569412D01*
Y340908D01*
D02*
G37*
G36*
X483000Y352619D02*
X482189Y352457D01*
X481502Y351998D01*
X481043Y351311D01*
X480881Y350500D01*
X481043Y349689D01*
X481502Y349002D01*
X481777Y348818D01*
Y341507D01*
X476993Y336723D01*
X466322D01*
Y337381D01*
X457166D01*
Y333619D01*
X466322D01*
Y334277D01*
X477500D01*
X477968Y334370D01*
X478365Y334635D01*
X483865Y340135D01*
X484130Y340532D01*
X484224Y341000D01*
Y348818D01*
X484498Y349002D01*
X484957Y349689D01*
X485119Y350500D01*
X484957Y351311D01*
X484498Y351998D01*
X483811Y352457D01*
X483000Y352619D01*
D02*
G37*
G36*
X510578Y337381D02*
X501422D01*
Y336723D01*
X489500D01*
X489032Y336630D01*
X488635Y336365D01*
X478993Y326724D01*
X466322D01*
Y327381D01*
X457166D01*
Y323619D01*
X466322D01*
Y324276D01*
X479500D01*
X479968Y324370D01*
X480365Y324635D01*
X490007Y334277D01*
X501422D01*
Y333619D01*
X510578D01*
Y337381D01*
D02*
G37*
G36*
X431768Y342119D02*
X430957Y341957D01*
X430270Y341498D01*
X429810Y340811D01*
X429649Y340000D01*
X429810Y339189D01*
X430270Y338502D01*
X430957Y338043D01*
X431768Y337881D01*
X432092Y337946D01*
X435403Y334635D01*
X435800Y334370D01*
X436268Y334277D01*
X437678D01*
Y333619D01*
X446834D01*
Y337381D01*
X437678D01*
Y336723D01*
X436774D01*
X433822Y339676D01*
X433886Y340000D01*
X433725Y340811D01*
X433266Y341498D01*
X432579Y341957D01*
X431768Y342119D01*
D02*
G37*
G36*
X394220Y336003D02*
X392222D01*
Y333214D01*
X395601D01*
Y334622D01*
X395496Y335151D01*
X395197Y335598D01*
X394749Y335898D01*
X394220Y336003D01*
D02*
G37*
G36*
X391022D02*
X389024D01*
X388495Y335898D01*
X388047Y335598D01*
X387748Y335151D01*
X387643Y334622D01*
Y333214D01*
X391022D01*
Y336003D01*
D02*
G37*
G36*
X412304Y336003D02*
X410222D01*
Y333116D01*
X413700D01*
Y334607D01*
X413594Y335141D01*
X413291Y335594D01*
X412838Y335897D01*
X412304Y336003D01*
D02*
G37*
G36*
X409022D02*
X406940D01*
X406406Y335897D01*
X405953Y335594D01*
X405650Y335141D01*
X405544Y334607D01*
Y333116D01*
X409022D01*
Y336003D01*
D02*
G37*
G36*
X510878Y332681D02*
X506600D01*
Y331100D01*
X510878D01*
Y332681D01*
D02*
G37*
G36*
X505400D02*
X501122D01*
Y331100D01*
X505400D01*
Y332681D01*
D02*
G37*
G36*
X395601Y332014D02*
X392222D01*
Y329225D01*
X394220D01*
X394749Y329331D01*
X395197Y329630D01*
X395496Y330078D01*
X395601Y330606D01*
Y332014D01*
D02*
G37*
G36*
X391022D02*
X387643D01*
Y330606D01*
X387748Y330078D01*
X388047Y329630D01*
X388495Y329331D01*
X389024Y329225D01*
X391022D01*
Y332014D01*
D02*
G37*
G36*
X413700Y331916D02*
X410222D01*
Y329028D01*
X412304D01*
X412838Y329135D01*
X413291Y329437D01*
X413594Y329890D01*
X413700Y330424D01*
Y331916D01*
D02*
G37*
G36*
X409022D02*
X405544D01*
Y330424D01*
X405650Y329890D01*
X405953Y329437D01*
X406406Y329135D01*
X406940Y329028D01*
X409022D01*
Y331916D01*
D02*
G37*
G36*
X446834Y332381D02*
X437678D01*
Y328619D01*
X446834D01*
Y332381D01*
D02*
G37*
G36*
X636221Y336874D02*
X635139Y336731D01*
X634130Y336314D01*
X633264Y335649D01*
X632600Y334783D01*
X632182Y333775D01*
X632040Y332693D01*
X632182Y331611D01*
X632600Y330603D01*
X633264Y329737D01*
X634130Y329072D01*
X635139Y328655D01*
X636221Y328512D01*
X637302Y328655D01*
X638311Y329072D01*
X639177Y329737D01*
X639841Y330603D01*
X640259Y331611D01*
X640401Y332693D01*
X640259Y333775D01*
X639841Y334783D01*
X639177Y335649D01*
X638311Y336314D01*
X637302Y336731D01*
X636221Y336874D01*
D02*
G37*
G36*
X510878Y329900D02*
X506600D01*
Y328319D01*
X510878D01*
Y329900D01*
D02*
G37*
G36*
X505400D02*
X501122D01*
Y328319D01*
X505400D01*
Y329900D01*
D02*
G37*
G36*
X510878Y327681D02*
X506600D01*
Y326100D01*
X510878D01*
Y327681D01*
D02*
G37*
G36*
X505400D02*
X501122D01*
Y326100D01*
X505400D01*
Y327681D01*
D02*
G37*
G36*
X446834Y327381D02*
X437678D01*
Y323619D01*
X446834D01*
Y327381D01*
D02*
G37*
G36*
X510878Y324900D02*
X506600D01*
Y323319D01*
X510878D01*
Y324900D01*
D02*
G37*
G36*
X505400D02*
X501122D01*
Y323319D01*
X505400D01*
Y324900D01*
D02*
G37*
G36*
X510878Y322681D02*
X506600D01*
Y321100D01*
X510878D01*
Y322681D01*
D02*
G37*
G36*
X505400D02*
X501122D01*
Y321100D01*
X505400D01*
Y322681D01*
D02*
G37*
G36*
X466322Y322381D02*
X457166D01*
Y318619D01*
X466322D01*
Y322381D01*
D02*
G37*
G36*
X510878Y319900D02*
X506600D01*
Y318319D01*
X510878D01*
Y319900D01*
D02*
G37*
G36*
X505400D02*
X501122D01*
Y318319D01*
X505400D01*
Y319900D01*
D02*
G37*
G36*
X572596Y318421D02*
X570513D01*
Y315533D01*
X573991D01*
Y317025D01*
X573885Y317559D01*
X573583Y318012D01*
X573130Y318314D01*
X572596Y318421D01*
D02*
G37*
G36*
X569313D02*
X567231D01*
X566697Y318314D01*
X566244Y318012D01*
X565942Y317559D01*
X565835Y317025D01*
Y315533D01*
X569313D01*
Y318421D01*
D02*
G37*
G36*
X590512Y317948D02*
X588513D01*
Y315160D01*
X591893D01*
Y316567D01*
X591788Y317096D01*
X591488Y317544D01*
X591040Y317843D01*
X590512Y317948D01*
D02*
G37*
G36*
X587313D02*
X585315D01*
X584787Y317843D01*
X584339Y317544D01*
X584039Y317096D01*
X583934Y316567D01*
Y315160D01*
X587313D01*
Y317948D01*
D02*
G37*
G36*
X573991Y314333D02*
X570513D01*
Y311446D01*
X572596D01*
X573130Y311552D01*
X573583Y311855D01*
X573885Y312307D01*
X573991Y312842D01*
Y314333D01*
D02*
G37*
G36*
X587313Y313960D02*
X583934D01*
Y312552D01*
X584039Y312023D01*
X584339Y311575D01*
X584787Y311276D01*
X585315Y311171D01*
X587313D01*
Y313960D01*
D02*
G37*
G36*
X433859Y312739D02*
X432368D01*
Y309261D01*
X435255D01*
Y311344D01*
X435149Y311878D01*
X434846Y312331D01*
X434393Y312633D01*
X433859Y312739D01*
D02*
G37*
G36*
X431168D02*
X429676D01*
X429142Y312633D01*
X428689Y312331D01*
X428386Y311878D01*
X428280Y311344D01*
Y309261D01*
X431168D01*
Y312739D01*
D02*
G37*
G36*
X435255Y308061D02*
X432368D01*
Y304583D01*
X433859D01*
X434393Y304690D01*
X434846Y304992D01*
X435149Y305445D01*
X435255Y305979D01*
Y308061D01*
D02*
G37*
G36*
X431168D02*
X428280D01*
Y305979D01*
X428386Y305445D01*
X428689Y304992D01*
X429142Y304690D01*
X429676Y304583D01*
X431168D01*
Y308061D01*
D02*
G37*
G36*
X629921Y318254D02*
X628511Y318116D01*
X627154Y317704D01*
X625904Y317036D01*
X624808Y316137D01*
X623909Y315041D01*
X623241Y313791D01*
X622829Y312434D01*
X622690Y311024D01*
X622829Y309613D01*
X623241Y308257D01*
X623909Y307006D01*
X624808Y305911D01*
X625904Y305011D01*
X627154Y304343D01*
X628511Y303932D01*
X629921Y303793D01*
X631332Y303932D01*
X632688Y304343D01*
X633939Y305011D01*
X635034Y305911D01*
X635933Y307006D01*
X636602Y308257D01*
X637013Y309613D01*
X637152Y311024D01*
X637013Y312434D01*
X636602Y313791D01*
X635933Y315041D01*
X635034Y316137D01*
X633939Y317036D01*
X632688Y317704D01*
X631332Y318116D01*
X629921Y318254D01*
D02*
G37*
G36*
X374016D02*
X372605Y318116D01*
X371249Y317704D01*
X369999Y317036D01*
X368903Y316137D01*
X368004Y315041D01*
X367335Y313791D01*
X366924Y312434D01*
X366785Y311024D01*
X366924Y309613D01*
X367335Y308257D01*
X368004Y307006D01*
X368903Y305911D01*
X369999Y305011D01*
X371249Y304343D01*
X372605Y303932D01*
X374016Y303793D01*
X375426Y303932D01*
X376783Y304343D01*
X378033Y305011D01*
X379129Y305911D01*
X380028Y307006D01*
X380696Y308257D01*
X381108Y309613D01*
X381247Y311024D01*
X381108Y312434D01*
X380696Y313791D01*
X380028Y315041D01*
X379129Y316137D01*
X378033Y317036D01*
X376783Y317704D01*
X375426Y318116D01*
X374016Y318254D01*
D02*
G37*
%LPD*%
D13*
X381000Y364500D02*
X385295Y360205D01*
X381000Y364500D02*
Y375342D01*
X385295Y360205D02*
X391657D01*
X427600Y382900D02*
Y391656D01*
X427343Y391913D02*
X427600Y391656D01*
X399122Y384000D02*
Y397232D01*
X393354Y403000D02*
X399122Y397232D01*
X404000Y381122D02*
Y398000D01*
X402578Y379700D02*
X404000Y381122D01*
X385357Y379700D02*
X402578D01*
X381000Y375342D02*
X385357Y379700D01*
X392063Y403000D02*
X393354D01*
X404000Y398000D02*
X407969Y401968D01*
X438287D01*
X442343Y406024D01*
Y411402D01*
X384500Y338213D02*
X387169Y340882D01*
X399122Y472744D02*
Y473335D01*
X400984Y475197D02*
X401575D01*
Y483465D02*
X401575Y483465D01*
X411083Y453386D02*
X411417Y453051D01*
X442319Y355500D02*
X443000Y356181D01*
X442256Y355500D02*
X442319D01*
X464764Y483465D02*
X465748Y484449D01*
X473500Y345500D02*
X475500Y347500D01*
X505750Y340250D02*
X506000Y340500D01*
X505902Y355500D02*
X505951Y355549D01*
X510551Y362449D02*
Y366000D01*
X522791Y340500D02*
X525488D01*
X522791Y350500D02*
X525488D01*
X522791Y345500D02*
X525488D01*
X569913Y306469D02*
X570090Y306292D01*
X569323Y306469D02*
X569913D01*
X569421Y333043D02*
X570012D01*
X570110Y333142D01*
X587913Y306292D02*
X588504D01*
X587913Y333142D02*
X588504D01*
X393701Y453386D02*
Y467323D01*
X399122Y472744D01*
X427343Y391913D02*
Y394610D01*
X437343Y391913D02*
Y394610D01*
X457283Y401284D02*
Y417216D01*
X465748Y416067D02*
X465748Y416067D01*
X478000Y345000D02*
Y354000D01*
X473500Y340500D02*
X478000Y345000D01*
X483000Y341000D02*
Y350500D01*
X522791Y335500D02*
X525488D01*
X558500Y360000D02*
Y372622D01*
X569323Y359831D02*
X569913D01*
X587913Y359929D02*
X588504D01*
X587815Y359831D02*
X587913Y359929D01*
X598000Y342638D02*
Y350500D01*
X365000Y339472D02*
Y400000D01*
X384500Y322500D02*
Y338213D01*
X443000Y356181D02*
Y366000D01*
X465748Y435236D02*
Y476181D01*
Y416067D02*
Y435236D01*
X475500Y347500D02*
Y369500D01*
X516240Y352051D02*
Y363000D01*
X512665Y345626D02*
Y357335D01*
X514453Y348838D02*
Y358547D01*
X519000Y354291D02*
Y369500D01*
X603659Y321447D02*
Y345085D01*
X613287Y312760D02*
Y338287D01*
X611500Y313500D02*
Y346500D01*
X367559Y402559D02*
X374016D01*
X391622Y340882D02*
X391721Y340980D01*
X409622D01*
X391622Y402559D02*
X392063Y403000D01*
X393701Y453386D02*
X411083D01*
X399122Y473335D02*
X400984Y475197D01*
X425374Y345500D02*
X442256D01*
X431768Y350500D02*
X442256D01*
X437343Y394610D02*
X440732Y398000D01*
X461744Y325500D02*
X479500D01*
X461744Y330500D02*
X477500D01*
X461744Y340500D02*
X473500D01*
X461744Y345500D02*
X473500D01*
X461744Y350500D02*
X469500D01*
X496000Y340000D02*
X496250Y340250D01*
X505750D01*
X496250Y345500D02*
X506000D01*
X497500Y350500D02*
X506000D01*
X491500Y355500D02*
X505902D01*
X485000Y361000D02*
X509000D01*
X525488Y330500D02*
X539992D01*
X617693Y342693D02*
X636221D01*
X613287Y338287D02*
X617693Y342693D01*
Y352693D02*
X636221D01*
X621268Y362693D02*
X636221D01*
X620193Y372693D02*
X636221D01*
X620307Y402693D02*
X636221D01*
X365000Y400000D02*
X367559Y402559D01*
X391657Y360205D02*
X409657D01*
X420854Y340980D02*
X425374Y345500D01*
X431768Y340000D02*
X436268Y335500D01*
X442256D01*
X469500Y350500D02*
X471500Y352500D01*
X477500Y335500D02*
X483000Y341000D01*
X461744Y335500D02*
X477500D01*
X454000Y398000D02*
X457283Y401284D01*
X488000Y341000D02*
Y352000D01*
X489500Y335500D02*
X506000D01*
X509000Y361000D02*
X512665Y357335D01*
X510551Y362449D02*
X514453Y358547D01*
X519000Y354291D02*
X522791Y350500D01*
X555291Y320500D02*
X569323Y306469D01*
X561878Y325500D02*
X569421Y333043D01*
X558500Y372622D02*
X562878Y377000D01*
X588504Y306292D02*
X603659Y321447D01*
X588504Y333142D02*
X598000Y342638D01*
X588504Y359929D02*
X611268Y382693D01*
X422063Y360205D02*
X431768Y350500D01*
X471500Y352500D02*
Y363000D01*
X488000Y352000D02*
X491500Y355500D01*
X589500Y377000D02*
X605193Y392693D01*
X387169Y340882D02*
X391622D01*
X374016Y402559D02*
X391622D01*
X409622Y340980D02*
X420854D01*
X440732Y398000D02*
X454000D01*
X411417Y453051D02*
X421449D01*
X438976Y483465D02*
X464764D01*
X570090Y306292D02*
X587913D01*
X570110Y333142D02*
X587913D01*
X562878Y377000D02*
X589500D01*
X611268Y382693D02*
X636221D01*
X605193Y392693D02*
X636221D01*
X514453Y348838D02*
X522791Y340500D01*
X516240Y352051D02*
X522791Y345500D01*
X512665Y345626D02*
X522791Y335500D01*
X477500Y330500D02*
X488000Y341000D01*
X479500Y325500D02*
X489500Y335500D01*
X409657Y360205D02*
X422063D01*
X598740Y298213D02*
X613287Y312760D01*
X598000Y300000D02*
X611500Y313500D01*
Y346500D02*
X617693Y352693D01*
X569913Y359831D02*
X587815D01*
X606500Y416500D02*
X620307Y402693D01*
X478000Y354000D02*
X485000Y361000D01*
X421449Y453051D02*
X457283Y417216D01*
X544000Y345500D02*
X558500Y360000D01*
X598000Y350500D02*
X620193Y372693D01*
X603659Y345085D02*
X621268Y362693D01*
X539992Y330500D02*
X569323Y359831D01*
X525488Y325500D02*
X561878D01*
X525488Y320500D02*
X555291D01*
X401575Y483465D02*
X425197D01*
X384500Y322500D02*
X407000Y300000D01*
X365000Y339472D02*
X406260Y298213D01*
X598740D01*
X407000Y300000D02*
X598000D01*
D30*
X393701Y453386D02*
D03*
Y448189D02*
D03*
D31*
X411417Y444587D02*
D03*
Y453051D02*
D03*
X540000Y355598D02*
D03*
Y364063D02*
D03*
X391622Y402559D02*
D03*
Y394094D02*
D03*
X409622Y340980D02*
D03*
Y332516D02*
D03*
X409657Y360205D02*
D03*
Y368669D02*
D03*
X465748Y391831D02*
D03*
Y400295D02*
D03*
X569913Y306469D02*
D03*
Y314933D02*
D03*
X570012Y333043D02*
D03*
Y341508D02*
D03*
X569913Y359831D02*
D03*
Y368295D02*
D03*
D32*
X440232Y308661D02*
D03*
X431768D02*
D03*
X457283Y435236D02*
D03*
X465748D02*
D03*
X524705Y435236D02*
D03*
X516240D02*
D03*
D33*
X452343Y411402D02*
D03*
X447342D02*
D03*
X442343D02*
D03*
X437343D02*
D03*
X432342D02*
D03*
X427343D02*
D03*
X422342D02*
D03*
X417343D02*
D03*
Y391913D02*
D03*
X422342D02*
D03*
X427343D02*
D03*
X432342D02*
D03*
X437343D02*
D03*
X442343D02*
D03*
X447342D02*
D03*
X452343D02*
D03*
D34*
X461744Y320500D02*
D03*
Y325500D02*
D03*
Y330500D02*
D03*
Y335500D02*
D03*
Y340500D02*
D03*
Y345500D02*
D03*
Y350500D02*
D03*
Y355500D02*
D03*
X442256D02*
D03*
Y350500D02*
D03*
Y345500D02*
D03*
Y340500D02*
D03*
Y335500D02*
D03*
Y330500D02*
D03*
Y325500D02*
D03*
Y320500D02*
D03*
X506000Y355500D02*
D03*
Y350500D02*
D03*
Y345500D02*
D03*
Y340500D02*
D03*
Y335500D02*
D03*
Y330500D02*
D03*
Y325500D02*
D03*
Y320500D02*
D03*
X525488D02*
D03*
Y325500D02*
D03*
Y330500D02*
D03*
Y335500D02*
D03*
Y340500D02*
D03*
Y345500D02*
D03*
Y350500D02*
D03*
Y355500D02*
D03*
D35*
X465748Y455315D02*
D03*
X470945D02*
D03*
X515748D02*
D03*
X510551D02*
D03*
D36*
X515748Y484252D02*
D03*
Y475984D02*
D03*
X587913Y314560D02*
D03*
Y306292D02*
D03*
Y341409D02*
D03*
Y333142D02*
D03*
Y368197D02*
D03*
Y359929D02*
D03*
X374016Y394291D02*
D03*
Y402559D02*
D03*
X391622Y332614D02*
D03*
Y340882D02*
D03*
X391657Y368472D02*
D03*
Y360205D02*
D03*
X401575Y483465D02*
D03*
Y475197D02*
D03*
X465748Y484449D02*
D03*
Y476181D02*
D03*
D37*
X504331Y401968D02*
D03*
X527165D02*
D03*
X562992Y402181D02*
D03*
X585827D02*
D03*
D38*
X505951Y355549D02*
X506000Y355500D01*
D39*
X515994Y435482D02*
X516240Y435236D01*
X515748Y475984D02*
X515994Y475738D01*
X515748Y484252D02*
X516142Y483858D01*
X525488Y355500D02*
X525537Y355549D01*
X539951D02*
X540000Y355598D01*
X442075Y320319D02*
X442256Y320500D01*
X452343Y391913D02*
X452425Y391831D01*
X465748D02*
X466339D01*
X550000Y359000D02*
Y376000D01*
X585000Y391000D02*
Y399957D01*
X452343Y314366D02*
Y377343D01*
X515994Y435482D02*
Y475738D01*
X516240Y409842D02*
Y435236D01*
X546598Y355598D02*
X550000Y359000D01*
X585827Y402181D02*
Y451827D01*
X440527Y308366D02*
X440528D01*
X441551Y307343D01*
X440232Y308071D02*
X440528Y308366D01*
X440232Y308661D02*
X440527Y308366D01*
X440232Y308071D02*
Y308661D01*
X440823D02*
X446638D01*
X440528Y308366D02*
X440823Y308661D01*
X456000Y381000D02*
X477169D01*
X525537Y355549D02*
X539951D01*
X540000Y355598D02*
X546598D01*
X524114Y401968D02*
X527165D01*
X535968D01*
X535039Y483858D02*
X535433Y483465D01*
X555000Y381000D02*
X575000D01*
X582776Y402181D02*
X585827D01*
X440413Y320500D02*
X442256D01*
X440232Y320319D02*
X440413Y320500D01*
X440232Y308661D02*
Y320319D01*
X550000Y376000D02*
X555000Y381000D01*
X582776Y402181D02*
X585000Y399957D01*
X466339Y391831D02*
X477169Y381000D01*
X585827Y451827D02*
X595024Y461024D01*
X452343Y377343D02*
X456000Y381000D01*
X595024Y461024D02*
X627559D01*
X446638Y308661D02*
X452343Y314366D01*
X516240Y409842D02*
X524114Y401968D01*
X452425Y391831D02*
X465748D01*
X575000Y381000D02*
X585000Y391000D01*
X535968Y401968D02*
X585827Y451827D01*
X477169Y381000D02*
X555000D01*
X516142Y483858D02*
X535039D01*
D40*
X425197Y483465D02*
D03*
X535433Y483465D02*
D03*
X627559Y461024D02*
D03*
D41*
X438976Y483465D02*
D03*
X549213Y483465D02*
D03*
D42*
X627559Y447244D02*
D03*
D43*
X636221Y352693D02*
D03*
Y402693D02*
D03*
Y392693D02*
D03*
Y372693D02*
D03*
Y382693D02*
D03*
Y362693D02*
D03*
Y342693D02*
D03*
Y332693D02*
D03*
D44*
X629921Y311024D02*
D03*
X374016D02*
D03*
Y488189D02*
D03*
X629921D02*
D03*
D45*
X427600Y382900D02*
D03*
X399122Y384000D02*
D03*
X606500Y416500D02*
D03*
X465748Y416067D02*
D03*
X544000Y345500D02*
D03*
X496250D02*
D03*
X519000Y369500D02*
D03*
X475500D02*
D03*
X516240Y363000D02*
D03*
X471500D02*
D03*
X443000Y366000D02*
D03*
X510551D02*
D03*
X483000Y350500D02*
D03*
X497500D02*
D03*
X431768Y340000D02*
D03*
X496000D02*
D03*
D46*
X604000Y439000D02*
D03*
X575000Y427500D02*
D03*
X604000Y452500D02*
D03*
X390400Y301700D02*
D03*
X613287Y300000D02*
D03*
X506500Y312000D02*
D03*
X495500Y316500D02*
D03*
Y323500D02*
D03*
Y330500D02*
D03*
X530500Y372693D02*
D03*
X539951Y376000D02*
D03*
X530500Y364000D02*
D03*
X579000Y365000D02*
D03*
Y372622D02*
D03*
Y348000D02*
D03*
Y340000D02*
D03*
Y323500D02*
D03*
Y315500D02*
D03*
X383000Y393500D02*
D03*
X374016Y384000D02*
D03*
X565000Y471000D02*
D03*
Y498000D02*
D03*
Y483465D02*
D03*
X640500Y427500D02*
D03*
X627559Y427000D02*
D03*
X614500D02*
D03*
X491500Y435236D02*
D03*
X500500Y454500D02*
D03*
X454000Y453386D02*
D03*
X524705Y426000D02*
D03*
X535039Y435236D02*
D03*
X480000Y454500D02*
D03*
X446500Y435482D02*
D03*
X384500Y446000D02*
D03*
X401500D02*
D03*
X393701Y440500D02*
D03*
X412000Y434500D02*
D03*
X376000Y351000D02*
D03*
X421449Y348838D02*
D03*
X463500Y309500D02*
D03*
X432342Y319000D02*
D03*
X424000Y308661D02*
D03*
X432342Y362000D02*
D03*
X465748D02*
D03*
X459000D02*
D03*
X410700Y396300D02*
D03*
X415500Y378700D02*
D03*
X422342D02*
D03*
X449000Y382000D02*
D03*
X442256D02*
D03*
X410500Y414000D02*
D03*
X415500Y421000D02*
D03*
X421449Y421158D02*
D03*
X427343D02*
D03*
X465748Y408000D02*
D03*
X475500Y400295D02*
D03*
X491500Y394000D02*
D03*
X497500Y409842D02*
D03*
X491500Y401968D02*
D03*
X555500Y410500D02*
D03*
X550000Y394000D02*
D03*
Y402181D02*
D03*
M02*
