G04*
G04 #@! TF.GenerationSoftware,Altium Limited,Altium Designer,19.1.5 (86)*
G04*
G04 Layer_Color=8388736*
%FSLAX25Y25*%
%MOIN*%
G70*
G01*
G75*
%ADD15R,0.02375X0.02690*%
G04:AMPARAMS|DCode=16|XSize=69.02mil|YSize=57.21mil|CornerRadius=7.69mil|HoleSize=0mil|Usage=FLASHONLY|Rotation=0.000|XOffset=0mil|YOffset=0mil|HoleType=Round|Shape=RoundedRectangle|*
%AMROUNDEDRECTD16*
21,1,0.06902,0.04183,0,0,0.0*
21,1,0.05364,0.05721,0,0,0.0*
1,1,0.01538,0.02682,-0.02092*
1,1,0.01538,-0.02682,-0.02092*
1,1,0.01538,-0.02682,0.02092*
1,1,0.01538,0.02682,0.02092*
%
%ADD16ROUNDEDRECTD16*%
G04:AMPARAMS|DCode=17|XSize=69.02mil|YSize=57.21mil|CornerRadius=7.69mil|HoleSize=0mil|Usage=FLASHONLY|Rotation=270.000|XOffset=0mil|YOffset=0mil|HoleType=Round|Shape=RoundedRectangle|*
%AMROUNDEDRECTD17*
21,1,0.06902,0.04183,0,0,270.0*
21,1,0.05364,0.05721,0,0,270.0*
1,1,0.01538,-0.02092,-0.02682*
1,1,0.01538,-0.02092,0.02682*
1,1,0.01538,0.02092,0.02682*
1,1,0.01538,0.02092,-0.02682*
%
%ADD17ROUNDEDRECTD17*%
%ADD18R,0.03162X0.08556*%
%ADD19R,0.08556X0.03162*%
%ADD20R,0.02690X0.02375*%
G04:AMPARAMS|DCode=21|XSize=67.06mil|YSize=55.24mil|CornerRadius=7.54mil|HoleSize=0mil|Usage=FLASHONLY|Rotation=0.000|XOffset=0mil|YOffset=0mil|HoleType=Round|Shape=RoundedRectangle|*
%AMROUNDEDRECTD21*
21,1,0.06706,0.04016,0,0,0.0*
21,1,0.05197,0.05524,0,0,0.0*
1,1,0.01509,0.02598,-0.02008*
1,1,0.01509,-0.02598,-0.02008*
1,1,0.01509,-0.02598,0.02008*
1,1,0.01509,0.02598,0.02008*
%
%ADD21ROUNDEDRECTD21*%
%ADD22R,0.13202X0.07099*%
%ADD23C,0.06800*%
%ADD24C,0.08477*%
%ADD25R,0.08477X0.08477*%
%ADD26R,0.08477X0.08477*%
%ADD27C,0.07690*%
%ADD28C,0.04343*%
%ADD29C,0.03950*%
D15*
X397500Y453097D02*
D03*
Y447900D02*
D03*
D16*
X415500Y444868D02*
D03*
Y453332D02*
D03*
X540000Y355598D02*
D03*
Y364063D02*
D03*
X391622Y386569D02*
D03*
Y395034D02*
D03*
X409622Y340980D02*
D03*
Y332516D02*
D03*
X409657Y360205D02*
D03*
Y368669D02*
D03*
X465748Y391831D02*
D03*
Y400295D02*
D03*
X569913Y306469D02*
D03*
Y314933D02*
D03*
X570012Y333043D02*
D03*
Y341508D02*
D03*
X569913Y359831D02*
D03*
Y368295D02*
D03*
D17*
X440232Y308661D02*
D03*
X431768D02*
D03*
X457368Y429400D02*
D03*
X465832D02*
D03*
X524213D02*
D03*
X515748D02*
D03*
D18*
X452343Y411402D02*
D03*
X447342D02*
D03*
X442343D02*
D03*
X437343D02*
D03*
X432342D02*
D03*
X427343D02*
D03*
X422342D02*
D03*
X417343D02*
D03*
Y391913D02*
D03*
X422342D02*
D03*
X427343D02*
D03*
X432342D02*
D03*
X437343D02*
D03*
X442343D02*
D03*
X447342D02*
D03*
X452343D02*
D03*
D19*
X461744Y320500D02*
D03*
Y325500D02*
D03*
Y330500D02*
D03*
Y335500D02*
D03*
Y340500D02*
D03*
Y345500D02*
D03*
Y350500D02*
D03*
Y355500D02*
D03*
X442256D02*
D03*
Y350500D02*
D03*
Y345500D02*
D03*
Y340500D02*
D03*
Y335500D02*
D03*
Y330500D02*
D03*
Y325500D02*
D03*
Y320500D02*
D03*
X506000Y355500D02*
D03*
Y350500D02*
D03*
Y345500D02*
D03*
Y340500D02*
D03*
Y335500D02*
D03*
Y330500D02*
D03*
Y325500D02*
D03*
Y320500D02*
D03*
X525488D02*
D03*
Y325500D02*
D03*
Y330500D02*
D03*
Y335500D02*
D03*
Y340500D02*
D03*
Y345500D02*
D03*
Y350500D02*
D03*
Y355500D02*
D03*
D20*
X466002Y449100D02*
D03*
X471198D02*
D03*
X516098Y456500D02*
D03*
X510902D02*
D03*
D21*
X515748Y484252D02*
D03*
Y475984D02*
D03*
X587913Y314560D02*
D03*
Y306292D02*
D03*
Y341409D02*
D03*
Y333142D02*
D03*
Y368197D02*
D03*
Y359929D02*
D03*
X374600Y394837D02*
D03*
Y386569D02*
D03*
X391622Y332614D02*
D03*
Y340882D02*
D03*
X391657Y368472D02*
D03*
Y360205D02*
D03*
X401575Y483465D02*
D03*
Y475197D02*
D03*
X465748Y484449D02*
D03*
Y476181D02*
D03*
D22*
X504331Y401968D02*
D03*
X527165D02*
D03*
X562992Y402181D02*
D03*
X585827D02*
D03*
D23*
X629921Y488189D02*
D03*
X374016D02*
D03*
X374016Y311024D02*
D03*
X363701Y464500D02*
D03*
X393701D02*
D03*
X496100Y462000D02*
D03*
X466100D02*
D03*
X516000Y445500D02*
D03*
X486000D02*
D03*
X629921Y311024D02*
D03*
D24*
X425197Y483465D02*
D03*
X535433Y483465D02*
D03*
X627559Y461024D02*
D03*
D25*
X438976Y483465D02*
D03*
X549213Y483465D02*
D03*
D26*
X627559Y447244D02*
D03*
D27*
X636221Y352693D02*
D03*
Y402693D02*
D03*
Y392693D02*
D03*
Y372693D02*
D03*
Y382693D02*
D03*
Y362693D02*
D03*
Y342693D02*
D03*
Y332693D02*
D03*
D28*
X604000Y469500D02*
D03*
X382000Y350500D02*
D03*
X400700Y368400D02*
D03*
X400400Y332400D02*
D03*
X366900Y327200D02*
D03*
X641000Y322500D02*
D03*
X491200Y480600D02*
D03*
X604000Y439000D02*
D03*
X575000Y427500D02*
D03*
X604000Y453800D02*
D03*
X387169Y300000D02*
D03*
X619000Y322500D02*
D03*
X506500Y312000D02*
D03*
X495500Y316500D02*
D03*
Y323500D02*
D03*
Y330500D02*
D03*
X530500Y372693D02*
D03*
X539951Y376000D02*
D03*
X530500Y364000D02*
D03*
X579000Y365000D02*
D03*
Y372622D02*
D03*
Y348000D02*
D03*
Y340000D02*
D03*
Y323500D02*
D03*
Y315500D02*
D03*
X383300Y414000D02*
D03*
Y395034D02*
D03*
X565000Y471000D02*
D03*
Y498000D02*
D03*
Y483465D02*
D03*
X640500Y427500D02*
D03*
X627559Y427000D02*
D03*
X614500D02*
D03*
X491500Y435236D02*
D03*
X500600Y455300D02*
D03*
X454000Y453386D02*
D03*
X532900Y428900D02*
D03*
X524100Y437600D02*
D03*
X480000Y454500D02*
D03*
X446500Y435482D02*
D03*
X388700Y445500D02*
D03*
X405500D02*
D03*
X397500Y440200D02*
D03*
X412000Y434500D02*
D03*
X422342Y350500D02*
D03*
X463500Y309500D02*
D03*
X432342Y319000D02*
D03*
X424000Y308661D02*
D03*
X432342Y362000D02*
D03*
X465748D02*
D03*
X459000D02*
D03*
X410500Y394837D02*
D03*
X415500Y378700D02*
D03*
X422342D02*
D03*
X449000Y382000D02*
D03*
X442256D02*
D03*
X410500Y414000D02*
D03*
X415500Y421000D02*
D03*
X421449Y421158D02*
D03*
X427343D02*
D03*
X465748Y408000D02*
D03*
X475500Y400295D02*
D03*
X491500Y394000D02*
D03*
X497500Y409842D02*
D03*
X491500Y401968D02*
D03*
X555500Y410500D02*
D03*
X550000Y394000D02*
D03*
Y402181D02*
D03*
D29*
X516000Y362500D02*
D03*
X472000D02*
D03*
X507500Y366000D02*
D03*
X519800Y369500D02*
D03*
X400188Y382934D02*
D03*
X496242Y340242D02*
D03*
X496250Y345500D02*
D03*
Y350500D02*
D03*
X483000D02*
D03*
X427600Y382900D02*
D03*
X606500Y416500D02*
D03*
X466092Y416067D02*
D03*
X544000Y345500D02*
D03*
X475500Y369500D02*
D03*
X443000Y366000D02*
D03*
X431768Y340000D02*
D03*
M02*
