M48
;Layer_Color=9474304
;FILE_FORMAT=2:5
INCH,TZ
;TYPE=PLATED
T1F00S00C0.01575
T2F00S00C0.01968
T3F00S00C0.03937
T4F00S00C0.05118
;TYPE=NON_PLATED
T5F00S00C0.12992
%
T01
X431768Y340000
X443000Y366000
X427600Y382900
X399122Y384000
X465748Y416067
X475500Y369500
X471500Y363000
X483000Y350500
X497500
X496250Y345500
X496000Y340000
X510551Y366000
X516240Y363000
X519000Y369500
X544000Y345500
X606500Y416500
T02
X506500Y312000
X613287Y300000
X463500Y309500
X424000Y308661
X390400Y301700
X432342Y319000
X421449Y348838
X432342Y362000
X459000
X465748
X449000Y382000
X442256
X422342Y378700
X415500
X410700Y396300
X410500Y414000
X415500Y421000
X421449Y421158
X427343
X412000Y434500
X401500Y446000
X393701Y440500
X384500Y446000
X383000Y393500
X374016Y384000
X376000Y351000
X465748Y408000
X446500Y435482
X454000Y453386
X480000Y454500
X500500
X491500Y435236
X497500Y409842
X491500Y401968
Y394000
X475500Y400295
X524705Y426000
X535039Y435236
X555500Y410500
X550000Y402181
Y394000
X539951Y376000
X530500Y372693
Y364000
X579000Y365000
Y372622
Y348000
Y340000
Y323500
Y315500
X495500Y316500
Y323500
Y330500
X575000Y427500
X614500Y427000
X604000Y439000
Y452500
X627559Y427000
X640500Y427500
X565000Y471000
Y483465
Y498000
T03
X636221Y332693
Y342693
Y352693
Y362693
Y372693
Y382693
Y392693
Y402693
T04
X627559Y447244
Y461024
X549213Y483465
X535433
X438976Y483465
X425197
T05
X629921Y311024
X374016
X629921Y488189
X374016
M30
