G04*
G04 #@! TF.GenerationSoftware,Altium Limited,Altium Designer,19.1.5 (86)*
G04*
G04 Layer_Color=16711935*
%FSLAX25Y25*%
%MOIN*%
G70*
G01*
G75*
%ADD11C,0.00787*%
%ADD12C,0.00500*%
%ADD47C,0.00394*%
D11*
X455098Y419158D02*
X454311D01*
X455098D01*
X454311D01*
X455098D01*
X469894Y318138D02*
X469106D01*
X469894D01*
X469106D01*
X469894D01*
X498638Y357862D02*
X497850D01*
X498638D01*
X497850D01*
X498638D01*
D12*
X454528Y393783D02*
Y409531D01*
X415158Y393783D02*
Y409531D01*
X454528D01*
X415158Y393783D02*
X454528D01*
Y409531D01*
X415158Y393783D02*
Y409531D01*
X454528D01*
X415158Y393783D02*
X454528D01*
X444126Y318315D02*
X459874D01*
X444126Y357685D02*
X459874D01*
Y318315D02*
Y357685D01*
X444126Y318315D02*
Y357685D01*
Y318315D02*
X459874D01*
X444126Y357685D02*
X459874D01*
Y318315D02*
Y357685D01*
X444126Y318315D02*
Y357685D01*
X507870D02*
X523618D01*
X507870Y318315D02*
X523618D01*
X507870D02*
Y357685D01*
X523618Y318315D02*
Y357685D01*
X507870D02*
X523618D01*
X507870Y318315D02*
X523618D01*
X507870D02*
Y357685D01*
X523618Y318315D02*
Y357685D01*
D47*
X392126Y453150D02*
X395276D01*
X392126Y448425D02*
Y453150D01*
Y448425D02*
X395276D01*
Y453150D01*
X408661Y444488D02*
Y453150D01*
X414173Y444488D02*
Y453150D01*
X408661Y444488D02*
X414173D01*
X408661Y453150D02*
X414173D01*
X440331Y305906D02*
Y311417D01*
X431669Y305906D02*
Y311417D01*
Y305906D02*
X440331D01*
X431669Y311417D02*
X440331D01*
X445866Y471969D02*
Y492598D01*
Y467717D02*
Y470000D01*
X447441Y469705D02*
Y472264D01*
X445866Y470000D02*
X447441Y469705D01*
X445866Y471969D02*
X447441Y472264D01*
X445866Y494567D02*
Y496850D01*
Y492598D02*
X447441Y492303D01*
X445866Y494567D02*
X447441Y494862D01*
Y492303D02*
Y494862D01*
X418307Y467717D02*
Y496850D01*
X445866D01*
X418307Y467717D02*
X445866D01*
X457185Y437992D02*
X465846D01*
X457185Y432480D02*
X465846D01*
X457185D02*
Y437992D01*
X465846Y432480D02*
Y437992D01*
X465984Y453740D02*
Y456890D01*
Y453740D02*
X470709D01*
Y456890D01*
X465984D02*
X470709D01*
X516142Y432480D02*
X524803D01*
X516142Y437992D02*
X524803D01*
Y432480D02*
Y437992D01*
X516142Y432480D02*
Y437992D01*
X512992Y484449D02*
X518504D01*
X512992Y475787D02*
X518504D01*
Y484449D01*
X512992Y475787D02*
Y484449D01*
X537244Y355500D02*
X542756D01*
X537244Y364161D02*
X542756D01*
X537244Y355500D02*
Y364161D01*
X542756Y355500D02*
Y364161D01*
X556102Y471969D02*
Y492598D01*
Y467717D02*
Y470000D01*
X557677Y469705D02*
Y472264D01*
X556102Y470000D02*
X557677Y469705D01*
X556102Y471969D02*
X557677Y472264D01*
X556102Y494567D02*
Y496850D01*
Y492598D02*
X557677Y492303D01*
X556102Y494567D02*
X557677Y494862D01*
Y492303D02*
Y494862D01*
X528543Y467717D02*
Y496850D01*
X556102D01*
X528543Y467717D02*
X556102D01*
X590669Y306095D02*
Y314756D01*
X585157Y306095D02*
Y314756D01*
X590669D01*
X585157Y306095D02*
X590669D01*
Y332945D02*
Y341606D01*
X585157Y332945D02*
Y341606D01*
X590669D01*
X585157Y332945D02*
X590669D01*
Y359732D02*
Y368394D01*
X585157Y359732D02*
Y368394D01*
X590669D01*
X585157Y359732D02*
X590669D01*
X616063Y440354D02*
X636693D01*
X611811D02*
X614094D01*
X613799Y438779D02*
X616358D01*
X613799D02*
X614094Y440354D01*
X616063D02*
X616358Y438779D01*
X638661Y440354D02*
X640945D01*
X636398Y438779D02*
X636693Y440354D01*
X638661D02*
X638957Y438779D01*
X636398D02*
X638957D01*
X611811Y467913D02*
X640945D01*
Y440354D02*
Y467913D01*
X611811Y440354D02*
Y467913D01*
X371260Y394094D02*
Y402756D01*
X376772Y394094D02*
Y402756D01*
X371260Y394094D02*
X376772D01*
X371260Y402756D02*
X376772D01*
X388866Y332417D02*
Y341079D01*
X394378Y332417D02*
Y341079D01*
X388866Y332417D02*
X394378D01*
X388866Y341079D02*
X394378D01*
X394413Y360008D02*
Y368669D01*
X388902Y360008D02*
Y368669D01*
X394413D01*
X388902Y360008D02*
X394413D01*
X388866Y402658D02*
X394378D01*
X388866Y393996D02*
X394378D01*
Y402658D01*
X388866Y393996D02*
Y402658D01*
X398819Y483661D02*
X404331D01*
X398819Y475000D02*
X404331D01*
Y483661D01*
X398819Y475000D02*
Y483661D01*
X406866Y341079D02*
X412378D01*
X406866Y332417D02*
X412378D01*
Y341079D01*
X406866Y332417D02*
Y341079D01*
X406902Y360106D02*
X412413D01*
X406902Y368768D02*
X412413D01*
X406902Y360106D02*
Y368768D01*
X412413Y360106D02*
Y368768D01*
X462992Y391732D02*
X468504D01*
X462992Y400394D02*
X468504D01*
X462992Y391732D02*
Y400394D01*
X468504Y391732D02*
Y400394D01*
X529134Y393701D02*
Y410236D01*
X524016Y415354D02*
X529134Y410236D01*
X502362Y415354D02*
X524016D01*
X502362Y388583D02*
Y415354D01*
Y388583D02*
X524016D01*
X529134Y393701D01*
X515512Y453740D02*
Y456890D01*
X510787D02*
X515512D01*
X510787Y453740D02*
Y456890D01*
Y453740D02*
X515512D01*
X567158Y306370D02*
X572669D01*
X567158Y315032D02*
X572669D01*
X567158Y306370D02*
Y315032D01*
X572669Y306370D02*
Y315032D01*
X567256Y332945D02*
X572768D01*
X567256Y341606D02*
X572768D01*
X567256Y332945D02*
Y341606D01*
X572768Y332945D02*
Y341606D01*
X567158Y359732D02*
X572669D01*
X567158Y368394D02*
X572669D01*
X567158Y359732D02*
Y368394D01*
X572669Y359732D02*
Y368394D01*
X587795Y393913D02*
Y410449D01*
X582677Y415567D02*
X587795Y410449D01*
X561024Y415567D02*
X582677D01*
X561024Y388795D02*
Y415567D01*
Y388795D02*
X582677D01*
X587795Y393913D01*
X462992Y484646D02*
X468504D01*
X462992Y475984D02*
X468504D01*
Y484646D01*
X462992Y475984D02*
Y484646D01*
X631220Y327693D02*
Y407693D01*
X641221D01*
X631220Y327693D02*
X641221D01*
Y407693D01*
M02*
