G04*
G04 #@! TF.GenerationSoftware,Altium Limited,Altium Designer,19.1.5 (86)*
G04*
G04 Layer_Color=32768*
%FSLAX25Y25*%
%MOIN*%
G70*
G01*
G75*
%ADD47C,0.00394*%
%ADD48C,0.00197*%
D47*
X392717Y450787D02*
X394685D01*
X393701Y449803D02*
Y451772D01*
X409449Y448819D02*
X413386D01*
X411417Y446850D02*
Y450787D01*
X434031Y308661D02*
X437968D01*
X436000Y306693D02*
Y310630D01*
X461516Y433268D02*
Y437205D01*
X459547Y435236D02*
X463484D01*
X468347Y454331D02*
Y456299D01*
X467362Y455315D02*
X469331D01*
X520472Y433268D02*
Y437205D01*
X518504Y435236D02*
X522441D01*
X515748Y478150D02*
Y482087D01*
X513779Y480118D02*
X517717D01*
X540000Y357862D02*
Y361799D01*
X538031Y359831D02*
X541968D01*
X585945Y310426D02*
X589882D01*
X587913Y308457D02*
Y312394D01*
X585945Y337276D02*
X589882D01*
X587913Y335307D02*
Y339244D01*
X585945Y364063D02*
X589882D01*
X587913Y362094D02*
Y366032D01*
X372047Y398425D02*
X375984D01*
X374016Y396457D02*
Y400394D01*
X389653Y336748D02*
X393591D01*
X391622Y334780D02*
Y338717D01*
X389689Y364339D02*
X393626D01*
X391657Y362370D02*
Y366307D01*
X391622Y396358D02*
Y400295D01*
X389653Y398327D02*
X393591D01*
X401575Y477362D02*
Y481299D01*
X399606Y479331D02*
X403543D01*
X409622Y334780D02*
Y338717D01*
X407654Y336748D02*
X411590D01*
X409657Y362469D02*
Y366406D01*
X407689Y364437D02*
X411626D01*
X465748Y394094D02*
Y398031D01*
X463779Y396063D02*
X467717D01*
X515748Y400000D02*
Y403937D01*
X513779Y401968D02*
X517717D01*
X513150Y454331D02*
Y456299D01*
X512165Y455315D02*
X514134D01*
X569913Y308732D02*
Y312669D01*
X567945Y310701D02*
X571882D01*
X570012Y335307D02*
Y339244D01*
X568043Y337276D02*
X571980D01*
X569913Y362094D02*
Y366032D01*
X567945Y364063D02*
X571882D01*
X574409Y400213D02*
Y404150D01*
X572441Y402181D02*
X576378D01*
X465748Y478346D02*
Y482283D01*
X463779Y480315D02*
X467717D01*
X631220Y327693D02*
X641221D01*
Y407693D01*
X631220D02*
X641221D01*
X631220Y327693D02*
Y407693D01*
X636221Y365724D02*
Y369661D01*
X634252Y367693D02*
X638189D01*
D48*
X391732Y446850D02*
Y454724D01*
Y446850D02*
X395669D01*
Y454724D01*
X391732D02*
X395669D01*
X406299Y440158D02*
Y457480D01*
X416535Y440158D02*
Y457480D01*
X406299Y440158D02*
X416535D01*
X406299Y457480D02*
X416535D01*
X444661Y303543D02*
Y313779D01*
X427339Y303543D02*
Y313779D01*
Y303543D02*
X444661D01*
X427339Y313779D02*
X444661D01*
X448228Y466929D02*
Y497638D01*
X417520D02*
X448228D01*
X417520Y466929D02*
Y497638D01*
Y466929D02*
X448228D01*
X430118Y482283D02*
X434055D01*
X432087Y480315D02*
Y484252D01*
X455512Y387051D02*
Y416264D01*
X414173Y387051D02*
Y416264D01*
X455512D01*
X414173Y387051D02*
X455512D01*
X452854Y440354D02*
X470177D01*
X452854Y430118D02*
X470177D01*
X452854D02*
Y440354D01*
X470177Y430118D02*
Y440354D01*
X437394Y317331D02*
X466606D01*
X437394Y358669D02*
X466606D01*
Y317331D02*
Y358669D01*
X437394Y317331D02*
Y358669D01*
X464409Y453346D02*
X472284D01*
Y457283D01*
X464409D02*
X472284D01*
X464409Y453346D02*
Y457283D01*
X501138Y358669D02*
X530350D01*
X501138Y317331D02*
X530350D01*
X501138D02*
Y358669D01*
X530350Y317331D02*
Y358669D01*
X511811Y430118D02*
X529134D01*
X511811Y440354D02*
X529134D01*
Y430118D02*
Y440354D01*
X511811Y430118D02*
Y440354D01*
X510827Y488583D02*
X520669D01*
X510827Y471654D02*
X520669D01*
Y488583D01*
X510827Y471654D02*
Y488583D01*
X534882Y351169D02*
X545118D01*
X534882Y368492D02*
X545118D01*
X534882Y351169D02*
Y368492D01*
X545118Y351169D02*
Y368492D01*
X558465Y466929D02*
Y497638D01*
X527756D02*
X558465D01*
X527756Y466929D02*
Y497638D01*
Y466929D02*
X558465D01*
X540354Y482283D02*
X544291D01*
X542323Y480315D02*
Y484252D01*
X592835Y301961D02*
Y318890D01*
X582992Y301961D02*
Y318890D01*
X592835D01*
X582992Y301961D02*
X592835D01*
Y328811D02*
Y345740D01*
X582992Y328811D02*
Y345740D01*
X592835D01*
X582992Y328811D02*
X592835D01*
Y355598D02*
Y372528D01*
X582992Y355598D02*
Y372528D01*
X592835D01*
X582992Y355598D02*
X592835D01*
X611024Y437992D02*
X641732D01*
Y468701D01*
X611024D02*
X641732D01*
X611024Y437992D02*
Y468701D01*
X626378Y452165D02*
Y456102D01*
X624409Y454134D02*
X628346D01*
X369094Y389961D02*
Y406890D01*
X378937Y389961D02*
Y406890D01*
X369094Y389961D02*
X378937D01*
X369094Y406890D02*
X378937D01*
X386701Y328284D02*
Y345213D01*
X396543Y328284D02*
Y345213D01*
X386701Y328284D02*
X396543D01*
X386701Y345213D02*
X396543D01*
X396579Y355874D02*
Y372803D01*
X386736Y355874D02*
Y372803D01*
X396579D01*
X386736Y355874D02*
X396579D01*
X386504Y406988D02*
X396740D01*
X386504Y389665D02*
X396740D01*
Y406988D01*
X386504Y389665D02*
Y406988D01*
X396654Y487795D02*
X406496D01*
X396654Y470866D02*
X406496D01*
Y487795D01*
X396654Y470866D02*
Y487795D01*
X404504Y345409D02*
X414740D01*
X404504Y328087D02*
X414740D01*
Y345409D01*
X404504Y328087D02*
Y345409D01*
X404539Y355776D02*
X414776D01*
X404539Y373098D02*
X414776D01*
X404539Y355776D02*
Y373098D01*
X414776Y355776D02*
Y373098D01*
X460630Y387402D02*
X470866D01*
X460630Y404724D02*
X470866D01*
X460630Y387402D02*
Y404724D01*
X470866Y387402D02*
Y404724D01*
X496063Y417323D02*
X535433D01*
X496063Y386614D02*
X535433D01*
X496063D02*
Y417323D01*
X535433Y386614D02*
Y417323D01*
X509213Y457283D02*
X517087D01*
X509213Y453346D02*
Y457283D01*
Y453346D02*
X517087D01*
Y457283D01*
X564795Y302039D02*
X575032D01*
X564795Y319362D02*
X575032D01*
X564795Y302039D02*
Y319362D01*
X575032Y302039D02*
Y319362D01*
X564894Y328614D02*
X575130D01*
X564894Y345937D02*
X575130D01*
X564894Y328614D02*
Y345937D01*
X575130Y328614D02*
Y345937D01*
X564795Y355402D02*
X575032D01*
X564795Y372724D02*
X575032D01*
X564795Y355402D02*
Y372724D01*
X575032Y355402D02*
Y372724D01*
X554724Y417535D02*
X594095D01*
X554724Y386827D02*
X594095D01*
X554724D02*
Y417535D01*
X594095Y386827D02*
Y417535D01*
X460827Y488779D02*
X470669D01*
X460827Y471850D02*
X470669D01*
Y488779D01*
X460827Y471850D02*
Y488779D01*
M02*
