M48
;Layer_Color=9474304
;FILE_FORMAT=2:5
INCH,TZ
;TYPE=PLATED
T1F00S00C0.01575
T2F00S00C0.01968
T3F00S00C0.03800
T4F00S00C0.03937
T5F00S00C0.05118
;TYPE=NON_PLATED
T6F00S00C0.12992
%
T01
X431768Y340000
X443000Y366000
X427600Y382900
X400188Y382934
X466092Y416067
X475500Y369500
X472000Y362500
X483000Y350500
X496250
Y345500
X496242Y340242
X507500Y366000
X516000Y362500
X519800Y369500
X544000Y345500
X606500Y416500
T02
X506500Y312000
X463500Y309500
X424000Y308661
X387169Y300000
X400400Y332400
X400700Y368400
X415500Y378700
X422342
X442256Y382000
X449000
X459000Y362000
X465748
X432342
X422342Y350500
X382000
X366900Y327200
X432342Y319000
X410500Y394837
Y414000
X415500Y421000
X421449Y421158
X427343
X412000Y434500
X405500Y445500
X397500Y440200
X388700Y445500
X383300Y414000
Y395034
X465748Y408000
X446500Y435482
X454000Y453386
X480000Y454500
X500600Y455300
X491500Y435236
X497500Y409842
X491500Y401968
Y394000
X475500Y400295
X550000Y402181
Y394000
X555500Y410500
X575000Y427500
X614500Y427000
X604000Y439000
Y453800
X532900Y428900
X524100Y437600
X530500Y372693
Y364000
X539951Y376000
X579000Y372622
Y365000
Y348000
Y340000
Y323500
Y315500
X619000Y322500
X495500Y323500
Y316500
Y330500
X641000Y322500
X640500Y427500
X627559Y427000
X604000Y469500
X565000Y471000
Y483465
Y498000
X491200Y480600
T03
X363701Y464500
X393701
X466100Y462000
X496100
X486000Y445500
X516000
T04
X636221Y332693
Y342693
Y352693
Y362693
Y372693
Y382693
Y392693
Y402693
T05
X627559Y447244
Y461024
X549213Y483465
X535433
X438976Y483465
X425197
T06
X629921Y311024
X374016
X629921Y488189
X374016
M30
