G04*
G04 #@! TF.GenerationSoftware,Altium Limited,Altium Designer,19.1.5 (86)*
G04*
G04 Layer_Color=32896*
%FSLAX25Y25*%
%MOIN*%
G70*
G01*
G75*
%ADD12C,0.01000*%
D12*
X505440Y331600D02*
X569240D01*
X568840Y326399D02*
Y323400D01*
X567840Y322400D01*
X566841Y323400D01*
X565841Y322400D01*
X564842Y323400D01*
Y326399D01*
X562842D02*
Y323400D01*
X561842Y322400D01*
X560843Y323400D01*
X559843Y322400D01*
X558843Y323400D01*
Y326399D01*
X556844D02*
Y323400D01*
X555844Y322400D01*
X554845Y323400D01*
X553845Y322400D01*
X552845Y323400D01*
Y326399D01*
X550846Y322400D02*
Y323400D01*
X549846D01*
Y322400D01*
X550846D01*
X544848Y326399D02*
X542849D01*
X541849Y325399D01*
Y322400D01*
X544848D01*
X545848Y323400D01*
X544848Y324399D01*
X541849D01*
X539850Y322400D02*
Y326399D01*
X536851D01*
X535851Y325399D01*
Y322400D01*
X530853D02*
X532852D01*
X533851Y323400D01*
Y325399D01*
X532852Y326399D01*
X530853D01*
X529853Y325399D01*
Y324399D01*
X533851D01*
X527853Y322400D02*
Y326399D01*
X526854D01*
X525854Y325399D01*
Y322400D01*
Y325399D01*
X524854Y326399D01*
X523855Y325399D01*
Y322400D01*
X520856D02*
X518856D01*
X517857Y323400D01*
Y325399D01*
X518856Y326399D01*
X520856D01*
X521855Y325399D01*
Y323400D01*
X520856Y322400D01*
X515857D02*
Y323400D01*
X514858D01*
Y322400D01*
X515857D01*
X510859D02*
X507860D01*
X506860Y323400D01*
X507860Y324399D01*
X509859D01*
X510859Y325399D01*
X509859Y326399D01*
X506860D01*
X504861Y322400D02*
X502861D01*
X503861D01*
Y326399D01*
X504861D01*
X564270Y334693D02*
X566555Y340692D01*
X568840Y334693D01*
X567983Y336693D02*
X565127D01*
X562870Y338692D02*
Y334693D01*
Y337549D02*
X562013Y338406D01*
X561442Y338692D01*
X560585D01*
X560013Y338406D01*
X559728Y337549D01*
Y334693D01*
X558157Y336978D02*
X554729D01*
Y337549D01*
X555015Y338121D01*
X555300Y338406D01*
X555871Y338692D01*
X556729D01*
X557300Y338406D01*
X557871Y337835D01*
X558157Y336978D01*
Y336407D01*
X557871Y335550D01*
X557300Y334979D01*
X556729Y334693D01*
X555871D01*
X555300Y334979D01*
X554729Y335550D01*
X553443Y338692D02*
Y334693D01*
Y337549D02*
X552587Y338406D01*
X552015Y338692D01*
X551158D01*
X550587Y338406D01*
X550301Y337549D01*
Y334693D01*
Y337549D02*
X549444Y338406D01*
X548873Y338692D01*
X548016D01*
X547445Y338406D01*
X547159Y337549D01*
Y334693D01*
X543846Y338692D02*
X544417Y338406D01*
X544988Y337835D01*
X545274Y336978D01*
Y336407D01*
X544988Y335550D01*
X544417Y334979D01*
X543846Y334693D01*
X542989D01*
X542417Y334979D01*
X541846Y335550D01*
X541560Y336407D01*
Y336978D01*
X541846Y337835D01*
X542417Y338406D01*
X542989Y338692D01*
X543846D01*
X531248Y339263D02*
X531534Y339835D01*
X532105Y340406D01*
X532677Y340692D01*
X533819D01*
X534390Y340406D01*
X534962Y339835D01*
X535247Y339263D01*
X535533Y338406D01*
Y336978D01*
X535247Y336121D01*
X534962Y335550D01*
X534390Y334979D01*
X533819Y334693D01*
X532677D01*
X532105Y334979D01*
X531534Y335550D01*
X531248Y336121D01*
X528135Y338692D02*
X528706Y338406D01*
X529277Y337835D01*
X529563Y336978D01*
Y336407D01*
X529277Y335550D01*
X528706Y334979D01*
X528135Y334693D01*
X527278D01*
X526706Y334979D01*
X526135Y335550D01*
X525849Y336407D01*
Y336978D01*
X526135Y337835D01*
X526706Y338406D01*
X527278Y338692D01*
X528135D01*
X524535D02*
Y335836D01*
X524250Y334979D01*
X523678Y334693D01*
X522822D01*
X522250Y334979D01*
X521393Y335836D01*
Y338692D02*
Y334693D01*
X519822Y338692D02*
Y334693D01*
Y337549D02*
X518965Y338406D01*
X518394Y338692D01*
X517537D01*
X516966Y338406D01*
X516680Y337549D01*
Y334693D01*
X514252Y340692D02*
Y335836D01*
X513966Y334979D01*
X513395Y334693D01*
X512824D01*
X515109Y338692D02*
X513109D01*
X511967Y336978D02*
X508539D01*
Y337549D01*
X508824Y338121D01*
X509110Y338406D01*
X509681Y338692D01*
X510538D01*
X511110Y338406D01*
X511681Y337835D01*
X511967Y336978D01*
Y336407D01*
X511681Y335550D01*
X511110Y334979D01*
X510538Y334693D01*
X509681D01*
X509110Y334979D01*
X508539Y335550D01*
X507253Y338692D02*
Y334693D01*
Y336978D02*
X506968Y337835D01*
X506396Y338406D01*
X505825Y338692D01*
X504968D01*
M02*
