G04*
G04 #@! TF.GenerationSoftware,Altium Limited,Altium Designer,19.1.5 (86)*
G04*
G04 Layer_Physical_Order=2*
G04 Layer_Color=16711680*
%FSLAX25Y25*%
%MOIN*%
G70*
G01*
G75*
%ADD13C,0.01000*%
%ADD40C,0.07677*%
%ADD41R,0.07677X0.07677*%
%ADD42R,0.07677X0.07677*%
%ADD43C,0.06890*%
%ADD44C,0.06000*%
%ADD45C,0.02756*%
%ADD46C,0.03543*%
G36*
X649606Y503937D02*
Y295276D01*
X645669Y291339D01*
X358268D01*
X354331Y295276D01*
Y503937D01*
X358268Y507874D01*
X645669D01*
X649606Y503937D01*
D02*
G37*
%LPC*%
G36*
X554051Y488303D02*
X549813D01*
Y484064D01*
X554051D01*
Y488303D01*
D02*
G37*
G36*
X548613D02*
X544374D01*
Y484064D01*
X548613D01*
Y488303D01*
D02*
G37*
G36*
X629921Y495420D02*
X628511Y495281D01*
X627154Y494869D01*
X625904Y494201D01*
X624808Y493302D01*
X623909Y492206D01*
X623241Y490956D01*
X622829Y489600D01*
X622690Y488189D01*
X622829Y486778D01*
X623241Y485422D01*
X623909Y484172D01*
X624808Y483076D01*
X625904Y482177D01*
X627154Y481508D01*
X628511Y481097D01*
X629921Y480958D01*
X631332Y481097D01*
X632688Y481508D01*
X633939Y482177D01*
X635034Y483076D01*
X635933Y484172D01*
X636602Y485422D01*
X637013Y486778D01*
X637152Y488189D01*
X637013Y489600D01*
X636602Y490956D01*
X635933Y492206D01*
X635034Y493302D01*
X633939Y494201D01*
X632688Y494869D01*
X631332Y495281D01*
X629921Y495420D01*
D02*
G37*
G36*
X374016D02*
X372605Y495281D01*
X371249Y494869D01*
X369999Y494201D01*
X368903Y493302D01*
X368004Y492206D01*
X367335Y490956D01*
X366924Y489600D01*
X366785Y488189D01*
X366924Y486778D01*
X367335Y485422D01*
X368004Y484172D01*
X368903Y483076D01*
X369999Y482177D01*
X371249Y481508D01*
X372605Y481097D01*
X374016Y480958D01*
X375426Y481097D01*
X376783Y481508D01*
X378033Y482177D01*
X379129Y483076D01*
X380028Y484172D01*
X380696Y485422D01*
X381108Y486778D01*
X381247Y488189D01*
X381108Y489600D01*
X380696Y490956D01*
X380028Y492206D01*
X379129Y493302D01*
X378033Y494201D01*
X376783Y494869D01*
X375426Y495281D01*
X374016Y495420D01*
D02*
G37*
G36*
X443515Y488003D02*
X434438D01*
Y478926D01*
X443515D01*
Y488003D01*
D02*
G37*
G36*
X535433Y488042D02*
X534248Y487886D01*
X533144Y487429D01*
X532196Y486701D01*
X531469Y485753D01*
X531011Y484649D01*
X530855Y483465D01*
X531011Y482280D01*
X531469Y481176D01*
X532196Y480228D01*
X533144Y479500D01*
X534248Y479043D01*
X535433Y478887D01*
X536618Y479043D01*
X537722Y479500D01*
X538670Y480228D01*
X539397Y481176D01*
X539855Y482280D01*
X540011Y483465D01*
X539855Y484649D01*
X539397Y485753D01*
X538670Y486701D01*
X537722Y487429D01*
X536618Y487886D01*
X535433Y488042D01*
D02*
G37*
G36*
X425197Y488042D02*
X424012Y487886D01*
X422908Y487429D01*
X421960Y486701D01*
X421232Y485753D01*
X420775Y484649D01*
X420619Y483465D01*
X420775Y482280D01*
X421232Y481176D01*
X421960Y480228D01*
X422908Y479500D01*
X424012Y479043D01*
X425197Y478887D01*
X426382Y479043D01*
X427486Y479500D01*
X428434Y480228D01*
X429161Y481176D01*
X429619Y482280D01*
X429775Y483465D01*
X429619Y484649D01*
X429161Y485753D01*
X428434Y486701D01*
X427486Y487429D01*
X426382Y487886D01*
X425197Y488042D01*
D02*
G37*
G36*
X554051Y482865D02*
X549813D01*
Y478626D01*
X554051D01*
Y482865D01*
D02*
G37*
G36*
X548613D02*
X544374D01*
Y478626D01*
X548613D01*
Y482865D01*
D02*
G37*
G36*
X627559Y465601D02*
X626374Y465445D01*
X625270Y464988D01*
X624322Y464261D01*
X623595Y463312D01*
X623137Y462208D01*
X622981Y461024D01*
X623137Y459839D01*
X623595Y458735D01*
X624322Y457787D01*
X625270Y457059D01*
X626374Y456602D01*
X627559Y456446D01*
X628744Y456602D01*
X629848Y457059D01*
X630796Y457787D01*
X631524Y458735D01*
X631981Y459839D01*
X632137Y461024D01*
X631981Y462208D01*
X631524Y463312D01*
X630796Y464261D01*
X629848Y464988D01*
X628744Y465445D01*
X627559Y465601D01*
D02*
G37*
G36*
X632398Y452083D02*
X628159D01*
Y447844D01*
X632398D01*
Y452083D01*
D02*
G37*
G36*
X626959D02*
X622720D01*
Y447844D01*
X626959D01*
Y452083D01*
D02*
G37*
G36*
X632398Y446644D02*
X628159D01*
Y442406D01*
X632398D01*
Y446644D01*
D02*
G37*
G36*
X626959D02*
X622720D01*
Y442406D01*
X626959D01*
Y446644D01*
D02*
G37*
G36*
X606500Y418619D02*
X605689Y418457D01*
X605002Y417998D01*
X604543Y417311D01*
X604539Y417290D01*
X467430D01*
X467246Y417565D01*
X466559Y418024D01*
X465748Y418186D01*
X464937Y418024D01*
X464250Y417565D01*
X463791Y416878D01*
X463629Y416067D01*
X463791Y415256D01*
X464250Y414569D01*
X464937Y414110D01*
X465748Y413948D01*
X466559Y414110D01*
X467246Y414569D01*
X467430Y414843D01*
X605239D01*
X605689Y414543D01*
X606500Y414381D01*
X607311Y414543D01*
X607998Y415002D01*
X608457Y415689D01*
X608619Y416500D01*
X608457Y417311D01*
X607998Y417998D01*
X607311Y418457D01*
X606500Y418619D01*
D02*
G37*
G36*
X636221Y406874D02*
X635139Y406731D01*
X634130Y406314D01*
X633264Y405649D01*
X632600Y404783D01*
X632182Y403775D01*
X632040Y402693D01*
X632182Y401611D01*
X632600Y400603D01*
X633264Y399737D01*
X634130Y399072D01*
X635139Y398655D01*
X636221Y398512D01*
X637302Y398655D01*
X638311Y399072D01*
X639177Y399737D01*
X639841Y400603D01*
X640259Y401611D01*
X640401Y402693D01*
X640259Y403775D01*
X639841Y404783D01*
X639177Y405649D01*
X638311Y406314D01*
X637302Y406731D01*
X636221Y406874D01*
D02*
G37*
G36*
Y396874D02*
X635139Y396731D01*
X634130Y396314D01*
X633264Y395649D01*
X632600Y394783D01*
X632182Y393775D01*
X632040Y392693D01*
X632182Y391611D01*
X632600Y390603D01*
X633264Y389737D01*
X634130Y389072D01*
X635139Y388655D01*
X636221Y388512D01*
X637302Y388655D01*
X638311Y389072D01*
X639177Y389737D01*
X639841Y390603D01*
X640259Y391611D01*
X640401Y392693D01*
X640259Y393775D01*
X639841Y394783D01*
X639177Y395649D01*
X638311Y396314D01*
X637302Y396731D01*
X636221Y396874D01*
D02*
G37*
G36*
X399122Y386119D02*
X398311Y385957D01*
X397624Y385498D01*
X397165Y384811D01*
X397003Y384000D01*
X397165Y383189D01*
X397624Y382502D01*
X398311Y382043D01*
X399122Y381881D01*
X399480Y381953D01*
X399754Y381770D01*
X400222Y381677D01*
X425918D01*
X426102Y381402D01*
X426789Y380943D01*
X427600Y380781D01*
X428411Y380943D01*
X429098Y381402D01*
X429557Y382089D01*
X429719Y382900D01*
X429557Y383711D01*
X429098Y384398D01*
X428411Y384857D01*
X427600Y385019D01*
X426789Y384857D01*
X426102Y384398D01*
X425918Y384123D01*
X401216D01*
X401079Y384811D01*
X400620Y385498D01*
X399933Y385957D01*
X399122Y386119D01*
D02*
G37*
G36*
X636221Y386874D02*
X635139Y386731D01*
X634130Y386314D01*
X633264Y385649D01*
X632600Y384783D01*
X632182Y383775D01*
X632040Y382693D01*
X632182Y381611D01*
X632600Y380603D01*
X633264Y379737D01*
X634130Y379072D01*
X635139Y378655D01*
X636221Y378512D01*
X637302Y378655D01*
X638311Y379072D01*
X639177Y379737D01*
X639841Y380603D01*
X640259Y381611D01*
X640401Y382693D01*
X640259Y383775D01*
X639841Y384783D01*
X639177Y385649D01*
X638311Y386314D01*
X637302Y386731D01*
X636221Y386874D01*
D02*
G37*
G36*
X519000Y371619D02*
X518189Y371457D01*
X517502Y370998D01*
X517318Y370724D01*
X477182D01*
X476998Y370998D01*
X476311Y371457D01*
X475500Y371619D01*
X474689Y371457D01*
X474002Y370998D01*
X473543Y370311D01*
X473381Y369500D01*
X473543Y368689D01*
X474002Y368002D01*
X474418Y367723D01*
X474267Y367224D01*
X444682D01*
X444498Y367498D01*
X443811Y367957D01*
X443000Y368119D01*
X442189Y367957D01*
X441502Y367498D01*
X441043Y366811D01*
X440881Y366000D01*
X441043Y365189D01*
X441502Y364502D01*
X442189Y364043D01*
X443000Y363881D01*
X443811Y364043D01*
X444498Y364502D01*
X444682Y364776D01*
X469587D01*
X469854Y364277D01*
X469543Y363811D01*
X469381Y363000D01*
X469543Y362189D01*
X470002Y361502D01*
X470689Y361043D01*
X471500Y360881D01*
X472311Y361043D01*
X472998Y361502D01*
X473182Y361776D01*
X514559D01*
X514742Y361502D01*
X515429Y361043D01*
X516240Y360881D01*
X517051Y361043D01*
X517738Y361502D01*
X518198Y362189D01*
X518359Y363000D01*
X518198Y363811D01*
X517738Y364498D01*
X517051Y364957D01*
X516240Y365119D01*
X515429Y364957D01*
X514742Y364498D01*
X514559Y364224D01*
X512464D01*
X512197Y364723D01*
X512509Y365189D01*
X512670Y366000D01*
X512509Y366811D01*
X512049Y367498D01*
X511633Y367776D01*
X511784Y368277D01*
X517318D01*
X517502Y368002D01*
X518189Y367543D01*
X519000Y367381D01*
X519811Y367543D01*
X520498Y368002D01*
X520957Y368689D01*
X521119Y369500D01*
X520957Y370311D01*
X520498Y370998D01*
X519811Y371457D01*
X519000Y371619D01*
D02*
G37*
G36*
X636221Y376874D02*
X635139Y376731D01*
X634130Y376313D01*
X633264Y375649D01*
X632600Y374783D01*
X632182Y373775D01*
X632040Y372693D01*
X632182Y371611D01*
X632600Y370603D01*
X633264Y369737D01*
X634130Y369072D01*
X635139Y368655D01*
X636221Y368512D01*
X637302Y368655D01*
X638311Y369072D01*
X639177Y369737D01*
X639841Y370603D01*
X640259Y371611D01*
X640401Y372693D01*
X640259Y373775D01*
X639841Y374783D01*
X639177Y375649D01*
X638311Y376313D01*
X637302Y376731D01*
X636221Y376874D01*
D02*
G37*
G36*
Y366874D02*
X635139Y366731D01*
X634130Y366314D01*
X633264Y365649D01*
X632600Y364783D01*
X632182Y363775D01*
X632040Y362693D01*
X632182Y361611D01*
X632600Y360603D01*
X633264Y359737D01*
X634130Y359072D01*
X635139Y358655D01*
X636221Y358512D01*
X637302Y358655D01*
X638311Y359072D01*
X639177Y359737D01*
X639841Y360603D01*
X640259Y361611D01*
X640401Y362693D01*
X640259Y363775D01*
X639841Y364783D01*
X639177Y365649D01*
X638311Y366314D01*
X637302Y366731D01*
X636221Y366874D01*
D02*
G37*
G36*
X497500Y352619D02*
X496689Y352457D01*
X496002Y351998D01*
X495818Y351724D01*
X484682D01*
X484498Y351998D01*
X483811Y352457D01*
X483000Y352619D01*
X482189Y352457D01*
X481502Y351998D01*
X481043Y351311D01*
X480881Y350500D01*
X481043Y349689D01*
X481502Y349002D01*
X482189Y348543D01*
X483000Y348381D01*
X483811Y348543D01*
X484498Y349002D01*
X484682Y349276D01*
X495818D01*
X496002Y349002D01*
X496689Y348543D01*
X497500Y348381D01*
X498311Y348543D01*
X498998Y349002D01*
X499457Y349689D01*
X499619Y350500D01*
X499457Y351311D01*
X498998Y351998D01*
X498311Y352457D01*
X497500Y352619D01*
D02*
G37*
G36*
X636221Y356874D02*
X635139Y356731D01*
X634130Y356313D01*
X633264Y355649D01*
X632600Y354783D01*
X632182Y353775D01*
X632040Y352693D01*
X632182Y351611D01*
X632600Y350603D01*
X633264Y349737D01*
X634130Y349072D01*
X635139Y348655D01*
X636221Y348512D01*
X637302Y348655D01*
X638311Y349072D01*
X639177Y349737D01*
X639841Y350603D01*
X640259Y351611D01*
X640401Y352693D01*
X640259Y353775D01*
X639841Y354783D01*
X639177Y355649D01*
X638311Y356313D01*
X637302Y356731D01*
X636221Y356874D01*
D02*
G37*
G36*
X544000Y347619D02*
X543189Y347457D01*
X542502Y346998D01*
X542318Y346724D01*
X497932D01*
X497748Y346998D01*
X497061Y347457D01*
X496250Y347619D01*
X495439Y347457D01*
X494752Y346998D01*
X494293Y346311D01*
X494131Y345500D01*
X494293Y344689D01*
X494752Y344002D01*
X495439Y343543D01*
X496250Y343381D01*
X497061Y343543D01*
X497748Y344002D01*
X497932Y344276D01*
X542318D01*
X542502Y344002D01*
X543189Y343543D01*
X544000Y343381D01*
X544811Y343543D01*
X545498Y344002D01*
X545957Y344689D01*
X546119Y345500D01*
X545957Y346311D01*
X545498Y346998D01*
X544811Y347457D01*
X544000Y347619D01*
D02*
G37*
G36*
X496000Y342119D02*
X495189Y341957D01*
X494502Y341498D01*
X494318Y341224D01*
X433449D01*
X433266Y341498D01*
X432579Y341957D01*
X431768Y342119D01*
X430957Y341957D01*
X430270Y341498D01*
X429810Y340811D01*
X429649Y340000D01*
X429810Y339189D01*
X430270Y338502D01*
X430957Y338043D01*
X431768Y337881D01*
X432579Y338043D01*
X433266Y338502D01*
X433449Y338776D01*
X494318D01*
X494502Y338502D01*
X495189Y338043D01*
X496000Y337881D01*
X496811Y338043D01*
X497498Y338502D01*
X497957Y339189D01*
X498119Y340000D01*
X497957Y340811D01*
X497498Y341498D01*
X496811Y341957D01*
X496000Y342119D01*
D02*
G37*
G36*
X636221Y346874D02*
X635139Y346731D01*
X634130Y346314D01*
X633264Y345649D01*
X632600Y344783D01*
X632182Y343775D01*
X632040Y342693D01*
X632182Y341611D01*
X632600Y340603D01*
X633264Y339737D01*
X634130Y339072D01*
X635139Y338655D01*
X636221Y338512D01*
X637302Y338655D01*
X638311Y339072D01*
X639177Y339737D01*
X639841Y340603D01*
X640259Y341611D01*
X640401Y342693D01*
X640259Y343775D01*
X639841Y344783D01*
X639177Y345649D01*
X638311Y346314D01*
X637302Y346731D01*
X636221Y346874D01*
D02*
G37*
G36*
Y336874D02*
X635139Y336731D01*
X634130Y336314D01*
X633264Y335649D01*
X632600Y334783D01*
X632182Y333775D01*
X632040Y332693D01*
X632182Y331611D01*
X632600Y330603D01*
X633264Y329737D01*
X634130Y329072D01*
X635139Y328655D01*
X636221Y328512D01*
X637302Y328655D01*
X638311Y329072D01*
X639177Y329737D01*
X639841Y330603D01*
X640259Y331611D01*
X640401Y332693D01*
X640259Y333775D01*
X639841Y334783D01*
X639177Y335649D01*
X638311Y336314D01*
X637302Y336731D01*
X636221Y336874D01*
D02*
G37*
G36*
X629921Y318254D02*
X628511Y318116D01*
X627154Y317704D01*
X625904Y317036D01*
X624808Y316137D01*
X623909Y315041D01*
X623241Y313791D01*
X622829Y312434D01*
X622690Y311024D01*
X622829Y309613D01*
X623241Y308257D01*
X623909Y307006D01*
X624808Y305911D01*
X625904Y305011D01*
X627154Y304343D01*
X628511Y303932D01*
X629921Y303793D01*
X631332Y303932D01*
X632688Y304343D01*
X633939Y305011D01*
X635034Y305911D01*
X635933Y307006D01*
X636602Y308257D01*
X637013Y309613D01*
X637152Y311024D01*
X637013Y312434D01*
X636602Y313791D01*
X635933Y315041D01*
X635034Y316137D01*
X633939Y317036D01*
X632688Y317704D01*
X631332Y318116D01*
X629921Y318254D01*
D02*
G37*
G36*
X374016D02*
X372605Y318116D01*
X371249Y317704D01*
X369999Y317036D01*
X368903Y316137D01*
X368004Y315041D01*
X367335Y313791D01*
X366924Y312434D01*
X366785Y311024D01*
X366924Y309613D01*
X367335Y308257D01*
X368004Y307006D01*
X368903Y305911D01*
X369999Y305011D01*
X371249Y304343D01*
X372605Y303932D01*
X374016Y303793D01*
X375426Y303932D01*
X376783Y304343D01*
X378033Y305011D01*
X379129Y305911D01*
X380028Y307006D01*
X380696Y308257D01*
X381108Y309613D01*
X381247Y311024D01*
X381108Y312434D01*
X380696Y313791D01*
X380028Y315041D01*
X379129Y316137D01*
X378033Y317036D01*
X376783Y317704D01*
X375426Y318116D01*
X374016Y318254D01*
D02*
G37*
%LPD*%
G36*
X509470Y367776D02*
X509053Y367498D01*
X508870Y367224D01*
X476733D01*
X476581Y367723D01*
X476998Y368002D01*
X477182Y368277D01*
X509318D01*
X509470Y367776D01*
D02*
G37*
D13*
X400222Y382900D02*
X427600D01*
X399122Y384000D02*
X400222Y382900D01*
X606067Y416067D02*
X606500Y416500D01*
X431768Y340000D02*
X496000D01*
X483000Y350500D02*
X497500D01*
X471500Y363000D02*
X516240D01*
X443000Y366000D02*
X510551D01*
X475500Y369500D02*
X519000D01*
X496250Y345500D02*
X544000D01*
X465748Y416067D02*
X606067D01*
D40*
X425197Y483465D02*
D03*
X535433Y483465D02*
D03*
X627559Y461024D02*
D03*
D41*
X438976Y483465D02*
D03*
X549213Y483465D02*
D03*
D42*
X627559Y447244D02*
D03*
D43*
X636221Y352693D02*
D03*
Y402693D02*
D03*
Y392693D02*
D03*
Y372693D02*
D03*
Y382693D02*
D03*
Y362693D02*
D03*
Y342693D02*
D03*
Y332693D02*
D03*
D44*
X629921Y311024D02*
D03*
X374016D02*
D03*
Y488189D02*
D03*
X629921D02*
D03*
D45*
X427600Y382900D02*
D03*
X399122Y384000D02*
D03*
X606500Y416500D02*
D03*
X465748Y416067D02*
D03*
X544000Y345500D02*
D03*
X496250D02*
D03*
X519000Y369500D02*
D03*
X475500D02*
D03*
X516240Y363000D02*
D03*
X471500D02*
D03*
X443000Y366000D02*
D03*
X510551D02*
D03*
X483000Y350500D02*
D03*
X497500D02*
D03*
X431768Y340000D02*
D03*
X496000D02*
D03*
D46*
X604000Y439000D02*
D03*
X575000Y427500D02*
D03*
X604000Y452500D02*
D03*
X390400Y301700D02*
D03*
X613287Y300000D02*
D03*
X506500Y312000D02*
D03*
X495500Y316500D02*
D03*
Y323500D02*
D03*
Y330500D02*
D03*
X530500Y372693D02*
D03*
X539951Y376000D02*
D03*
X530500Y364000D02*
D03*
X579000Y365000D02*
D03*
Y372622D02*
D03*
Y348000D02*
D03*
Y340000D02*
D03*
Y323500D02*
D03*
Y315500D02*
D03*
X383000Y393500D02*
D03*
X374016Y384000D02*
D03*
X565000Y471000D02*
D03*
Y498000D02*
D03*
Y483465D02*
D03*
X640500Y427500D02*
D03*
X627559Y427000D02*
D03*
X614500D02*
D03*
X491500Y435236D02*
D03*
X500500Y454500D02*
D03*
X454000Y453386D02*
D03*
X524705Y426000D02*
D03*
X535039Y435236D02*
D03*
X480000Y454500D02*
D03*
X446500Y435482D02*
D03*
X384500Y446000D02*
D03*
X401500D02*
D03*
X393701Y440500D02*
D03*
X412000Y434500D02*
D03*
X376000Y351000D02*
D03*
X421449Y348838D02*
D03*
X463500Y309500D02*
D03*
X432342Y319000D02*
D03*
X424000Y308661D02*
D03*
X432342Y362000D02*
D03*
X465748D02*
D03*
X459000D02*
D03*
X410700Y396300D02*
D03*
X415500Y378700D02*
D03*
X422342D02*
D03*
X449000Y382000D02*
D03*
X442256D02*
D03*
X410500Y414000D02*
D03*
X415500Y421000D02*
D03*
X421449Y421158D02*
D03*
X427343D02*
D03*
X465748Y408000D02*
D03*
X475500Y400295D02*
D03*
X491500Y394000D02*
D03*
X497500Y409842D02*
D03*
X491500Y401968D02*
D03*
X555500Y410500D02*
D03*
X550000Y394000D02*
D03*
Y402181D02*
D03*
M02*
