G04*
G04 #@! TF.GenerationSoftware,Altium Limited,Altium Designer,19.1.5 (86)*
G04*
G04 Layer_Color=16711935*
%FSLAX25Y25*%
%MOIN*%
G70*
G01*
G75*
%ADD23C,0.08477*%
%ADD24R,0.08477X0.08477*%
%ADD25R,0.08477X0.08477*%
%ADD26C,0.07690*%
%ADD27C,0.06800*%
%ADD28C,0.03556*%
%ADD29C,0.04343*%
D23*
X425197Y483465D02*
D03*
X535433Y483465D02*
D03*
X627559Y461024D02*
D03*
D24*
X438976Y483465D02*
D03*
X549213Y483465D02*
D03*
D25*
X627559Y447244D02*
D03*
D26*
X636221Y352693D02*
D03*
Y402693D02*
D03*
Y392693D02*
D03*
Y372693D02*
D03*
Y382693D02*
D03*
Y362693D02*
D03*
Y342693D02*
D03*
Y332693D02*
D03*
D27*
X629921Y311024D02*
D03*
X374016D02*
D03*
Y488189D02*
D03*
X629921D02*
D03*
D28*
X427600Y382900D02*
D03*
X399122Y384000D02*
D03*
X606500Y416500D02*
D03*
X465748Y416067D02*
D03*
X544000Y345500D02*
D03*
X496250D02*
D03*
X519000Y369500D02*
D03*
X475500D02*
D03*
X516240Y363000D02*
D03*
X471500D02*
D03*
X443000Y366000D02*
D03*
X510551D02*
D03*
X483000Y350500D02*
D03*
X497500D02*
D03*
X431768Y340000D02*
D03*
X496000D02*
D03*
D29*
X604000Y439000D02*
D03*
X575000Y427500D02*
D03*
X604000Y452500D02*
D03*
X390400Y301700D02*
D03*
X613287Y300000D02*
D03*
X506500Y312000D02*
D03*
X495500Y316500D02*
D03*
Y323500D02*
D03*
Y330500D02*
D03*
X530500Y372693D02*
D03*
X539951Y376000D02*
D03*
X530500Y364000D02*
D03*
X579000Y365000D02*
D03*
Y372622D02*
D03*
Y348000D02*
D03*
Y340000D02*
D03*
Y323500D02*
D03*
Y315500D02*
D03*
X383000Y393500D02*
D03*
X374016Y384000D02*
D03*
X565000Y471000D02*
D03*
Y498000D02*
D03*
Y483465D02*
D03*
X640500Y427500D02*
D03*
X627559Y427000D02*
D03*
X614500D02*
D03*
X491500Y435236D02*
D03*
X500500Y454500D02*
D03*
X454000Y453386D02*
D03*
X524705Y426000D02*
D03*
X535039Y435236D02*
D03*
X480000Y454500D02*
D03*
X446500Y435482D02*
D03*
X384500Y446000D02*
D03*
X401500D02*
D03*
X393701Y440500D02*
D03*
X412000Y434500D02*
D03*
X376000Y351000D02*
D03*
X421449Y348838D02*
D03*
X463500Y309500D02*
D03*
X432342Y319000D02*
D03*
X424000Y308661D02*
D03*
X432342Y362000D02*
D03*
X465748D02*
D03*
X459000D02*
D03*
X410700Y396300D02*
D03*
X415500Y378700D02*
D03*
X422342D02*
D03*
X449000Y382000D02*
D03*
X442256D02*
D03*
X410500Y414000D02*
D03*
X415500Y421000D02*
D03*
X421449Y421158D02*
D03*
X427343D02*
D03*
X465748Y408000D02*
D03*
X475500Y400295D02*
D03*
X491500Y394000D02*
D03*
X497500Y409842D02*
D03*
X491500Y401968D02*
D03*
X555500Y410500D02*
D03*
X550000Y394000D02*
D03*
Y402181D02*
D03*
M02*
